<mxfile host="app.diagrams.net" modified="2024-02-11T06:13:29.568Z" agent="Mozilla/5.0 (Macintosh; Intel Mac OS X 10_15_7) AppleWebKit/537.36 (KHTML, like Gecko) Chrome/121.0.0.0 Safari/537.36" etag="XLu98uf85BLTPcBZLF9h" version="23.1.2" type="device">
  <diagram name="Page-1" id="95taaI4Vka941YPR458W">
    <mxGraphModel dx="2341" dy="851" grid="1" gridSize="10" guides="1" tooltips="1" connect="1" arrows="1" fold="1" page="1" pageScale="1" pageWidth="827" pageHeight="1169" math="0" shadow="0">
      <root>
        <mxCell id="0" />
        <mxCell id="1" parent="0" />
        <mxCell id="KyCp2YwgPN-6iDdUvJKH-92" style="edgeStyle=orthogonalEdgeStyle;rounded=0;orthogonalLoop=1;jettySize=auto;html=1;entryX=0.25;entryY=1;entryDx=0;entryDy=0;exitX=0;exitY=0.5;exitDx=0;exitDy=0;exitPerimeter=0;dashed=1;dashPattern=8 8;strokeWidth=3;" edge="1" parent="1" source="KyCp2YwgPN-6iDdUvJKH-1" target="KyCp2YwgPN-6iDdUvJKH-88">
          <mxGeometry relative="1" as="geometry">
            <Array as="points">
              <mxPoint x="-110" y="65" />
              <mxPoint x="-110" y="239" />
            </Array>
          </mxGeometry>
        </mxCell>
        <mxCell id="KyCp2YwgPN-6iDdUvJKH-1" value="Azure SQL Database" style="verticalLabelPosition=bottom;html=1;verticalAlign=top;align=center;strokeColor=none;fillColor=#00BEF2;shape=mxgraph.azure.sql_database_sql_azure;" vertex="1" parent="1">
          <mxGeometry x="-10" y="40" width="47.5" height="50" as="geometry" />
        </mxCell>
        <mxCell id="KyCp2YwgPN-6iDdUvJKH-46" style="edgeStyle=orthogonalEdgeStyle;rounded=0;orthogonalLoop=1;jettySize=auto;html=1;entryX=0.25;entryY=1;entryDx=0;entryDy=0;dashed=1;dashPattern=8 8;" edge="1" parent="1" source="KyCp2YwgPN-6iDdUvJKH-2" target="KyCp2YwgPN-6iDdUvJKH-3">
          <mxGeometry relative="1" as="geometry" />
        </mxCell>
        <mxCell id="KyCp2YwgPN-6iDdUvJKH-2" value="CDC Logs&lt;br&gt;(i.e Stored in System Table)" style="sketch=0;outlineConnect=0;fontColor=#232F3E;gradientColor=none;fillColor=#232F3D;strokeColor=none;dashed=0;verticalLabelPosition=bottom;verticalAlign=top;align=center;html=1;fontSize=12;fontStyle=0;aspect=fixed;pointerEvents=1;shape=mxgraph.aws4.logs;" vertex="1" parent="1">
          <mxGeometry x="-23" y="217" width="57" height="78" as="geometry" />
        </mxCell>
        <mxCell id="KyCp2YwgPN-6iDdUvJKH-50" style="edgeStyle=orthogonalEdgeStyle;rounded=0;orthogonalLoop=1;jettySize=auto;html=1;" edge="1" parent="1" source="KyCp2YwgPN-6iDdUvJKH-3" target="KyCp2YwgPN-6iDdUvJKH-48">
          <mxGeometry relative="1" as="geometry" />
        </mxCell>
        <mxCell id="KyCp2YwgPN-6iDdUvJKH-3" value="" style="rounded=1;whiteSpace=wrap;html=1;rotation=90;fillColor=none;strokeWidth=4;" vertex="1" parent="1">
          <mxGeometry x="19.14" y="252.5" width="540" height="280" as="geometry" />
        </mxCell>
        <mxCell id="KyCp2YwgPN-6iDdUvJKH-4" value="CDC Logs Visualization&amp;nbsp;Solution" style="shape=image;html=1;verticalAlign=top;verticalLabelPosition=bottom;labelBackgroundColor=#ffffff;imageAspect=0;aspect=fixed;image=https://cdn3.iconfinder.com/data/icons/fintech-icon/128/11_Data_Visualization-128.png" vertex="1" parent="1">
          <mxGeometry x="262.4" y="130" width="60" height="60" as="geometry" />
        </mxCell>
        <mxCell id="KyCp2YwgPN-6iDdUvJKH-26" value="CDC Logs Data Viewing / Data Audit Solution" style="sketch=0;outlineConnect=0;fontColor=#232F3E;gradientColor=none;fillColor=#232F3D;strokeColor=none;dashed=0;verticalLabelPosition=bottom;verticalAlign=top;align=center;html=1;fontSize=12;fontStyle=0;aspect=fixed;pointerEvents=1;shape=mxgraph.aws4.data_table;" vertex="1" parent="1">
          <mxGeometry x="265.96" y="240" width="52.88" height="40" as="geometry" />
        </mxCell>
        <mxCell id="KyCp2YwgPN-6iDdUvJKH-27" value="CDC Logs&amp;nbsp;Cost-Effectiveness Solution" style="sketch=0;points=[[0,0,0],[0.25,0,0],[0.5,0,0],[0.75,0,0],[1,0,0],[0,1,0],[0.25,1,0],[0.5,1,0],[0.75,1,0],[1,1,0],[0,0.25,0],[0,0.5,0],[0,0.75,0],[1,0.25,0],[1,0.5,0],[1,0.75,0]];outlineConnect=0;fontColor=#232F3E;fillColor=#7AA116;strokeColor=#ffffff;dashed=0;verticalLabelPosition=bottom;verticalAlign=top;align=center;html=1;fontSize=12;fontStyle=0;aspect=fixed;shape=mxgraph.aws4.resourceIcon;resIcon=mxgraph.aws4.savings_plans;" vertex="1" parent="1">
          <mxGeometry x="267.4" y="330" width="50" height="50" as="geometry" />
        </mxCell>
        <mxCell id="KyCp2YwgPN-6iDdUvJKH-28" value="CDC Logs&amp;nbsp;Scalability Solution" style="shadow=0;dashed=0;html=1;strokeColor=none;fillColor=#EF8F21;labelPosition=center;verticalLabelPosition=bottom;verticalAlign=top;align=center;outlineConnect=0;shape=mxgraph.veeam.enterprise_scalability_enhancements;" vertex="1" parent="1">
          <mxGeometry x="270" y="415.2" width="44.8" height="44.8" as="geometry" />
        </mxCell>
        <mxCell id="KyCp2YwgPN-6iDdUvJKH-29" value="CDC Logs&amp;nbsp;Integration with &lt;br&gt;Existing Systems Solution (i.e Power Apps)" style="image;aspect=fixed;html=1;points=[];align=center;fontSize=12;image=img/lib/azure2/devops/API_Connections.svg;" vertex="1" parent="1">
          <mxGeometry x="264.99" y="510" width="60.02" height="40" as="geometry" />
        </mxCell>
        <mxCell id="KyCp2YwgPN-6iDdUvJKH-30" value="CDC Logs Flexibility \&lt;br&gt;and Analysis Capabilities Solution" style="verticalLabelPosition=bottom;outlineConnect=0;align=center;dashed=0;html=1;verticalAlign=top;shape=mxgraph.pid.misc.flexible_pipe;pointerEvents=1;" vertex="1" parent="1">
          <mxGeometry x="262.4" y="600" width="60" height="16" as="geometry" />
        </mxCell>
        <mxCell id="KyCp2YwgPN-6iDdUvJKH-37" value="Solutions" style="sketch=0;html=1;aspect=fixed;strokeColor=none;shadow=0;fillColor=#3B8DF1;verticalAlign=top;labelPosition=center;verticalLabelPosition=bottom;shape=mxgraph.gcp2.solution" vertex="1" parent="1">
          <mxGeometry x="259.44" y="30" width="59.4" height="60" as="geometry" />
        </mxCell>
        <mxCell id="KyCp2YwgPN-6iDdUvJKH-49" value="" style="group;strokeWidth=4;" vertex="1" connectable="0" parent="1">
          <mxGeometry x="489.995" y="313.435" width="192.5" height="158.12999999999994" as="geometry" />
        </mxCell>
        <mxCell id="KyCp2YwgPN-6iDdUvJKH-38" value="Use Azure Data Factory&amp;nbsp;&lt;br&gt;to orchestrate &lt;br&gt;the data movement process" style="image;aspect=fixed;html=1;points=[];align=center;fontSize=12;image=img/lib/azure2/databases/Data_Factory.svg;" vertex="1" parent="KyCp2YwgPN-6iDdUvJKH-49">
          <mxGeometry x="69.995" y="21.875" width="68" height="68" as="geometry" />
        </mxCell>
        <mxCell id="KyCp2YwgPN-6iDdUvJKH-48" value="" style="rounded=1;whiteSpace=wrap;html=1;rotation=90;fillColor=none;strokeWidth=4;" vertex="1" parent="KyCp2YwgPN-6iDdUvJKH-49">
          <mxGeometry x="17.185000000000002" y="-17.185000000000002" width="158.13" height="192.5" as="geometry" />
        </mxCell>
        <mxCell id="KyCp2YwgPN-6iDdUvJKH-53" style="edgeStyle=orthogonalEdgeStyle;rounded=0;orthogonalLoop=1;jettySize=auto;html=1;dashed=1;" edge="1" parent="1" source="KyCp2YwgPN-6iDdUvJKH-51" target="KyCp2YwgPN-6iDdUvJKH-52">
          <mxGeometry relative="1" as="geometry" />
        </mxCell>
        <mxCell id="KyCp2YwgPN-6iDdUvJKH-51" value="Microsoft Dataverse" style="shape=image;imageAspect=0;aspect=fixed;verticalLabelPosition=bottom;verticalAlign=top;image=data:image/png,iVBORw0KGgoAAAANSUhEUgAAAqgAAAKoCAMAAACMZv1uAAAARVBMVEVHcEwWikIpn08MeTsLg0kKc0ALe0UVmTwJaDkeokMJWjILjU0MjzSO55RLy2Y7vVgHTCkrsEx954Oh6KZt53RX1m8EPR+UNzUWAAAABHRSTlMAqzFfWzefzAAAIABJREFUeNrsXWuTosoSXKDp9Q4RdSI27P//V6+869UIDbOrTqaOKDNxPrh5st7Vv34BAAAAAAAAAAAAAAAAAAAAAAAAAAAAAAAAAAAAAAAAAAAAAAAAAAAAAAAAAAAAAAAAAAAAAAAAAAAAAAAAAAAAAAAAAAAAAAAAAAAAAAAAAAAAAAAAAAAAAAAAAAAAAAAAAAAAAAAAAAAAAAAAAAAAAAAAAAAAAAAAAAAAAAAAAAAAAAAAAAAAAAAAAAAAAAAAAAAAAAAAAAAAAAAAL4e6rpse1YiwvAxoqv53df2rxjcF/BtyDowMXehyWH/X/1no2TuSFgC+naEPgoaen4aQYX6EkZYDO4dP03X5k5Gx4CvwLRTtJTQYtRyuK0cX0q43l8vK4ElhH4SFvgLfRNEglHRm5UxJwdlFSmeZ7dY7YZXfnq74loFzHK2EmZf6OXFzVlfBVOcyEXR+nTB9qCpoK1DojVZBOKKLsV9/jIbObDU8DexPsvgUT6Duv74+4kSu4/uF1InhfUXV/ugioJy+XFC38cbS2v+/3VREVVrw33+PT0PoCMpeDREzCTldbfuiqYK5SzDFqRwkd3PoFFnfjaJVRQ9e3u/3P+nx5LiPSPeK4N5c9oU7Siq8Tx05dQ47A7uyTNVBvEuE9eAojWxMT9CTNSVCYu68vQ/W1HOG8mjJflitvZLQI4Zfk/XVrU9DaQdFJV/THdJ6RkpDXku17e8c5nphvg73C/C6wvpQ0qMcZWR9KCu4elJKOxbSP1dUl6cywj/I0jj+xPn9K3K1fkjpn3QK90QVuHrK4C8pUx4tCbc0x1SW2ZeKeoym/G3/0r4WV3uv9J4uwB26Wq6lPEvKInwd9cvYSbumZ4x9UII63XkZrta9W5quQs9VEPEISzk7GR9FDUrb/vWGdku7cnpGdS8ud14gtqqrP46/eVJfIaub2dKwlYiSWX0nlpr/RMT6LA/VldBUEzYun2a+/luvrr7I5DtcBVV9XQid45gG0xnFyk7K9geW45eF0iJFjcLiOyo7MfXx/Gfy09D9WiUFVZ+Z/I1WZ1ETZZrq89Ry9KRzKvU0MmVd1bX9Jy5ATdeLKQ3P1QMAOfNiarqfpYAKSy+ifpOI6soqUNLSxy09Xf3Vvx5ZNXSxlEqOQlW1mIZcgM/56Hmq/IZXyA+lchrzzJXX+U0cru3f9Fav9E0pcYrSQloCVZ+Kqa6VyszpQt1Jc30ZPcPSyJP8MQg7v/6GewIDWf+WB3AhTcnyVRI3pQphvpPV70yHqejdcwr6wS8/dcW+aXQT/VG7qvObiaT9pQ+s/sYXZ5JR1/CVrM4ODVj0k6laN90mRNwUOifUV+EVq+EXymmU+SfHWeWKujqoM12nN9/trPJQ/36FnJK4Mz4Wj3Xk6o+1/9I1DZkuUzmS59ZInYGos6F+tO9cjoZVRxdlHd5/r7NKFxt97pMaT3W5cf+Rouq6pqHrOk3LTHZfFUy78/FTYAknTUr1NDG/evRcbb/tn7W5X2rzyfqpq56SENifJ6qbrmmQlPX6TVjp3mvZP0fTyMhq/VOHpVFb/klbv0dVr82cklJWWiMp0jd+XFC1kdvXU6WdHsMXU3o2cCpuPYmesyqi+pARUvEyWf7p7Tc4ADVdJqZkTbyI+qWsJqIflqlqQrYxKnRq2tnm9L120+OzenkxFfZf5qSyijrxcnZVBS4Oq6ori08knVRGVWbxiYVXA1erH0tTG+XLgpRKpwZBTPPsTpVJ+Q+Ll9xiVGR5Ka2o4VuoWtOfbyiYkqIuCSeAOG/Hmz9XTb0+lGBkNOgMgGnaLyZolOF9JtjPUZUpqhbUkapX8TRdni4lTlaPssSldVLVjy//N8HpM5W9+7qD35ssVS7pNZl9lTnVRSdDUi94soZ/dgguEdXqfqVzKpOk4mKC/ullVdWPdlSft0cF2xHtp029QP9E2jSKUlRcI6lnPF1sfcyJ6YwLoqoLon1yUvtKV8kEUkpWh8cHp1Tr3Gi+WFgqwyrBWafx5KTVV1X8haAs3ndpavxTX0qvpeoU7d8vyUPxQEq+l6z0ODo/fhJNJVc9RVWbpLRTek0+SnunLJfqCGkwwZPUVRdtbNtTrmpdXZw5lclSVpQiUURdGCtehjf1J9I0+OGS7ivV+f3M3kidizqpqbLctH6OKpnqsTQIxm6jLe9Wae5nJvfIaeMT95hTSjp8slpK45/993FMbcLT3n3TZaJyVXLH2blUlG6HFjVTlZPiImoi/Z38HPR01NRS+1+ni9Onsloqgidxmyx3aSb0p+X+m6DD/LDBVBvuB7U96tRCnuh/Ft3Qm5X8xRtVH58xdfhpC+1/cz8rpm5/lEpTTQTU3Jxflmf/N9O75pOs/sZ5D26qNF9+Ok1TX1KjaOuL+UKp6jsVCagnNB0Vdfg5Lqr1/brkKcvbm5YTUYZyLL4k6yCqH6OpuVWRMvu0se1EDurZFWfFaX3VzC8VNeeTBp6LOuCcrta/R/U39dTpjzIJUxY1uSTVTJ3c1P61+Wjn1Nj5zEY+k9mXof7pcVJWJ2WCmnVKF0sf9jqnk386MXWS1PbYvGp9Sc8JL4jy8Il38fvJKBZBzWwl5iLUn2T1gylF+Wv2TQbV7OTpyqegYrDrTnhbnyzue2ZfFEkPkHWm6SKptwOiWqin5Mf7JNP8q5gusbw19kJR2WUk7Ptrqt8YrYdKNhTVeKfFfmnU+/iiJKe8n81Fca6Gg4o6i+nM1L1BVX3a4qv4SaWfpiDea5oSfCVN01Vn31tTG9N0EtTCSG9/VK5FStj9K7pNhc8anz1YE1/c7ZiuYjonp1qBXU1VdbnFl6UmVT9dSKupSSmf4l8C/klOJwa/cz51o16qR0qDs5EvuOdCleRN9bKonKLmMlI6jNpPUWX3YyuYemtvt7jjH5iKKap3SSxqSquI5lP6jsEnQVLx33pbpjbBGYKy68288Wdv7LkLJ/tMlaSqWahsK7QbPoUCmiot7Xnavzw3/1SYhFpH8rSlX1OmlDYfzEVlhp7E2xnVJ8mpOA7KV9Rsz/5FCVOz6GR7Uk9a/CJFXfNSnK23UVIfovokp0oXJE3VWgkSzf3WafXzUElTVERWbzqe2gTH0ofcMVCdPVqHr94r32uam4HivkC2Smra9g9ytJUcbR1FHZn6tSWq1Z/DfVFkmqPd1L5pOnEFVvupzC/V76q3l9PA01DM1Ju9u7p5T0ZOXVmHqalB7VFU2RJ93NwvNJ0qp5atC08f1+qagpQ0+iQb+igzceKno0R8zyTUFKjYb98unarlNNjjyGWXVEZP1d7I0xE+Hya1LaauvY+SrkeypitfHUG9TTwdqZo3//XZRj6SOSev6vTESWWyStov1Tfqt/ZO9WiJv+rUPwTqXMd+fKqoXmaK2/pQEOJHrqI20S8c1IGqPTLmnw72QxnHMyXdYiocgKQMv9LQpLWUSGdTJV3fV079Qx8NS93ZErPT/JScyvH8lanR1KJi1B1Su+kqDP6Gi3pbHzNVPaZW99Icvyw7eUPPLCGayEmeJhk9qVAqeYJK7zPw5wb73hGQuiaV64ku3Bfpb+DxE6mukMbD9XwvioqiZUpnphY5HWHN/x4HlfxcqRwzSbaM79aoHO8zOWY+uSQd3NQ3Yeo8umdPhFIdfDJFxYJ61YTSXVB9iv4A1PbGEzO0t9szbcXTq0etYdSNU/Xrqz7ooJKe0CPFSuOc6m5oJ8CXXmlSkvoU71HZd71Tdw1vcCegnMU8x2nq7t6NO0Io1nVSKKSaptGnqbT8DE1hBpVyc1Bu0OSEUDpgMrETS/TLRNUbMnUw++oAKMlPvS06Q1FG0pMrI2MmSbXVuX+4L8pp5uMcZZ19jn8q8CXyVJsZVDJTzmryObumx6nnq25+0X+SdI7qGZq3iaIcs28X8HoL909vjIyiMTqGsJWOMg0nrFk/lHC0jcro+9XT22L8DU0f1r86mEGl3PYIN/f0pFpKfMLEpWbaQdj6Xcy+FymZcT3J0vNrzKPTZmpWm0k91et4Qmk6qpUB/3LJFPhvPIGqqPq1Oqq0yzNNyclBqWd2h4R0VVX1aeWsiK/e3E2V/dGmj89JmOoCqUnznzwYQnZDBye8lxelp6Hc6LeLoprM1G1h6sDSVtN0oOpoO5udc6SkO6Q1SX1B9WdMRP7U+qE7qVq/uNkPXoJfnVnuHEwe1Mb9k4eWqdYTuYtPnQyht52EgjppFEafq2tWUF1F/VqIOoZU912NpknlomjHfjPdXCpbTCQ/k+7m34PX7U2tnDJUfibK28cjc6ZdUQkq2ik9/5gdf/S5NMoXVahWzEexaEq7p67d71n6MP69plb5Mn5yNkLrVFR2BZ/ZISHiKlsFOKal9NLDflO0nz31OTh7TTszpVfWFx1zvur2lkjN0nBonlQPmKwyalpQYk5OJVW/hkhqZWpVPxNU4gaf/P276wfWJmVbTzQdk7L26ThZX1JS6yAHTdRIFEvv+037bAbqZMOp3SQRojurpxZEnlPUKBV1jf9bp3CqKvy+oD7QbUw/kWktVeOl0uRnR59lAlUoqg6fDgnqi8ZTTWcH9L1tZ8E5ayecOBlCVkZFuKQX822s3pXLowraTlRiaiauP3jSbrL0ttD0q+3+543hO6ujkuuF6vS+CprUKhST1HcF9RDq13RP9VIzuT+q84+CCvLtmSjK2xsZ5ZYzd74kFviobabhdHVP20zllOf6leFfclOTpj6+s9+U2ctjRvClx7ojX6oz+GrvGR3ORznx1KsWo/S+PaavehVPp5r3Qzjmm0ovVJ4D6c6UqjFSPaFf2L/XeuXSLf+UtaAaSR2t/iKpsfu9MlX1P+eCfdqed5Y6KmZJhQ+aqDiGGhn6kvWpOmydWKouWkDP7TOPtrpvZko3o3x+1F44ztVomSpno2TEf1vnTluHpsLuf92mb5Vyg6VurnR/K7Rb2U9eHFXE0dfzUpuusyfsBLPtLPi5007ko7qjgZN3ph5TVC+KOtEXpSf1clRtdzWgWpoKH/Xxtf0enkTOwaReXmp7uCSRXnmisvvk1aKKrf7weKWh1Epv5rFeAN9pJk6FuKSBX9ekYmYlj394STgaQ/2fuatrbhyHYZNEUrx1xuo++P//1ds2sU2CoCzJ+bi002Td3ssNByRBENwSPs36Jk4TF6DyzL/h6b9O6vr4P3vNCKdk8jRPe1960jRPxjrKF0JP/aj6f4rTwNRQgqICaxNvw2Tsqk3V3RJGmgZnVnpExac3THBmGkvzKA9Pv7Dn/81Dd0j9iVTtAsnuQcyehYR1kJiJGd+E9hKHAjQvkHr5H7VRhfnTQki5rdQTJqREe2qkpt5Mv3n1WfBRpixNqjA10TrILf64g6f/OqlxhdR7pCpOaiKhOc07fpHGPmLSY6ljXFTeQvR/B6ln7PBlpHI5NAPTsY1/SngWIu3dKmNg2p7uYyINlGz0oYFKHs1PgxQQ9RGmS6xmVqR68n2mNNWEqXp7Rntvnv6vIPUi6lJU8gU0nAi2PD2shU7B+04Fp+gGg2hBlTqFqRjn+6zUXuYfgOl/JP4lVn+zf0nB5zlH0VmpjVI1RJ0PlqW/0fn/gtQLruivULo0UEQK3ZPylRePPUluZKa++S7+spWNYq0+VqfLUnSKNStSD6b/EaYDUFMbpF4nPE9GwnOP3RcdlI7KA5VpBiB9PFoR9fPjqQuegtYSU+sT3XlpJznj/KqUL73NOhRSciJKGiddmEKJGh0N6o5maqOmrmuYXh/Z36Z+HZ7eNuk87W3r9yFphk95LVE3gP24xc9pROYUtFL2pl4Hs48tPlvgc7UnxOusK16ViQRK+WmfnyI37iGJXwmmhoWaGg2kIqZOsxnpO95meM3Eik8b4TQ7XdQKpgpRPwypp6D89a1j1Ig39cbeYX6iab58R3cN2G1KqhX7ob6Fiik5VBRjTRk3NRQEqKJAXRH1EZ/XraP6fZ+I3KSQ83EEhQul8zT1c/tZpHoTplk9P30YTxf98yNWLYiiy8nYCKeJ++0nWwPwrK8MTW2o9shOJNdPhqTyp1ZKr2nfKPptmD4A9YqQ+jP3n3Z2oEEBTVr92TJUTyD3s+ClNKLmT7ZT55PxjrQ6U7tecnC3JAVXs18qTbt8+EynpIf7Ejq1q1Qy1NSw0/BvHf+gAdVC6qjb/GIXZVZMCvZmc0tQZs1B2a5fhexH26n7PVPtF02OPoIqulm0n1jHH6oaqKCcTPHfDWromJJB00iS/oKlZn3fCqUj9vs6ShU1ha8/JBa9cam5BaFnp0dQNZux/jbdJ1Tqp3L/eZ01GX2pqAHs1l6vKgoE0Yn577vMfr/Xvll+SjRA09o/qWCtbPetWvqXmtq6/avA03ukutoT8o36PcTP+QlsVBbBugZnlgXrhyD1nEDHx+88H6X3TWbHJX0fTfEeedPqcyQsP9uCViMomfddWipaQH1opr4o11/CVJbtqQvvDFb7M0z15z4clYG5cvzZDqfuvzl9Ck/vYIkASkwin2ZxZo6TosUZrDsraVQvGUWlUZ7WlDRRuxtSaj1adFJXSU5BvP51NKcYn7NrHTU316YGSQ2/rzuoJUTXzx8c74/cxlRdKR1D+4UILthDvzNXwRdST+tkCf6YmHw/Uk00klNmQcqXoBotym8nNULG16GaXYnpTIahRsx/qCDNhJ/KhpvSzH/+iNL/bJsnQ5keMoykxx9Jui9LT0LP8nOU9lGwqsfHT/pFLklgfRo9AnWgqineU+U93yjPxPw53VMWlNQaorrRz/r9A9Opc0DZ6SMoZRHQfZ48FY6TY1nKrHe1JU8XoNqZfnTiVNP7xPgcN06jr5gqAyq+rhPdKoFhKVibopfU0WBV0ShDVCf9pXA9fwhPPav9ERJ/r6spPf7IhPvGKRJK1MYbUCJMjd2JafQdRE3VkinLoP52Utcinj5GVCbnY3iyXqkhSrM7L82mXjVIuv7VI1bzmxmqMy7sB/GO58n7juzYLG8u7TjzfAzN0CM9Qa6UyE5kKUqlKARQlyCNbCIlEPV7kLNTJ0ofrb+tSmcdnrO7/TS3YWjW9aZhoVR4ahZgGwq8Pe9vMygujgrto1LG81uMLWuhEVBbncyh08cjEcb9hJhJEkMU0e97O6c684+Vr7/YRZmTerNzsmxup/MtoAKvj0GqW6n71+XN/KleIB21sRkxOusVnCbtv5cq7uj270BB0o9uZRoJua8nUwW9VDT9/kJLLaH6HSvQdG39zUkTYEufMc63g3yM1+x+66/35f7zaWQGfMGc2RsPQSgS+wWVqZrihzbTyAjr+Wa1NLk9FEdUqui/O6AyRP1ieFoNqAtJpdP9bBB1BifJthDNhDbNpgIohqf4D85vy/uBH4eQROkYOkvUBNPShD98Kz7KQIUmTXQkc6dINvUQUQvN1VAg+r+oVvrO9VeA6dr6L8Z8GKsHl0rsGD+b/ZKM7ZLT8Iuvy9vw1Jx9lDVpJ2mqc36tmSmNzz5Lc7qZz1ooFJsmTpsyh35nIIWh+j3sBqduqMy5Zxalc3OqzyCTyrrBz2J8CuRpLsTpu6jUUyCdk4rOsdU9iiOqGUj5jP4hz/1IOH1v/GTo/RRRf6JBtaTss5YoHte/11Cxk1AzOVnWX53mCRBVK090ZE60idq+zu+qT+WKadA91Niv3VeAyph9KjohIpPQzElFa7offWrfAdTyxunggiqOpL6/hqYwfUyoLOdk0n6NfD8XVkwEsuYJGP5pB0d/KNR39v0nOFBm3KM6ClPjaWq9zvbCNPRtlEqFFBGdQMsUyY2o5I9MrbKPOk2gZGpVTbW8JnvP9HCJKpHRMqgCWTMibS5Ga36HB+XJbpkAvd9vIGXL0Z1BfvtSCV0vsbqTKK7t3JN9kjgaiWpKwWnaM0DFTkrG6rfwmqp+/dmfOs317X32+NSsRlK0h9rH05xff3ziIsdPuLl3WGqqAbawWKJl+kEp90Oz0NTa8mCHr1umYvPk9ftFrwno+ceO118Nqc2FaeZRi9G3afjV9x6ObiGa8zuo1As//GhdI3sM+FrofZRFh5ZZaSRmEqVZvqKdyMS0xJ4qlbRZ5iPbfP8ANe11+U6Z6h7Ua9wszZyZ0oiqKoHcUJ/+/mN6NZ4y9f4xm8jEb0FWiPfo3LQVTsUOdLHRx2jlKNrkgeq1/MPY9briOnRLxi8Zm2Y25UcmYKcsXarTB6K+OPef9WgfDu503ofgo6dQiFNs6ts3n6NZMnlEbXQ9TQFRy9SpSPyedw9G6UahtnRSN3ka8c/UfKhs4ton2DGdgC41YFqV9AWqvnjJ73wyW6WHjMyTYxId6GK+GpbC4ZKOfgocTwpiU4RWBNBUJPpd1z4+O/2uAdRrRfKfe9M8afkzyk7l04q0v8XpiqgvDdQTUUod89tPqOzb2Salh0tCU6gyYj8VxvhmJpp0j1/DS0XXasKOTvc6qSve65YfnmYOLWJS+Zzq3J93p/oyRqcsaoBXzvtPQbry9V/XSbBVgnY8gaEpy/mtfhKRnIVwkFT2+chI1b2sI0r0d6NF3v+OlUF6M7G6Jf92K4lsxdBZ+UroFRP4WMz1OlTz8nZ6XcPPVvX6rj6ngljKcYmEk2Wy5Q/VyhPqylMaQDkS/n083blu7vj3IKDWsqnrKa+/03NeClGz3YKapsrKlCPqK7dRL/IOVOdWKRXwJ7Oh56pMUWka2gRSLFTdGE0RNfx2zp+KbZRrgvrlDvn/AWp9JxXYo+7xE5ScE27tMUVUBRmFoJqXJ6/q+8/6DtQTRPtJrUA53rtsm1TLpUJD58TOQuwuPhNETWUs5bfNo++JMnRTU0Hd8H4o/jqkJs4Iymzt5UnT/bsjqGnJ9VMWgJpfN+8PxoP/wOqzOVYqjSEDa5+cmOw1PCmYRabV0lT48klkTY0FKjOV/nI6/npqKjBgDYb235GcZGMYZUZQmc/0WZjSLn+B1W0utfzm9LKGX5NR3TMozZc6lKnvd6J2oltcJKAy3RFJpWh8+WJF0q+ymCKeKEVAve6H7XopYTdSqefuZMR7RnmSp4oGSnGla3CuWV/B7Cv6/hO4SYydfT45T+4K9xWDqvAztFWmDh2lw5Ju5Wv7qBQrY9UQU5HiqTaWvgNqFcMfLLretnj9Uy3V1+XphBMoDbQt3dOEwakRdSkELi9o+MfnjEtxvcTdKoWj5HYJOtSn/Mj7p1TuoqQhr6gIdpv9mo7fMZz4Btfe+gJgu97570Ou46GsUxRSUy2jfIxSjqj6T56e+8/aRWI8MIKS89EiH6UN+DRv2nYTigv4UuTzJ5XuG2hTezJ6BdPIBKgm639Trv9qeNOAPH/YUPaR/ytsJDJ09ZkhKrz5mAoZX4aqCFYJqfdHL5ycjs/Y0S+ro4gDr1JDh6YgVbb760d+99nEqkn8KXZ0Ui6eml4q9HX8QRQDN578syuDwvsQ2Vjy5PqsL6NUpXsZottvL6+YSI0H1KYwwNcqFFqWquFTwEFUo/gkWqEUcTVRPX9saJ0cPKUeqKu2DyH1p0Btl6H+oGkY4aK36aeyo9mDO1Doc2ppqOrqVDBSlljdXqdXTKT61aZSEYUcv1ucBj19asv6EfN+keGHqjQxPK2BUevYV+j4bcNf0UltQUmf/KDp7TdW3fNPmbD8+lmmq6S1WV/OTTmiZlkTPJnp7zWJNiL+hJJTz3AfIPXQUqny4o1lOoobSaSaIB24oj/SHgoR9XtnyH8jQRpuQST+24qot1FMUmmiz1ipMuI0T0YeVZH1Ra+vun4jSX3+cCr0+vKYTWcLsNyMxyBqaD5Tbuz2yYlS3y1aB2eqAdNBy0+di3zGZ0rJ+9oX+kR1+hug4bY8srv4mW5HZagEMk351fEpe/2tWAVEFcF6eTqD2oum5mKJ+mivQQS7+NzjZm5WTApiPvUtArN+ArXAqL5rzrf5vvjyiQHUa3GsH1SIyjPej1D9405LMzXoydx4zwaryfdUKSXRc9IxrGL19NwCNRyoTJ2TZdRxHz34QvdyKV+BomQUwGmqDdLBICqxljREv+Mz9e1ao9x0tIYVPTc66ic4b0tftST/XJiZInGKiOoYSDUiqorIKdMn01MZ1D7OFJQmngraavhTL6RGx0iCnoYwV/YqW6dBefRssYmmkt45CRGlg2BQ+UJfqakKgo9aEPW2naj5Y+x4MjfoIS1UVdbnalOQn0y6RsXc/zwTqtOx43qpYkaKST90QGpUzCmslZYMT6jk1NdGDZDyFW26fObjKEDTATP/0CDnC1AArCTV7z/uwBoycYucYGCvDSTZekmxyydqU8lQEUTV7NTzitRTz4G9RE8+wtgU3c0Comdoy/W6Bt135vHEJjWLegRRRcInDqji5An1mZKd1JX2+uJnECF6/4Pf0LypOvXf+9WIo9CPx46bCnRpIW7laF9wqJOpUbON1tP7C9TkntgtXCcFAwmw3W9b0Y/W66zoIMU9o1KZgRqULprZ9Lr2UhCpwz41FZiI/7aQpqKlCg9UvS14+vPLv9RtH66U8H29tm5/YmFKERUBNT/JLa3rNgQ/SL6znt/tEh2JmC+WCFMt3ke9fipPm1R7zxA18rXoLzHiH+yM386kbjuFwNrz3+506lanLqG6jPyzkex50uhpX7KPRD72UIomnUwZwGL18vYCNVkClYmjkgbUoF2ikVFt33reqU61FiqVAtTy+YOc46ud/dJknzJTupH6TnVDqSCy/3/EXYtS5DgMLEBxZrDj4Jva///VY5LY1suvTIDwWBhqr2qPrpbUakkbQtGtZGsRSDf0Bl9QSLWWaZ/H1BeKJMSbatXvdT69Zmr6Y7Bswp8xn6oboemc3jlGnbQhqKnphzZTp0//prApDfKURltrJvQM9Uvf2guivCeJqsMV1RHxM0yPN+aFkpHet3PTwhgUreQJx0r81h5/Ret0/PSzoWopn9CXnVLJqAO56dRdP/HwxjjAAAAgAElEQVQGKR/QM3p5f+Mro6kkhZX9qUinn9J/eqOBv2ugD/ZAjwRVoOB0+Y89IYCgWPmkKrV2bYrk3XxeK60Mpt3P+28EfgP6rhNTvwpBKPUco05S4a+LUcTINzCgJ4RSyaT4ZuSki/wo4EtGTYQ6l+b1IQumSDd1NCfdYfrEbrqwQHftFs5B9S7hkZW+wqirwqj+R4H6cUKTotW+aU3oC0o9sZJnYttN+9wmmFCfTV1QRo83ZW7fiqrF/EavVE9Ob9IxpcyfgDoKTT0pEa4OIZQd/Px+JazUyqctjhq0m9YY1Ustqkmtryap76PLowxUFu9yTQpL++X95vXJZzSoX4n6onjKxf4GUNZc14dAnv9ItpGXxvyYmk4tiZ+3+DecTu0KCpf6ECVTF6HpSL0fUXpkqayLX5t2bvGq0jGlY1HDcf/1JPVtIDcVFyBrp8q0A5DmzHkI7uGr5KVib4SBDM/4ZtNBx9IZsg2uuWSqrj9rdqOQXRqq1lMnJvqOPDR1pVDkPyqrdFgpSEatHNepNKAUbZ8bTNZRMr0i9n/0LNwXO6P6LpJLRn31hElb2s/bpAxAhOJMWXTumk3GaEUA1fZK3W4an1Khv6PJn4z7gNg0cWwU+Pe6H139ctuXklHFIcge+z5+Z3IqaUONkenrQK1V/KZMqe3TECCapTAIUMXCN1VXReKv4CDRGTEnpc+5H6wJofXV/KUJfn3+BBQDP7WfOJSKOmsZnaKPDbJh9V5xR2kBv4pOZpFSNfwzKH1R8n/rrZ9ME6RsoSmT+QeKKHlZzzTVUhTxTUJpgubMj4zPQ3vJMljr49B5X59onH5+7YQKFVc0WNp4ivTpLKmjMjwTTJ/PLEunIlJ9pcrnUCXNKroEZfQJPxH4+WUIA1Wc0m6UNrQHJ2z7tU18mtnUHCjdqJRQ6IwROjRRD5xZBUgFm6oJKtH6Qcim+KUjMcU21JigOsC1ftoUcmip6oWdtn2Py6ZSh+LEepJSL+/xG5VQTUGQ0i7n8gmTc57olrTP6fSJ0tneU1aKGBWH/HnMCApJDygJpxWofqU3EEGfOPdzRY8o1cp3fJx2y07dsYPB6gtNtXqKolNUT160nTixnnzerw38RltnXj9TKsaglDof+pNThVFVrwkd1Qda20tGHeBToJNKsaA5sPqph30lN01YfbqmANVGB2UmNZ/Kplnyd7jgdyQ9tegSyPOrUJ7TG1x2Iq1R1zwfPyGhGq0DBdW1UWzs+czsM6PSLq+piYnpTGBK3rXo36lpsrvvRquf0FbJm5T5cyXlGKOC4o5G4Z5wqbMAWJDamNTB8dX3D+/lkp4eLPHESSpb+p6bTb06qz/+vF1FqEbsNikcfdaKez5SAoPa6aQnp02Umhjy6ZtS5M9dET+/7USFvjkql0kzoRQK/lhKGYunnEFW/8l6ynv6juj7mVDxbPuGV+jaY0r9e57JUT/LqP5HJFRRO6HFpkaZLRGb+M/ZTWt+aH33Locpl/Lnrq2OtN7G1GXpEVjYsdrQo5Im9UTp1+dNde47yqipEQWicepSd9/idUspUd2gepc7JUSMlysjmoz6cmq6hu39dJJqdU90wQ+tWqMK66CJKNVv4mtd19F5FTQyFXTaiPk5QyTB9QiwYOVxLcOWnyrzpjE9jVo/VPTTVOc7bDxFo1GsioIDoPh0sm3u3PVy8Y6QTQtDT5fQ6/vLgd9UpvRBc+4BlfT5nCmMy1HV44/CyR8dUipMczI69xVOsNf1GZCzvYew7aDdapM1hPvdWhZxppuuRokM9SlNQZ6Bxq1Qxuh5EDq+J5BiiT/vCnGY8IPSMFUxyqeavT6f718nU0qsH1dUUgbKjKplqKJ8OvlMYgdv5Ugp3Rs1WZ6bqgp/Fa+QqHQ/iLv6/5ZH6VkWv4bZQvpX325iN78Q+r+e0hQguMXGfmo7pflnmpQmPwo4oZyqG2xtbbTE8wURKhB9kVHPhfwY98Npyf9NGy4xQtkv7jGnR6BA2c8zYDadeqonut7s+4MW+pRR+yL+oZA+f+vzfV3+PTqff2uIaL3dKig9MtQp4wwb83dXicuWExz384CU48opZlTaTl0jg8oNZgenapTKF/CJ+fzriqqXKillf4S0oKjr98rLTGHQbdpawkfoNMJUB6jeNNWXkxwF/bx2QxTT63rf/pnTrRz2v7YMFWhR5rCusAsLWWB1VKGiGLW5ys8JNHruNOAXBVP5M7Z/rzT0fI5VQ6LX93M9KZyDygM7ovHEXFCgMuqJjTyEUYvroVnRb/UaiiC0yqdHYjevy+P8s6wWBFRjtY+a/FJAoFB1+BU0EUW9Jw6yghoRa8lPqXOPC6X8DBTfucv7qNdRaYTq+5nAb0p6lKlt5qGDegqjwtCAyUSNUsoKKaUJ9Q3TQsifkWJa9UfBsWHs8frjg8VQ/WJ8+nUDYIBD4DqwCcLF73ACm/DJZCmRpYbaWmi/lpT8a5XTlJLGrzOjfpyspEzXhdKC60Qy6hih4nWmHaI+GsmHdhE1V0C6E5MNV6D0INZAoZpkqSdWDewteaHNZtkedRVQ6AclOeXwxCjG5RTdB0lGnhRXCYFq5whUN5GSsupUJWVqtqhilc/mSeF8pa+t4ZXLeJjIf9BpmVHbvujLuJTw6t3caBF1MOoNIwu3QWOgj5hEs3t4fg9zp5MhH2UBz/e14DiVx3W0H1/biwoyRx2spt6V5JQjVZ/Vo1OltK0/OKM/OpxvktsUJaRzps65xyG1I2VeHz/xrPZG1NP9A5XnFlgWkMZItxQADvGUTZlY7Dzh8OQv3AX+FEYVlOo1L98rcT8whIb4yilpyhToNDOqaugzeJwUxtukWI8qYHXS1kXurx0QLbT2G2rU9tsPy+OnniXcKEy/vibA5U8CnaPSkiUGg+O7rO+7+Nc4PkXdb0tXSokZRTLqBXSKU1PKqKj8fx+UpozYdlJdGYXrfKD3y0ZL/fYWiUlgNJ/ZURpRWhE1F9nUro+ffVYTi6jt+QQMTYfbX44wpsvdf+4ycKhLyuEZv3E59quDJXTffpFR/aUqf/w6ZFb9GCNUwxm1glV5C4otkzg3stczoS8Ol5VMUj26/vbuHz//PKGaGNXw03KWtudx6KcDJjgNTVkDK6GQripiP+/i64x6ZenEa6iETvTn26DWzxi161aZYcv3YbhzytjUVD2mhi+ILPT1iRu6gNn9dzr/Bky3wspEQr3x+tzxgB5d+lZFaYa2w6ZYUkIlZ+r+8EslvI5Xy/6LmlC5V8oYNf35NqT1EztUk0qNuuMMTtDoxJZItIefMaNWPKdzy3C6LWd8/N4ToWqEf5Iz6oEx5jPNLVeUoqa/7GhSAIRXA2+fCkYlqPSvRX6RmGZg4hw1FVPraPO0adlXoGpOek35zTJ1Mw8/mZvhemSqBemUU+hcKPR/E6ZbAjAlQnUcqhbFcyqXWgJEBE9Ewgo68Ut3zzZAMgufL83n+fVS3RQV+wFJ/+8jzVO0P6q6cZ+tjjzBqBMdMemz8JmJrYo20yQ8/BSmVUvfL5RQKqt+fpqiMT2PkrD2ksMqlKMNKUeR7hSYptjPV0hIRvUXFVGBNKAwxwYkV0VO/Rgq+UlDSkeo7OmfW3HGjpVUrkEYRqJ42RlUBKlGp/Tp03z8zRNUjDpkJsV0mXV9K13RmYSdLKDoNwFP6XmxZtcXruxc1oBClX5AwD1e+BjJUDVdXzHyKQa+YYwiiNYG9jBkFaxaKvGzUei53DB9/sLvy+OvnuVuoMCqDmFQgzFqDYiTipb0qKSFapUjfEWYXoVXFOwJtwZEt2Gg7H+TLf7ikjPzoiVanC2ryKb4fAk/r2NsVeIvEuqx5+7xl4+3Raiiqp109IFpT0lm5VTrClAVLhRFnGrdhhhToYLGqLRLFSHbC1RrZAnFZkv4EgkzzqeTYRP6jbFneewZr+RTyn1lM88szzj8TdRfjo/903f8NxWQKhYo0SCVR2qTKKUQ6rPul8cgruNOGs4zWgNn1LBytD4/+YGSv1E+cbPJOUu0tnS/ujASh3t8/tHottNWFfXXdJqh+k2q5Di8nrXiSh8PR0G0BDgpozr9P3dnm/cKHj5/UWbKGRX39mPZH/JX7532PlN7I9WSsj+y+2bZJOX9+lJT2oLCZdRc7pq2JvTvfwPQBcF0OUg17+oGVa/XGZXxrav8LdLvp1WUl9X9uYgv9NHAo30gCSkF6/H2PtTlL+SjoNn3RidKJ6VT2t4XyS4/xk+gyadNTepP6DTikzNqJFVxTE5lVScsJ9gl7Rhc9UfdZebFtMlljBpQsURKfAzRdQSo5WUnyjzp6bPP/bmpaOcLPlVH9mt1fh6V//VArzPqsn1/3/8fl6Ba0ppsCY6utj3kfskq81Zxv6ICnxb5NF0NlFM/ugi1Mlxq+PXH4YU8Ru44q+ITAZNd2Yk/q3X3S5Mmbvchr39VQiGoLvHV7/f1CFVQFQGSuRq79hO7uhZCcezXYemvINGgM2qQ5ikFsm/9TanScQh+T7eTUCfdGi2wKnZIMOOpvLFT8knNNT/f74d9EvAXHvwXVFPVoOpyq0lPUl0vocYZv1U5s/uqpM9gWmJUSqWYVHv0qQ/tDhQYJR2F8Zb+JM9AMmQaxbrHsEkPQ9HJqLmuRpGFI/PyyyhdEEaXGO8xoz4/7dV/m1Vd4k7HwNpJqSas102XhJW1m3DgXzkkJVYDywE6xqYKONUq/FMnICfeL2W2k4msOcnNfO7k1/h01hbxzwUPyv0PlChaTy2ZTPOnRzD7sSsDAI2WlRABekJ+mti8+6IY5c8nppJRA2mQinSUVlPxrZdQ6UVyNSHtbelPjEonNmMyTVXdVD0Emfi0ZEOpMeoe9sOvV/kL/o4B9LEsiWTXHLnqGgAp7ZGBpQ+vxp4/BFkO+dxtGsQ8tETpKUZ9M3rNL9dImHNhXx6ANNomCdF7Mtpxcihu6JsLw9DHAhLwf6dJpfi/FGjVRzNa9llCG62dqSka27hyt5lsQclO/o5HhlWB3D596h3kBT05YTqE0oms22/79ZmwXzpSWhuOqhDqMafpf7d8ohxKYEm+OL79Z2PEgqawWiuyGjdrg3q57NWhfApW/LKCx/95u7alxpUYeAKeiVNmcA0u/v9XzxLHtlpqzcUJJLshgX1iu1rq1i3Pzo/e65NSetGuQmRvMd/0RDMKZZd0WUaK5dPBtfmv7nKJFajpLxPTQ0OhMwUgRaSmCbYi1HVVB6EeI/C31+3jy6x/r6Dvj284auq9NsvPzuqpDXzdY1ABGbXSD01jvK7tI07Bj6rz6R/I/WRrT2kBdG4s+/gWcGpK39Pxmy5bAB99QV/Oa06vhKfSTTM19LNV+VRf5Zo/dUHPyaKxOzkNtkuqsMocZqCMgqrUo6ZpYs3SdrH5X7pRiyrpg1GV4D1w6nKVPNFUA/hoifkg0V6VoWa08VVvFAv0WXWiIIqrRupb0GUne9ikBabBtp+E4jbzYDlVQtXyqdnUZxiVFKNWZXz9Gy5NrJ+PgjLhdx+cukb/I1VtgWodqxEm4PMrKvmZrebxubT2bGLU90FXnZ5rhcaSfoz+RtOIU8/RBn/Vj2JxalpQrtSWmv7QNE0A03QUTXVKSig1rZy6BzGxBWzoNU0x4h+4v71C3+shPS8bxU7UWkrwWTH7a4w6nCzpk+Jo1LIp0jqU83B3SF+ngoqafplPEyoosJ80Ohm3Aq9unColVWyg1bLUl4vvpmco1Cvt53kuZaeOb3qQ6fomV83+zjt6Bb9U26VkramagwpOrTQaerX5aVHrH0j9w15oxagJvank5AEHTpd0jbgl6fwjIqM+3k7Pp6bZtJlyxix7VBtO8/6maKReBrN918r9nkG9xh18glEBnD67DhPr65vg+J4umd67NdOvAjSpPhPhRGH0Z1JfIfX+OqmrxkNlCqCPUePwquK+zlE9Ji1hVDDqz/OtaParg1BPMWrwnCjbIBVYDaqg+gfinpZOl3/8iX+KVinBrWebKh59wDTtimoAVVVqAWjITkWOuvWl9K+K1F6UYdRWhKpEIB9f30velDqx19UXHXArT4i1VtPgSimaAYTCIF/51O6xsvn7121TAU+ojSZVjnIwqn64+am4gaYXrJG8PnLdW28lnw6XZnOFpy0nBS69//mBaJ1RVcPJiR6+4Lv61N/3ERmp6hcD/Fdbz+f26cdh9H/+dtRPWjvRgG8QigF/s6fun5bPqPck9YX/6DDq+m46KabUrqjspqZtnHqE/e1LiVHfS4XTdkKtH38kF/Zsm2lJ8PMjJw5at0Xjv4TTRMqltrJfFE5IqRtKtxRghko03vLsIFTDqCtou4CJVIrFfe7vV3NTIfMVZi+lyM+otP1SaVlD2csQUL6PtXhPK1LYhnJ1Tu6tfJr/wpJaoGG/KvBN3BdZ6oNVlxxsx3q9A1Anp5ZS7197c1S7IjK3pKht+emB25Lj/xbPHSaHRaa1mI+lJw1PXXziXVPc5nej/9b7fn09PhOBqq6LtnHpcggoo6eWW7A17MGuri0npzRJjcXaVHbvQnBG7UfoEeiziP25PDV1EaPQQ3fYL67d9W+WeYLf59NId/W5fLrr/el3+ZQy6lpzasJpSiLqA0z//b0G08AmpXuTdRpJqhq92lQ2Bn/mlXynJtVCodI43XlUYPVSkFLDGScK10OH6hIJvSZa6/1KgjpQmBb59N7//v0bmWmy75XAX4zeZ3apfGsfy/cQojJU9cGPA67w1mHU42jYtXXNCavkI6N2UalA6gZQ/KE7jPLe3HHC/Ki2c7oNfaYlsI7GQcUaP+tC2Qh1/gOxL4kVS6S+JaWlPmSo2zsjqGQz5gDmqvCuSoy6P6caSsE0xVURtoLflZIaA/VAbKmGeulfGRX0hdLK6l276IxE/jKhxsluknbPRg1Hgnr7HV/fxHsc02MWlHWj9vciS0W4SkEF42pIkNjH5zMqHGGq7zHPDYx6jk+PlzlDvlpg1LdzfhRI/dqlsmggKpFZROi48mmYyCbpwrGT9ebd6xPUZOad0yL/pL0l2on5IJmWpFBKHtcQ9GTloEqqjFEZpUY4GJq5elILoq1Vek46gRe1+vuztqi2x1tBSnV1RkHjScPlkuh7T20NU3vgJ3v5GZ8+GPV1DmqSFX1inyZaiko1nx8Uv0pP93chBjIRBD0mOkeNllJlahuZ7KfHysTOXborsr3LVCFWwjQf6eoK1/+eA2okiyKr2/ahjy8yXz+24DU6OL0Wzpm+3EHF0j22RBda9nn5iZPpokP/v8cskbp3U8VoLoDpXMBhVCX7sz2fR5bsP2GXIkzhsxD/B6M6NdT38+vNWu9CeElpFZ73sP/zJIHfGKmmXeplDqppOVnUypNUrZYuiFBtShUi/7/HTXGqTgFaGNVw6gpUbxUPLODLzKNqzUmzivtlRl3/vp0m1GDnnxt2RQIYY7MNRQA7mdbTa+Wg6T1Bjem1plRiLdANPAoqHzpPEJ8eVo85CdixMOwZgPRXGaPSRfeDf/8xMy+1Lz/NaswUq6WAYWMAUKCGfjYNzZ0nZDwf6/qxIKDGsBJqGOM0kW0olE/hBFN+QWKaaKl0UW37vluKoFyStaBKZCqCf9BVQ/CdBmNXYV+KCf1x+FCLIvWBMmXpd0HVqHwp+BViJaeuj/eTkT9g137tOgQ5XnaSS8f1JZpr5sVLfNtB8Fcp/sRqpQn7oysoVRS6EKVfBOstBLMWkYwLKc0fXZTe30zZbzy1A1C5197nuWmGpAAt1F1rvXVG/sCKUIxQbT0/mpE8U4GKRXju78d7U//Ej0fRfv6dUNOvVUxNOlruPUkpWbSmRjr9eXxj7B/Q9o/QEs3EfrSifw/92WomIbDMEvOmqK+wh6x6KPzMGJW3T731tu7HWLn0DNNQBJCxzqGA0kPxq8LplV462W7Zfzxr9SezIepQ+gltqbIVBQAFQ5/RKYftkoM2qeDK/IA7bQeNTmaj3pv8M6uY5ll1Rp1U+qZmqlumZmTW/cN7S+QPZvNuaC2RalufrjupFEql2n9g1Yoof9xUHGOaXlDR5+t4TIW0Nq6XVMtpH52ugynhWCynWlSwqBoxRY025O/v1RCp7YEuD+25bKqbTZXcx6iPP5q9HPVSWA6Nd3Tb+qC1eorFwj4B6QjZ6bj3ouC2Pr8Rdb+qHOfnQWoYFfacLWR7hHbyF3whrlQjaD+Dif62qVrClIh9nQrc9DEd3L8/99ummaj8bPr6BKMSAFNGfXPOktprz2QfH3GjIs8/Y5eOGoFRg2OZWovqYxBC6tUWKlklkVwNJdGKzdBLcoqmVWq9rb9i5f3vWWqBPfkNxn+Pm9pxYtfuNk7oNYR7HesNo0q0XsqRP5DuKNRRoaGmH+g+ngbJP+oPK1ZZZb/Mp/fAHz+fotNkik8LG9krjD1rcl3aw3xBTwXqJg6i+c/xTNXP7//+qruh4czzPJ9wTonYt8FezaKYB2lIvdi1e2L9XvD6o9zo7wKy0H8yQnI6AqP+WFOYml7d81EiQX1u+3nijJrMwH7yy6RKMkmpv3Rr/vT185K3SjQ3qIxass9BrRW9YUVfC/x8IugTsT+TiWhCpjIHuJDNaMaI0jlAKTP1NvTotujY6pji23Hbi6IXTVT59ERNKvntpItNSrl+EuRpB03cjHRpQOm9OeVYLcNY1UR78wlvMa0dqVldgsz9bpRJOmeHLGf6aW5g1Hcj7RsOP5L2qMh9/Xgy3IuXAVf2KHcK89NJXK+7PWtK2XXmxSIUavzF1J2WTpFvsPq1UmrAustg+/5Kkf+RI2xG7McW4enUaGe1lDCqB2RX/7s56kUsNtH3H0NsqJGqzTytayQaiHUP/MTmv5Yapn6gGnsJNdmQz818T+JrdQ+EaoG7dEB0p9Sv/Vetu6n2THVgcV+9EfUCtZVnPtG2r3acza6Uh2/MHplyRn0Lzq7I1sZ9PF0G5lNVQ+3FfCzr48tg89KrE/XhVH0+WyIVIgqWSqSltpNHjegrfd9vnH49ELpCFbNU5XUPkVefjIhS0B7ogsh8qvkk8w/MYq0/Ljzyq569hnvPTtO+xWYMJ8l0hW68EkblOmqSh2zPdU1ZRlXVqKZ5UjFSsmjVtJwJ+huj/vsCa4+RUlnlX+cA5rjtrBpQuur5ZPi5zKhz4VOZUS/oQYVSGSr4/v6JhpPRGKcjodR1c18hM5Ujp+J+XbydLOGTMlNt4tlt5MMZvScAuhLqnWDz/t9A1VSMg+XUuLPpoHoFYiQ3Hhv3Rs1u/Wkm7XtzI5N6jBqwx7S1VsohDPtMS0pqpMHf5qdr15Tc0V/afT6JQ7bthJrMBLQ3tuf0nehRKFbS71dSXzL8yw8Bd8si7JRZpTLTIcrbTOs/rk6WtLftg07y2vdy2QfwgPpOu6AbKvqFPr52dh11H7962WtSk9p8fmWN0sKZOkGoRtiTe6XFSr6Z2FtOS/yvg0WBUO/fuIUgqYLeVmKSSi1o3pB7crJkpm4pVJ5MtfQZRn1XM6T8wI6ukPK4H9rdUlnXH5Wg2skUCLXS2nfkpw9C/WyFKHTuaXNftZx4eSldHEXk09IM0i9AK3zvW9/mUKNUpPCvj9tKSOeOgr5RTzPxolQD38mHzlEHckmXu/re0hPTq19190evsi9TU02o01TKUAdpTN23fneYpcmzSutrTQGfS5Ia6gxIlbv/daSpjwT1/vU2BiKoIPk0GapaKCqWirfu2udbeVoZ9cSDmFMhepsknDlovjsqdigoEd13RpWU+vjBcDXHTgheP2RJ6s6nLYRqBD2u3edQ9ebz2VKe5ayCApB+HTB9kOunXILoBH+lo9RGUZmj5gKb+t/PXj2/P0e1j5sN/e8qM626payNLzS2nYy6AHXUSw2Vjkcb6lRZ0H+cOjsk/3BKRyU6mi/2SRRwCuL+bOvJF2amB1QRqYMo+hlKHfTsn7wS7qh+czjPd0pzzs44lDMAdTb4X5Q5FaKzMxIOQKCUj8+Mk47UlAIq3cE6XO0GtKsB7LCpqf1ubcwtqWli+/iYpV8jU+XwnwOsUE7SjZI43d7mgP8RZIhKUis5vywAnD2d7+/kpfMl2VNQ8ytyVLcxSl569hwnVTONDeCUOmkUumo0ycCWoQKlFo5IHU2oxeppImhNui86qYpUfcDER+TSmZ5KN+oL/orn4zfHKlRW/0tWNVsB1vap0sZ9nWT6KmrWc6Ynw/7652LLUqEt2sdSLSq2Bv4RTSklo/AZp3onCnb1Px5TzYZK/pHytCwtK3ih6KQLUr0G/xea+0Cp7HnD2B/YwVp1JgQnVsRV29Zle7NHp9n58gxcNaNetsihlvMUjpT32qXoOSFCdYqqn24R6qp7+h8w3Qh1bktQk1uGqldK5Vipkvb9QT8R2tTp6bf48Txi8LecOpA9FcbE8hjVWwxNCFUuis7ZDuydUFFMTF2400/7TCNdXR47E1Mt80uMGkHj+/tRRLf0I0Utq/y0SEa1g1DFBj6xPYoshzZhf+mAqTH7Ebfyg1w9Y5A6qFv2aloV04Hh9j9r19qdOg4DD21s7AvenDjt//+rWyBxNHr4EQhcCHT3S6sz1oxGUn93/mwlp7MiS52N0v39AuJUdZee54mqkYz6KpQ6Bp2YlApE5YBaGdtDvCj3YkJ9AGo0ZX1jahTvLVl7dpesehK6Dtf1M0Tm312mJEo7/3N0ocb8ZdRK3l9Yv5mWMmWfzzzREfXNK6qs/9u3qvi4TZePMx21oARO8zmIwo0AVAtSJ6ZNVURUnHDCqX711GfNemtK5sSzQeqk1ErZi4DXX0eneRlp6sSLVWCw2r+MLe+e7M/7LKJGiM/yFQ3Uiw2nMjTPFkpJ7LGhUkZm+vcIT22qyyrNw5SJqIlZ9LlnX1NNG/4oY+L+aA8UjU1EVARTLVJz8sHx01+rUOFCJoaoW2VKF0/1c35WmNP8ESjdyX55+eZcqnfYthQAACAASURBVKrw0107vQQ/aEXSHpLPClU3gah6JlAq/LfGya979u3TXvB7YFHvtJXwAlTimukRkdng/YFBqjZDRbhVIUfd7qKimC4V38mscKY3qlBqxEYcQPFV8+0REeoYvutH6qVBGk0ZoAYbUSWgmsPPEU/pyZ9w3ImiofYaTflg05UzpjW9ZztBRT+jyi/wNKff8vukfzBjIIXgVRRtF1Xgr4mms4mo8+mMNIoc4JumqLVp+xVNyvcVnoimzzh+NU5DINVT3tF/FYtOmR/FF7VfbC1hBArxtDl5d2VBqSSk/TCbMSNF8sRikn7I+1v2AacnGMK/mgzAAhzhN7FJPi/pv1V7iuzEL1gaX2/fPEW1pP0TQ04CG21G+ZKetcoo3d98D+dXAfWmDo5SLVFysEljSjQ365/o1bP4U1YqUEkJ2+09BvLr1k9/6pJm1SlSCuAm/HlebB+fNYX3Iwe+OR/14oxB5keZf3SOucLzJeFXctKAcfoA1GtPhjptNf7bJk3tan9STCcr31BWsUU3HVInmH4GlVSt6Js8f38riJrmAH8Ws9efJqWTqFd5rPUvizrmhHU5S57/hrIfWeV0B1QSqF+qXV/ONzsRnUFY9o+JZ5og9XovBz8Z39fi/ILyH3X+tIoglPP2NUTVOf6b03i4tp95r4l+3HNWVUL11yGkejnl13vh658k1eJTzK0RUtRc+llEjcuixO0xyPe7uhjCj6wtCYLrB46mrn7eUzQt2tRNmYMuWqSgevr4A6wKoibp509r3SDFDHwIn+uwso/WvcyOfPk5S+KfM0lV0y0oM768Eamsl19HVKiWGq4TOVHyE2pUPGI07h++qDjFmZM/vwOKjTUDi6mQ+M1ILfEqO/lUF+oNw5SIU0LS12qkdpFU30nOIrSX6mduL+Ucv1KD2mOUn/0ZktQdU53zJqgaK++UbTq8JCWG7s1vFUpjU/d//EdfMkVVJ0hJydT3V/WZab9LO6Vx+prio46ZxNppaZK673HqZtYBBVZTrPU3ydPHxvBhhtpMSVmw7jF6xOnfFzM9xLwVqpPafoKBKjz7mH6y0Waf00uR5ZMEFRH1i7dF8akRfYppEH16ARJVtVSKqBpkvLJhKKYbRQKqT8qaPStPNetPirZPUHRUNM1o32cMvxqjJTWlUfsK2BAcR1RnaFQVRJ0WQ9SnY3o+4NyLHExjFU9JjvrNjnt/bq6J3qjfVSaF1JRQqbCJqNcqizpO/htsA0srm8fD6L2p9XP8XMFjao6OWntgNBNEzamhQh0RCqlpidHtxrsgEdV5fRclbZrCn+u7yaWO/2HyFPeIREAt6er1ixf6sQbFzns/IqKyCqkeqnpqemhTz08T7+aXSyWeWj+6+56AeuV+Pjjy20ZouQxqZMWOXsxnFpSG44SGKaNRhE09lFTw+B6Zmy33K9ddbdSjkPpuViriE0MVEPV4Rsal9NUlo0ZTtW2vBqkgmVINNWyAem0ORjnqUUdL3x+cLFzuVwhUc0spzOIT7tJ1UIs6IlTzRbVOfhVRH/dLCMxU4U3L32RuD7/qe8vYZt3znXrRIFBQjYolQpVOFM8mRXpJmnxfgGLjcx930sh+ABG10ckPoUoQ9T+2UrfDsi8GRmnF/ME9e5k1mGSrpN+QTRMJUkL+H7e/gYepk8tCmtdV8fDRg5/H6/wmplLo3E99+TMSqF+qM8rYW9azV5cNjgo1eV/G6Z6zPi8xr1/H01vZy1sA1TvG95Oyaq8+J1Kbb3Ze8ccGaM1lYqAoQGgCLN2vraCHiGqV/C1EjYtse15ao03PRqiOrwJRn2+ES1XTT99aqyfDUgyOCh3qPny55au8P0qbh8ZGTuyAeqM9etiUv1YW7YiyaMJdO2PD9qm11FTzzUqplq0S/fS4piD+ZsOI6qLYWgLJKeuHnt8i+iqosucWz/FCuZSIyy7iFJzcDAFP6Y9STCcBKqYhEET11jbeqzSj3EiY/j3dzWjOXytSFNNNV+WMP42ninXPTkyLoi9TUrwtbCqgllrMKZ3B6nY7qj6AZ8bN5PObNCpC7EagU6LWf6FcykRO3z3SVKdOdTSFur6jIfr6wYQs36hK3Q9p6iifPidPiEHma+fw3VV0QK21BREWmKJb3+7XUyv8FFqpekrid7+WoEGqUfW3ltwuIjPlcv9nyk9RUnuaqoovvw8u1d+nZ9j0Td20xqAcqlE0QT04f3smmjz5n8z2VZeSO0pb3j1lNdk6jKZZyFIKgNp0n2Jn4plpUpB1DiE4DqmdYVpC1SxJze/L/BFwMwKMGsSqPL8PLsUWl/jGxJMgtkBK3TSYRz4GJDn/kUa5Ik5VlKm7Jk49Z9d499+6drU/6ePMtV6osfnQOUmhtG7dS7z0RBGVZqaCT/2yYQktPqUtvpvq+/POyVG88oT2/bjwHDXyeP17fBfr1AivD46rUXz0SY8eZXilyrXdT7JZyjJM3yd6PQrdqTdO+ZDIVZ/E0yueZjFDik3hax/66OCXlSiF9gdeRnVk7VIzTB//2X3RekyX2l6TwXM/In4q/IkGaHl+6VzKjUZrbX5EQz0Flh8C4/wu3Fre/glE1Dsgah+WJtn+nIzR5kMaVE52F1RT1j8iFc2ndqj6EBwT/XvitCQHd7cVpj5RG40Vyh9RoeI8X8ApKfVfnDRIVz0nbFAkH8HXilBD4FcAVXaf6mMm79iC8orT29rdp4ebyU1Nfx30RWEXVJvlg7ivBmSyADXfgqBTdHxo8/B3z8KUzE9PS/tRxVPrmLejlZT6fQeBCrW9z2ZeKqV91mRyhCTD07A1S3V0n8qa1JNNuWtz2D5uJzd2kq4j+0khKlUS1chQWRrKv7SvGGAqYq17Su4Se1UArrKrdNFqp2fwNNJZUlHXqdijvF3L6vPRGFVH7zY6SmmHiQvcG80Adf9Qx9P7XpS6KYDqXawue5ZTTXt6S7tcfNmca6pXSUkwJjVm61iai5CqlGpakEoxNy4Khs4fSwC4N+pQ9HU4LbcXwqV63NBBlEj5bggrTIMTriiHBVORoZayVBNPy8FfmqS3AurS1KTkoOg3Z0ioeWnu6dRLMhJTNjMA5ZqLisJMVN4QqV7f3N0xDp8X9E8Ha8RZfBERldaddEQtz9fLRZD+nsU6NY0/mCY+p6ilAKSOQmqhVi3Gvwcpsv6NS83m5F0rTAFZV70pujrYDMqkfZ160Pisaamd1yz8UyxJdSqe/j2mPWx5W+mnZ51J3wlJV6NG91+PC9SlfIfThHXjm+4oTY4SNyw/leEa9rJUX4ZK1f7nROLZ3Pusn/xnFpTaQ3k6ukoS+KHk8U6LUM24/T0QVU6jYGHq6O6bwv3vWnH0rbGRTIhSnHxw3GuISmXUS18lX2dSjSZ9IUQ5mQDYiKpUpK5CQr3BtKnDjOr+s1r1xFTT9fTcXTEwKtnVJ/vQT6hFgfm09/r9F6QhmAy6pVuYC4dyE0kN7m+YTaMepcRbIpx8TIlCJgUfvoFLDamnQTZD1YOU8ycdRYFPceeUufSUU6mNxLpWM+maNKK/vgGkEJl1uZTZoawcdSBW/x22lCB9VE7LUB3Z1OTd9aPDTpDgx0V4o1WmLxh/PBD1q8dx4owBPe1+UlmH4soURiv50qsLJC0RlYr9D0QNv9bYKD6Adz1x2mdlv05OSdldktsNe1zoH81Pc/7JOWhJKk67Z94/SFzd0zv1KXqvmfU0/371sd98dXCp4MSGUoKjPYe+ofJLms/QlNZPtev+KkqJHpTSBezMSr7kR+9M3bdP/Tp1EhY+LT1NfUH6eH392pyTPSkqk3qd+lsIP2N42L8XRf/TwkRSQFRA0q3mFNuPuLRIf9D27QDXN2MUbPtO6PySNkkldTf3V1ZL3CThLyrq3y//Fxfpbo7pxJqgVhmmA56T7tKoFEhTJm36CTPU/iP/p7zuyZVTwxQX3WGkctL/NsPH9BRitfTr9eHp4+VqcqlgrNdjbfraLL7jJ6JTXxz3VUTtSFGnMnRiooPRthzVeVrNF5X89B7NT62tED2desk86sfP/vzjCqJyPuXgtC8rRGGf6Iv0v2PhYy0mkY2VYHXTniM/MnWqA0YhJw09eSn5B7EaLEIlL3/rlaZuCKibPMWOfCzsr9rgqHXklE98LURh8DuPt6IzKwr/cGb6Q14ejw1RDd+7F4CKa8T3Sv/7tmjG85E2HappbOHpgakXUekPasU0sChV1uwaPSZmI1SwhNOBQCXS1DSRVdLb3Jq/vw20kq6yS+9cNSrjnH0xZr/Fm6RHKkF5P42F6U/5xm+/UKeZqGBzKA3Xnfi7gUCNSohi0ZMze/q/xCqRKlF6vO8y6sAo3gqi1mZJQI5aO/IdS1H7EPWuI6qHVlK+BXI1xpmP+UxT23CiDOJLGJ6jp/0P//R6eulKoTV/oqW6oypFulXGl5ZEpo5GTq20JpM2eYL3eMiojXWlfMOOa3ZCIdkXpmhnh2boDNTd1n+4+24QpK9VmZlNj1Lz0nFVSq6Capqj2AAJ5o1KpxJTCqc/myF1P/xVRsWPejKhwu32/u4h+9Hog4oLU55681IIThKlsYzy+4ZuZ9ZSaizZqRb1RVUfm/ctQHWjXApZ/31CeWo7+un0vbXSqd934Oekq6cdeJrlPL50nj79kNP/Z/vk/xUNUElUeb3fcVydBgr2cAv2Ut1gunSCKTKp3eSnyahBXRFRsZoGK0ih+9n1JaVDXEq1921+lO3oTxCj64nBZokZ92CrboYZPTUpiqlSecgWZR/7P5RO5cJenXb+4257QNTXt9f+hY8YrFwv1a3QzVCNjO6XJ1OnAiP4Crz2xyn8I5NPHMJnPWKn5jLJ2z6x/zD4EdLvfrE5X9lUso7pT7CKdIPZpriPIYozzkYI1MGagPAfL+6f4kphTX6Io1BBjV0denIiZN1d2h+nJFwxUos6FYJwQ4deFUo1nfJKaZAhGjpwdTqhTJH1yc5VuvHW/1m7FuVEdh3IyR2DbWY2NY75/1+9wDysR8tjD0AqIdRW7W6iakmtVms6mfPV/Ol4QiqEpdNpppTAaV4bKPqq+HWBgT/EURKr7tqv2FOhaiHqcYxSASp7h9ikeC049U2VKd6D0oQUkUK7nuR/IJa+o62+cuX7+a996KZfDaJOHdMV+ApTP+/uJ2EU3dc/ZdxC7eD6fpF99Ebfv11JofSUY4QVLlHlYVJhEBlmpOUDWBo66lMZpsV94soFJpSCalNDA+EpLQBaAbR/LjUOsEQdtrYftPXt9tCJDUmTcjcTRiaty3rT0dbzYbQSjj+zV5E4IDqvhlNE78eidX3eGjafpCfPLG13IZYeq6RoWIpvng/GTnmHj5i05nyGlsZ2ieuLV9dw8HxVTTF1/05P+X98JtWOpOngmC4/DGETUhM2OOng9WXC32NTvvNE1Oi9yaTSNT+OqNszdFwmpYMnTZJKQFVaU01GzUaMBqKd+vH66lNLrteaKO10ekDon2v6x5oe5UqJ1H9/tmNUext1YL2DJqWShcKGEl2T0pxKlpeIulBUj1iQAZGpXELtFqq5PA9YU9nxByk0DbPegWrkoUCdSpqrwLRTHjqcmvee9e6T3t2TiNqb+4djRN30KFu4Xhnh738VG9UcoXzlOZEuv0VeynP9ecFJBm/k8qUE8OvrI8by03ewTqWN/pUs9R2zqDwsAyep2FS0dwwFKgD2oJt9CFF9O2MqNSekYeouTGGg3nCQDtp2YpX3r93U3H1lL9lxm9ou7GitKdh/njqJ/RKfLFT5p99IOlaNPjDjl9r1NgNCX8ajRtIgBftNaKqq0VWkgqQqgWuntOQU4iioS8VivpMmZ1h5evSI9aZ/IPfPRt7zF0R1QdtH/XVwUvae85EmWt3YOz19wiNTUqvumT/9xv1nbo5R3ZbymT61WqIGKTnReyRyCbpRvC8oqf2lQNSy2efl4ee2eT4vSDmiWrHYGKMmOzUyfb9WTJde6h2of316/cSzvHizasejTaIsAd/UMSAl2JkTDU4KpdtbgSCqM4eoTvGn79eDFu1xjSnz2+Wa/iCEpgeQKutQAanyj4oVVA9vRXg8kQI70EzG55hkv68EiNtn1yTwUz7TO6Y+/y/3njBNptFZsi5DWA58UxJXyz4alGaEqCV889ZXhRgJovpKkbp+EDwtoukAiCjptk/3SPS4P4RWTbQUoYSAEHXznRpUMLaoo4TJKZro9z1iwdLYSKMu4ikLUV+/iL/PxKY9C/pJeENLEG3v97NQ75WQ5Oia6fvP5z2yqQo0S1U3RDe+P4BZvk76Un3Caf42hl8MScnQVEb5+tjNpr19G7Ix82s/8zOkFAnVA0nKgqjjJkUdqcaP8P3Otw1MkzTh0w68dX8z7lieTlP6iVNQ6K1MaoFMw/UlnoplpwKl/6t8kgt4yHFXGEVpFd+MfcyrCR+Q/BRRBZqSAeqPw+bQUIOiWihmvS/b/g5cjTJc49b038TpE3KfF7T8vEb1qbfjF4CapsaFUr2kx40je/f0WGnKS1EanjROH/sPns4VUTclYrVk/jCrjSftdaKk+siBF+8+rcHH234jZvew3QPV62NQzrxNrhoo7hcpvE3PpP8jGnXYFqUHq+kniPqv0+xE3Yg4vPuszpSCsPyClo9CKcj6r5B9+IVH9WQZ1dcwVc5Pg96CBlGqDXmw00lVFC0GURt8whc/JVBZTdqm5HOcKHVq5bmre9o/6MsjamoU2/yyRH0x/vNf2zifD/DBLd3alFRi52RcgWzt89nkiRanLOnTP/H+9BsZomIvJpj998xPyk0+JIXrUMCTr0JCgSmpLAh4FbCF68/O93sl6lPkP16EAqzpFx+mBJUE7MjW+higvhE1NHP7Sd+DanDaFzrT81tQoofKCW5F0djMMlJ/Y/Qk+3vjsJ0IUbcrpwLYKgmzSPoBLOibO/qwixL06fHjQgdTmIZCmn1H6SfZP7kzPX/krdReoxpRynmpPe2PCFFf/FTzzUfjps6RRTSykOoV72cp2hNRqSKVfLd/hEij1AsDRgtR2f5p4Fa7skS1pSdybg/V0ErGBzhT3VWRm30Hc1O8sFfxN+vN+qo6bWGnRrzOz2b97iWdbtjRU+efReLH+0/8IsRkHyltbaA0pOZany8+1qa//JbaEHV5BnMVaoNLvhMlR6X1Zp/HYalLAWcazEn/5T9gXw7dd+S5EocteP25Rl9CanQGng7MZ3KUwyleo7pHhSmVfvttF8n1XilS7E+neH020gek/t7mZxWv+eEiQw8H9vstRB2RUfQeglBkUmOjglT2oRaqTKRmo5XiJeqOqNVtUn1Zr3/3uRavUb/l9HoUE/ejNZQi719vZL/0Uw2ifbnCVyH5qdSUmu9P4uROe+rPTAyltqCX8NRslHjjpZ2Knu1ZuINeivT8YVbm+loJLYh9ZL4LxSdIuB94jTqbiEoC1Vf8TaC1mRTuuTNlaQTRWd5+Iuq1ZuFXJqfqUC8nUsMfBlPmGckl0Gwpz1goTWAd/9SolGV/PuHPDGONfmrD05xZL2VpUo0SFV7YCSoY1Vu6X8LTUd7rsxida3mf9lLvRRRhwWeYQyOPs09bfRWy+3jqarX6rEStTVBf/7N7xc+Mz6N09q/6RU68c+pVnahkzxCVZX2ij8qgQN0YgBCjCtPGXmowLpbw1aigr+xWB1BAz0ckfQpQDQrgvwuZoFqIKuQn2j3iVJdfYjHCCoAg6gBaflakMhc/zk69k7+/HjCobBlKgKjF7APDqB4zUyyFFjWq6JxKkbqHa6YFa17dJ+h6Ory8hAE1cMf97Qu/AcGNTyoD0plKTGDa18yUyVT9jwQqEO0L0hSuPRtm5ieK0yjeiHgwNdBP2Bd1uHJ6yvuHuq6TlITPKEnr5tBTOh+cmjDV28+SgyqhSVjUNe0vK6iRDa8houJQRdISoZIuMdpiZw4RNdABakOIihL1It3NLC8+IIXu7vajUp7w8IykRh0A0b9G6UiN0fT8dCiI6vysT0AJdalu/Su1qQjS83NSQZgmqN1XzVNBUZr1RYlaQ1QQqa+eP8x6WA+czIMZqgZxytK7xfDPLXT/5cIx1EDUr8+eVMiyMjUSRN12o15l6d5KrZgK7Cd4M+X83bxTmiatkLK1UQJLJ9n9n3I2zcD9JMNRfgHTlDMD1ryXqJFiiXPeWO/HrVRAK3xIsw9aKNVIIZIKxORsclKgRL3w/RI8hmLjqJOrepIqpWgat/iMpQwYRCM10Lw/Lqcl7gxSRYm6IKoDQr4k9vQLvFaO6ulsP33U4uMFfdTds2I0lViloZqvUS2oN477R8A6hUrrxBBVLIyyoRPvkVonpmag8ou6TLpnXXw+j6JQyr+DaAHUKGtUGqas4zcR1ZUiNbErpUmUptRI4gBRoXvEdAZLaUHKRqapwpXuUUkQ9bF89yA/QspO8Vi9IqnfaHud4KdO9DOi82e+WwIR9fDxY6V+D4ykhKTPnSD7lTYqomF/3IrUuCLqiGvUgU6mWNN/5QL/rUjVDH8CN6H0gUdgHoWcTvujlHBSenwv+3vOme6QmjOpBV4lKi9Sm5upgNb0Di2h5RfA6DM26uTjRyKqR+Fp3ixxHy2d0FKURKZAVAqm47CJ+/YadbRU0wNhp16IOmjP3QolBTwkEt7Sn86nfL1Pqlp8CaRJ9Pk0XF/flhKVtVLAKE2A6rOVCmj61GQeAbf1pDGfDlZB/rdl/guKUrGxf87dVLVNkeb7iOKWgKrfOiaJqMNuM6mcp8RgamFS/QONTEnar0Yp4KFO1agy22PFPsj3pMenaX9H1PWTi1EdRjBkqSL5M5/oYOmhjmJVrep/B1FpoFq3yzReuq+0/VHl+g1QC7bGsonCjp4tnT/d6edhqmvU5z/4F6lNmvTQ+nzJ9IFZZFZrJikZ4Qk6fTo5zQ/a/78e/2jmd6xEhYjqyFQqCHVf22K+JZBCiPqVzH/xvH1yMFbdByEaed+kmicxTN3CllFTS726z6TWBZRBMP5XwU4t3dRd9f3lozIlTSz7n52SqoxPENVs9rMl5VNJf3tBMj/9XcIhKq9Tb7NSmB4tPeMyNWj29PNQ/akgauUmue8lVWmKlxRUlIgqXjDN1FAWUIjSbw3SkSEqG/a/IzWJnv/A50ScJ5cKlN79EoORUlv5nD9lSlMygEpZxuj7Nc/8znt6TNkQpi4m1LXVvNrFElGdqi2oryAqzfwXQe875Xriuv0iAYUPFaioRN07LNo/jVtLtW31jfK4FNpEWWQp/i31S0gvVblLjhD11D1dYGuS1BsoWGmIlkzPiP79xT8FqL6x67+F9hg1t6FUVM6WmUT746YCFUijjJb+E4qf46jGU4WvOz21xerA/VFGq0bViHqf9Nzp8MozlvKnE0GalFw/c+MoUadyAZ/M+hJMt55flqjeWSNUEq7O9fjuzdoTEqzozy3dfGOs/lxEjSoM+L2SpPRJT/RIXxSp0aCqaKTSpn8otJSk+0eW/AWirlUq3zGpEKbSxHwSt0umTkFUAgiaoVCqpHswi2JZX0Yp6PnLpoaV9be+apw7Duvo6zpQEP05eXrbvl4wojbu47tuPI3eizIUYWhkzKon3NS4l6ebHGVppcYqoq6/i+dfNpOuHyAq8jpTl0rPqE2Y9hlMTcE6qZrpI0KKlACbZjqaE1SPDqNu0bqhYG+Mkut6Ur43f4qlt/0zy/wXsA2FBPynWNP69FQRqOyT0J+OhVcddi5Vdf2aR31F6rViIlHapMlYe566vcwzPg+xZnxRk6ak5aUEShOpUiGaPh+3iFnUg2H/Aqgd18jludJT289NWCq1qBJRP8NPM3BVl39Yo75S/7CB6Ug7/hEXqCui8ihd49THR60yFUkf+Jn3W0Rru8jMpqaWLw9tn2pFKfvuvS0VAaCayX/D1VYf0wAW85BD9PydcH0H7I2TU68aFSr3z3ZOYqyPedPIo1jWp+9IHYhhX+FQ6U6/OtbLEXXntv3Lh6JuHaVbqdPKqCzvPtMLO/ZTzPNpkCYRpDJs58i0qFySYsaqW6anTTm/cmInAPu9b6Dp81teol5MoxPV+7umKOXJnWr3jhGV0lPrZhST9pXJVEn540GN+sbUZqezSR9/nHqLU3X6sSrhY2xp4lHKOalkpH5nlai+GqbrCkqjlemM90q+hKBrmN52MNUl6qWyDOXOZnsPtXsqqM28v4xQKYiWEnVTpGADClajrgnu3U6Zl3QBLXWiLhWgKeRRBxo+FoWkzwdpHoTqP1GhenOC2g6owGvPOldWORNxEku3935UoLovDPKjHJZGBakIUY3MvwTquNJR450rp+5YOSVn/Uvq90s7Za6XTF9K+ZSUyuL4c6rw+my7RLZOqRKg22PkJWpB1Iphitt3+up2UdXDeszO/Jug+kr7kpwiqd+6Tn5CE80UJoBJFUNTWAUMdwmpKz817mfPwY2pq9FP/dp3Svli/tSd9LNc18uSOM310VPKYvX5/7xd23bkuA1seySRouWMxEPv/39q3K0LcSlQ1KWne092xg9JJlspoAoFUKalip//CZwqG9Wf6VCZSTrpg6Z9dVLvDJ2+cPrxeCAxZeGzPaWlgrKfmPrfx+kvo77uoQyL3Oe7UgNJ9g+YUdt1MvUCavgqnDX9ls89nxlEJXViP4qkqW5K2X4emo3GXZim1I+q9NNAqj/VoRaegbQXTC+A1G396Uqn0pxaelSIyvaIdRrkMF8F+ChWtXhS33xnaiDUupX+Rot+kJ7qFpfmmUrl6VKQ0/+OJ8zSxGQ9OrFvpE9Eci/KtdJUx6nP873CRCWPoRYlPz5vIu6UCpfq2CLJCUp1M1J/v6JFfVwypArZfT0/LaAS/LjJaZQlkLKW/gWmsEcFw/6FUtmgn6ekdPzkzJN6Sd6PLGdOIjVJ5a+STEsXCdUXGLWKUPNyqZra0y4AQXc6DU/Hx1DbT+ev1PycUY+e+6HoMAAAIABJREFU3g/i7ElROem1KKX0ZelfclKcUedz6A1+B1V2qFn4/3yzIZR5h+/giRN9kCeJ+AmwosjUScxMK+u9TajsSloBrQ5v59Fr+5N2SO9iUVNJ5S8A6g2cGnCuj6NZcmqxUw0ZnAPpTxtS93mLujKqTE4vtf/VpUZk9H8fT53wAakQT+QdXbSmJw5IUS8KZqJrOlTAqG1rz1B/P02Pz/KgU2eMUQu9wJWi/6z4ueqr5BRg1JOGFBzbix0Tnjctlf1X6efO6Vr1SWf6peVU1/GbPrn2L5SKdp9OHYgWB3liNNeeMUC51I8VfikmVFX5W/XIJBr3O52EmnqxkQcc/emWFtXJWSlvTjGhPu7j04DbVKiZymX/+aNuDkkNvOgPdHiqIiks5re9orQM/L+U1D8s75PqTuHzZKUstDoYGXlfmo4U/plQA7Jq2pLqfwX74Ut7YBDV45vnV2FKNZRzEqcAqLfc5FHrejiEsqOfNpA+/+q+WO1vrAG/0aMS1U8oVe3nn39MN/FEnx7nG4t6SbKpCu7Xf35mmALV35abVCGa1HET8DjJPT0q0lAOfT8vAzXgFpQzamCOFYZnSVC9TqMTLh3yIXRxFF30qF0jb1B0y9A7d6mRZ/uOaqfE49DojIS2oczaLzf0D31wh+r5myh+x+vv9Su6wPCf7tgvsdx98H1ooLZXKDWwSs9Uv9GT7uX7XiQR5oj/sC3zVfDpnJ4S4SnapIa/3yK+f+VQdFJPkps2FJqHakZNhwv/cyiFNH9bvpUyW1NKHPGrUXg571pj6lA+Gn8/HhcZVSf46GEztakH8/s2YNkvMqMODSVU1qYOMuTH6z/5p/P7H9idhKfYHOGZKHHUFAxO+TUecdY0QbTWfYZRV/4NrgVGdVNvaCmxAWWYVCep1EnIOhupnztAPZbkkwk+dEzCVFASo5lQlzY1L0jRd6XI52uHUWmX+vqThen7XNkH28+JJ/iieYAniuaUb5XGMxJq20AZ0Zy/9fQhWzSTEvv4Mv8kk1O3WaQVFd8m1MepJL+Z4Auo1BfkPdRRK6MOvB/lZPolbFSp+tloahH+7c+JxEmSyShwKTqhQ9E6bAoORV/4tBCnG6OamZRevFDGhRR4Bmq6NIHShlQZpDtAPTLQD6VMNLRKq9rTDOXX78RmtE72fe2o/o72qDNS+xPP6eE5qZmIimD7SQ6f9PwpnlRSuvKTt5gMQp3UM86AUSe9TTqdpFJR7IFpKr7A7a8DasCDe8Go23pU8LApLWKUV/7XJ9/s2yQ+51axhpp71IYVf1r7w99j5mmS75RJRtW9KaZQukgSz0knZU2NGKfz31aYel34rdMmwt+frgkop7efWb9qwxQT6uOIilJRqMCAW5c2QUzqadlf/raN862jvQM0UhuwjJIHqd3p4EkqM2pMaAWKvQwhGDReA2s3BuBNtewABWJUhxOmbFw63WSbumOt6YxSp6OodUAN8l1dkOjzWNbX8amnEmpDa+iozB9Yts+M+HfinJ+k1N/if2wCxV8mF+v6hbvQaq00qQb12mdRUpBR2ehUKCpnnNlnrtQtcWhHVZRbJ1AlpK6MijR/GajgyBmXTOwO70FsEoQyE3VtBFp1umcocSrNTTeUUbv1H9r83/znu3LuxOApDppGHNoThyJh2OQOGbUWfmz2Z6xq2T+IHlRvlVxEqVONKB+TunLVd5aUOiSmgnEx0lurpDUyn3AoEVS/n1Ze7N3OopG3egf5tnTXoOx0llMvM/WQghKvQBW3S+RyCff0IwignETsEFYlhVQ/K/yIUPFF01s2oFzO6DtlpO6D9Pn9UwvUIE+eBFjm9yFYKfMzOqmY8qTGb3mpoSl+QCKVzPtfrv+u8kf3oYS3X1h9BulSa0p6gVWncbWmgvemj6pHUwN/53GyZdN0yYtiI/0dGl1QmsGKK//jgHOKFL9x3bSKR70g0Q2m80+a/IokWeUjNCtVf4eMVMKoM6XOyn/nuFmCL+wl/HpuBNdMxVrUTRV/m52OAXlT5LQ9/3hR+HtGqzc2p7kjzYkT5kUZIiozqsNS6vEIFZQatBUV6DN7xb1niFKtnSCjNmKV76upYdSGO/6y+LewTU3GkbOkXf3dCF+U89F4L1TbERd+9sDk6vp7MTs1CfXiJMqJ+xErSCv8fcKoZuV/fOy7pnrJxKMr/PUNARpEbSpqM1U7VumHdQmFzvmHEqO22vOfkdrsXjBPUS9AlftT+VKZ2NhLFzJSwOq3CbXNQT/kTPXyasRde/kOhaMyX+53pxmrjwpGDUrtBzkiPQVQ5ERxmR+48//yp5gdZVin4M1e5vh3vADOxX/aeQwicvdp7yq0NPfVZbMIjkZecKYwTOWdFMWnAzhYPvXyEZOTA6gsofpKFl180xWf868tE5UxapA2VLAC0deQyjtUNp7aoOsX2U8HpgNzUiVo55lUwxi1Q4y6Daiwzmf3eJQFVRybppTQseh4X3O6NKhjHjdbET/QojL2vCdfysq+k7K/gkspoy4/+7SAGnaO8qEBKjjIUzEmZb2o5yU/sGlq2NTUF7+I8nWsRWW1f33u5flv/oN1voJq8dyJeggiikORN8JTNqjBG4y6GFT6tQnX69Mm0x0TKKewWRBOtN4jRjUJ9fHH2NULqNKrMHS1gNIZKUqfilFnNTUQPv3iPSoeoLKH0AWjLpXfZzc1UaGfwKEo+Sy5uf3EaPN2DhUh1HH738z7XUb1wuoXaamLDr8jDin93U7Btxi1IKUyULURFXxAjBoOVn86dmIdquhTxWTqCdTs768d6ldxMiVm/UhMLZQanH0xEuv7HUYFiuktcKVCyupRWxFH9WuDirTTqfrvdCI6u/xVFV8x6vLpHyWg6oPmKmRqHTY9MnuScp+tngSN1450osva6Vz9B3gmpWvW2RSbocpU6oLUXm/oJX40KpmZfe6ZRnB6N97tSGUhNYZCrp+9iEItf4HKy6dNnar5NQWfuKacUTcIfzxqGTXAwKkHCyW1koljlDerIaCiv/yuYyqKcegAxNTSoxYodWvhAvX9EwYsm+GLd0piQnci7zWhjCjKmPWnecte76C6e17SkyjdXCmXeXXfMCVc6taSv34+TaB+epEogYFTsHGyj1i2YUL3T2Thp8N+iuScSPnaMak6YqR24koqHaOuIaoZqXinFIxIbXdfpqPfitb/eeqghkpC9Uu2r7/peR3u65PBvqtQUD3V+Lzslwn18RmsvWcxfrILfh2jBpmQQhBlPatv9Ot8Q/7XATOqeYGKrduE3xL6FzxdhtCJHiyJ+MnHeHpTr+4uyhj2CVXz6XDJJ9XRKApT0ZzuT5+yg5o71e1Xf2ygPgIj0KBc/gCf2KkJ7UNGDUGNozh2yYe8eEaU/tBAmHasS4V7Uy2xUn+R6n/gID/JHjWBRyFSksnT3ddLbjCmxrBHqFTyr5BthC01XQEpy0Yx5Fa0p0Q05SbB1UgpMpoisVIl/w9F9jGj4vLugxqekh/qyNRgbvTn1T7WqJKDvvyN7CdS2x+RLkWrzhGtPkW96vzW5vTJp93KpzA2RTelOZ82FJ7TNUPfcQ9KXeIpVnxso9Jflwj1OZoKbDk/8N+DlOkOYhlrApiKCQBFLf90zdaiDqWyvzaojZhNsZ1pz5rUjFSIUHOkz+f5+Dmo90D2l0/HrSmyTFTapa7s6m57+Ek0pa5+CiVNKArg7ef98FkC6hjw/V37aZ1Qk0OV4aiwx6hC8m8BKn0bZSgxqhT+fDLlmfDfkKpPRcEIn8QrfGjnTZ9u1VHYmyLP0yPBf0lCCSwyjd9XNaeCUTmN5s9HCadPfwrtPQeZ9KtqTvWA1Ac5RRUNK9JWG1BV2R+asuRfH/BrcuHPYoorqqVPTbryG09CCOUU/wE8ad3fGlRvraDQFnXtAYp8OlVA1IHbJtI7reBSAtDeyd5015tiw/5gvVF6eA4lItBMNFUhNKupRsuo4u0pcSJVDlH5n27hVGOgD6RSBGlohNL4rrrvzcKvNlGo4L9S7+UU/0DZ144pBmgVodqMelToMwtK7EN53Yb6Mka32dSOjpLRKXkvhRxJXTIaBKtPpIafaE1MrfUncND8X/GpNTsVc/61AbgDp3zHREioIp0ajGp9/uwAVTNq1UUzj69HIQ3FGdWDbtRArN+PoFqM2sDd/kw+G6W+/FRrqM8XocR0VB2JfpfP3279qffBtFDzW2je4tPpBEx5HOqIfoKMeppQ59FUMN4qq+ZSr2lUrEFhKVX++N3+VASntiupuvavXMNc/5lT/xoJFMOK0m7UW3n1OY8aSc7MTKLQNyZmA9VdS+6J958oYit7057Z/JcIlY6mQDS68vkyVfO9gqql832p+md4DkUmxUf8FaVuC3CMUsfxr7lPqkdR8c02FJrvZ8FfalFb4aI2F9dKuGjKd0/2GZUo+l18Vpn9i+Mvzu+iprTG2AdZUy8WTfZllXJSa1ZQVjIlN1IbjVQv56hrGzKOfQJHI6O4sG8A8714nUaio8zhaUsfQlv+rN0VmY9FU9UOlIiditTJ6cpPR1Mnl0rYuVM9LvUVNd6u/UNTA1KRnLYZdU1QBdaljv91GpwsEmWcPHk7qbosowI4mcxN1JY6VJ1xibxe6zuYgz4wJ3V1Iur1GXZx+vjQ53ePnI8SyOQiiq+gwJi0321ShyohlXdQG6j6vTJS1wHVq/q/Bv9y1QnFTOJ7lZMemxIhBRm1RYN+P7gLnamOnPTu7Lfy81EBVBw7qTP4C6NSrzdMQyHUb9X+oa7qk8OTQvZj1c93tpZGNYE51MUHIS61p34k/anVoBJGzYdSDuooJ9fyHd8sOXLrRDJqHaF+7gP1Tyj7p9V3T8DYyVvB6NpPV21NddYdf7NHpf//eSKiVzEpueQc/6GI+m1PA4Opt4f8hE/nvw7jtAdOaT6wd2Cn9H2Eujr+GpV7Y305gBKLpN4wSw/B1jfNAUbNKG1wjyojVNn2/8XEf+2POGIajfOm/8TlH0bSn/piaKol+/yWjvo/cVeiFbeuBLlgWYt1gpJz4P8/9dpae5Ns2RMyMyFckvN4gaK6q3o723CiRZhekfiWNJfMPvw1Qn17l0afbxRNcdpp5C4UeVBq8Dg3+UmOKq5LEfr8DPHFQgz/bPC5A9A/P+JKQfuUtWF27vWYyzpK45X6Hajq6zDtzPC9iFCj7J9fFU0Wmxq2nEdgzunoH85i/8py1OpNLVLkB7HfNTFVOPV7V/9f3Nb/85MABWo/4IKeMd1h/nolNP4r/eD6WHcPj1yAuopTCZYX1f5BqPr9IlDn9kbijijjOu2lveg/a1BdcPpJcWqVGVVV9pEYNTLY90Gqf4Zt+z+iomITSnDuRPDDHtRKqr7uz9XXN5kK/frjcWfKmURwXQ35M4R6yH6+V+LCgT1agKLreYQuUzMP2xP1tOKOlFJE7Uz2S4Z/raRGUv0O6xevlP75Sch+2YD51Ax7+g2CqdL6Ip+Km3cvdEW1HeZW61uBnqH1/SpQJyQUvrPj6EaJrgc1Ta7BJUpZR7Mngo+Kh6YYo5JWPyj8U5q6Q9X+O0eqmlIIp4N5PpKjZpySLaXytLOmQ/nXYIpCO/qvGZ3v83OCUJE/NVWOMrQDut8a5V4d+zGjYiEFu/yxloKCqtxicRipe6L6rX79A/mUW1C8CFMxP1XgXE86Kb1ougJSj2byaav++T4eMkhiNa/uX81L5yR/BurFFn7nHGs1ZfujJGKdKqMG/K6soDCjkjRg7TIq6kc1JFGpnLqT6tefv7mZpy+iXAi4auqMGTr9qi6aNmrBqx/BqQdLPzjbBC3t279RKdUlL/V6mlCP/ikwDeWuJajMOhWWnzwg1jD0/FeZUYHulxv8lTI89juYo7qDUXeouvXzHwip3zjqZ5//zEGto/weHnbSXYkvFaEuVEk5KDsNUxehWsn1KqF2ZH+/WmpYzOedJ8/CfoBpqhIQKjDqSPY3KUVr/Uj2F0rdoXp0dXz+C60f4M+oQ0tAes19Baxa3LGHC6RspRkO/zNb+Owt6ZRpFKSolwmVqqnTRqleFd9d7zO9Gvfjq+/wI0aFbSlgvI/snVS4xx/kqaFlqSF1CCyfP9l3uqYfEm7y9xW/aiv71VLwI4yPsA27pP1kenuEyKiXiRQz6vsMUCemn+H+E9NpOXkuoyCxrDg3XWFjH8tRT2O/Emv96dNFQjve+DX1svwYq2aYukC2cZiTjb3VSfWa+aK0rVQcMbkyAMVBeYNRfYdRP67jdFdTVzX+sPL0CngiUg0Jr4bLKKLy+6pfYFTF9r1Wwz8XUoNf/Fqh+vUDuakKWEOhL3h/J4op/WCKTIwIm0xZOb/0RV1aZ9ph1Cn3VGLUKUJ9+xgUpaRhUkMZlTv508yabdOQ3yJKlTHKTFSUpLLTfTxFpf5UElP7Q/kdqQ2q9i9D1aqAk1ODbX532tq3tFEmWL3X+OqD2G1ybesuruTfIFSPGdXX5wyhJtnPUcp7ToU5UfqRFwT+UCNxfq68ro/dKPwfJEPFagqpfgTVqqWc91uBap7m/PX3fFMdmwwQTMcDUtzq97pCFB8gpYQ6DPyji88PeqMag3qSBRy/lrephxNSUjQEjSejDCuWmgehPwjlKPxxsw4ZFcCVGqnsEjqHapmbaoy6+k1HqK4Vqk79/hu0+rXH/G/KpuRL3K+a5t89GRSBbXsoA7VTlVK0G8rOSyeenOIcNb33MQfU/9xgDkpsN+lL/QckCqJ+QO9IECUkipiVMCronsI2qiEl1DSUsn8FN73oxYNUVTnnXy2sPr37prkpXn88vPqZa6Ze01MkdEGkUNC/5JqihdCvZVSfO1L+e5sFKu3VZ2V9ovINqeXfauUPjEiDTLUKs+gqDPShRGAdMCpelWJw5D+ei972L6JfYvgHuer+Z/p1WP3MNShknBrs9A8Ef9FRi2Y5qMbxX7NZqKujpJoG/zveqYeM2hCa33mfBKog+/mVHSknNS/h1ADkU2g8CiiVsKiAUWkzuqJt03hqqrb6IR9VxdRJ5+h/7L1aG1T3/PUFLsCvnUuDDFOYeZ08juTU46CMhD9B7+WIbyVxfxOinjOqB1JqllCjmnJO3iFFb0B3EHwTpYHlqNhJzQBeSWKKG/pR7O/yqSLulCtqqv4fiUnq8eXcIlb9tkO1serxPxWXlij7RFt9WuXCN0Mp3tRhBvd52r1Tj7qX0Q4TNkV6Y5pUk+vPt4pRiFELmZbXLKEKRVQhnJseNm+Y/LT+FCpiAZ+2jwYjUCq1pBpM8fUeuCMNSymUouYcdc043bPUA6HHLsEjVUW0uiNstb/mmfXr05byUw+m+FjSYD7qgGmJyV0xP7s94tYA6blx6klnXwn904QKa1Nk7tnRof1BP5SZwWig9SfsnQJBlVqoiNRf+88Bo2IxBbdQ1J+W+CXdti2HqJ1XE6kSWk12q76cB/z61F6FDkqJcXIW9+M/YgEwhfFfeNkb/VH2To2UM6knjOrBc9aaSkANRujfY+dJ+xMm5kEdKnCEYvm/P1UfnzT8o4YUBc9MgU0paAYVfOb6w7/tXLrtz+X4bcnPCtWWYjrl7eeAXb8iREsPgQRSlG6ZkYiqCfaRnFYy1djM15JjenEFjz7dtTvVbupJY5/HSP24AdQPfAKKdOwbhlXz2N9njArxWs2pilRDdT+Gpyj5hR6/fuRPn8tEPt1ftjDCLqt8fEBaXQ+sOsCP33vmqtZjO4n+fTwOZPhVqdQ12CAagmMw5TXTs7i/4LhsG2b5hR0c8kclUivopltUynJTLz5vBP5DTTlpbYS0+uTJwF4gTCpQKtP+Ga3qNOSzDf4k8hsy1++glsqfs1p92/H0Ogr/xqgRqgWrBvQFFr78TiMCeVIAAnQU7ok3ePLwHo/TgUNkcnoKADqgUjJlYu+D1OOklEM1vXm/A9Q34RDkGJJP+veAWkJJKhFR6DcDL58AHqXkunaOoBu+fgI3UB04UqT/You66khUl0qqAKyRVjNYXRg9HAOpEajhdIiv5KaaTtf1dkZYYQf0sF+fDEbZWZj6puu97nHpPWuq1qbQBgnDB/Ze0iAVZPsJMyrm0vyHa6cexcxUxKekJQVnqNDtj58FfNU3uwf9yKnbIf2T/C+0uh45gC9YLTCvQwINm8R9Y7kUEq/j5LQYp1qcUKYro7TtVJ/YlF6HOu0dMvW0lN/H6fJ2G6jSNCk3oMy9ziiclwa5EBXEAmqRU+uyXon88rRUXcPcXT61v3z6lm2b3Q4uzUZV/MJW9c/TAGWkUjDnUCddfkMrO09hSqSOhU7n5VPP3anRmfXQl2DaecbX+02gfqCreWLr6YsfNBlFFEpRmgv+QqxnoqqzvZ95qI65qIaqhy0G/yj+0xsM07Uyq7q8SosYfuhwV1umLOF0kTgPXnWQLuqd7NeFhSd7vwZF+qI9bObDierTwF9qUy9JRvtkSiiT/qnAqfBDivf0deakpH4UI52ZxBXUKNoBTCNO46/D/09YJaSaU9b9pYw5hSgMWMYRi38U+NXiKUZ5hyjvjIaMWndHgPMPVjjzeLtUisx83WHSIy7Ft3cJ9VBTuNbM95mZW4tOWLE00DAZnKMMKhBqo9ReyF+kw9L0Xm9nBPX4jEryaKKc2lqm6j0xAXLdKqYBBKyosZQZJ604fZKb7ij1ApuS4H+m8GF/SWcdj75XIhU0v/wsUL1pobYu/0sQnE9NSYYK4BnEMlQXq2rtx/6MUWRNEZiyhT4kR21W5GZb7M8JwNH6F92q1FIN439i1WX1Baysl5f7ewYG/GF3NEepZY0oOSvV7HiZNOqML+rwGzt6XuhjUu3nppVV/3t7ANRwunnX3DSjsIEaIICBMg49VgU9VDKnNpAuvfPnpp1EUUKZP44Q2uZKogTAp9p/gekWHQDGqsm6SljNzGok+cRnfvoBv4l8L0lyFNP1YMAEzY9YNvRknxT2vWY9UUPMPlJS2fLnDurTjhPaDIVLT6RUKtAqIVa19E1+kqOq2vGMm1GNvHkqOFOK4lTzbs1QTYDN8d97z/Ba6HVPBmLtivh8tN8XBH22radQqdfi+QbLYKp7zabs1qNlJtSNsA93R3kRnxicBaP+iZIqtanuspOn6j5Ivn5wjDVPElUjO/zL+LgU6EVlm3zbw6MYusUMANj+iVMXGP87tLoCpRW5FeGycunAkFIHMVdVQrBqCVoRoQ7Wl1rMnfZVLVJAQ42YFGL2EU6LkyoXoe9gNzhp9jnQCb4OLCU5VbNUqWoqXUOTGqcUmkBt/8jWDw/Sug3yqi94rW5VslI7aUD503VJhQa8Rqqzj1/tqe5BP15gUqb5W++U1SxDFWx9zQr5N9NShEBiSnUyVg849f0ZUD+C0GYyDdLAe06C1HtSE9Mrej/Xe+LSlJXfk2KsqniVn9dPce8U3nZDv4HFpUr1f50Cf37TegHErLVg+XiQC5fAyj8AmvFZMboVISfEfc3O4VrNpT7GKNrHRzX/E0I9yUs9zk+fEmq1/B9slgiuO/gUaEUKS6kxSgtOQxue4qN8yzj2M3sKiSllpZKj5nDNOI2FAL8VYsX5KkPtkv9OeSzl75NH/eZuBJ6iisLd/Vzra/o3nlZJWQf0STW/sSzk06c4jU5qF6pPnNPAK6Wixu+gFb3MKpzoITBV1Joy7cSUGhEq2tEkFamKqxrjf3rTbICtorS9l8M/LBD08VkE24Z1nBT2O73NYi1/bEXNLjHHq017zn76pUsWA2Drnwb+dMHv/lbTcOKespk9UUWN6fR4rXjkZBHZlGWnXPRjC9UL5xU18FMLbrxu6r/VVpsNkGZXPei1guBMKE4JQ8t04zOydPJqh4dtQaTurDoh43nP9pZ3G6JPn76itNHqiwgVOKlPO6NwbhpkF+BCwCd0Gj9EL0kJUFVCVcpISWq1OISd9lUjb0K2uuVuag0A1xKBRLFboc6lQTT2C241xd08+Camn4NM3V6gU8uKp+LVHEu69SwZ0IdJ62QSiob0hgiFIEXm1AtwCpPUqVJpEKdKAyuUhjmMOg7SkGZS1qbzlxUXpAqhrkrMUGVGrYRKTy8x+792VPmaBeSXF14HVksSW+VXSti25HPpyKaJUXXF6pneJ3BkG6Gs7Jk+Gc8T3P0xj8JSFHRT318A1LfX9Jn2GbWr7DsoRUjNzcnOrStJUKngT12oK0tRuxsnVe9SiPSNroDy2QEAjAowWnOBzLCAddPsgM/Bvn0fN5AAbh3pg0aj+c0cqzFrWobXGf/Uk9FR3xnSoxVS7YVXQvDHK3Aam6fnzur9z92VbbeR7DA7lsyu5aH00v//qWOpNy5gLS15uVeZYzvJ2wQHRZAgqJ71Is37kFEHpD5k1C9KZQi9KLBe0QIKrlEPqJJzw/YYoCOo3v//L0z4gN2jC0Dru544emmrYUngeKtzF7wnhs7kVqdBb4zIAzoqJVKNRs/lmfrQhT0oiVM9lHp/CU4fb/8Ttii9DsUZtbjOUweeBZSnC8vGTz3e13ZpraVUcr+82Bfjxb8GTlb+7y6VtH7P6xrAooUycfsqbSsClPKK5g2XrEKlg0tT4+UPYv1EHX0CWVEBs3LvrjOBbafak88efqP485MzfjNFfVJMYUZFG9BjBepaCzxaVMKCourTq1+hYm//VLnEhNqpB/ftCmjRQiuhrlXBgdi86660eVt2gKa8o3TrS6WW5jeqSisthM9whkzVfOzA6TijPn7zmof/8KR2gbXgdx8zas/sqSL2tz9bt+j03PTC69NPd8h/xQm+dyV1Q/dD3KV31lTdhlUPRs0rqyZGsiv1poVs894xzauBIEOBX2dTU48GDNXgjwy6Rvcm3sSBqZFMWuyvWH1/FU7XIvVkR4qXnU6NChv8DRElBNXy15Mg0oue75uH3y6fsrd/8s/Xr4yaLCElOhqqea9adzzu1JKYxhCQ3fVTWgksNXGqXvTowI5hAAAdNUlEQVRgp6hgnE9u37/nro5h1OoACvak9j96JU5PFqkl6napZtSqd8+Sqcuo23bnVVr7RNTUp1k9vfKcRjY7nRwlpTv/eAyZxCAg7c/fIZDybmNdFdbyb0i0PPh7/cBQkupIlaN99NV7/IcuP8qM/aodKttyVDz8B6W+qDMlrX59tWiEbKoY1R+Vdr75B5mWY4eeEelF90+bbpTVtLS1pm765YcXQ/G/9Gr+34YAWwPgQaYbo66LrI8yIaejql2LAOs7Id+BKh92BdMAatH+zn4G49Fc24DiFSkqTLOEKX28vfDzXs6FRJb6gmlXdVoqTBpFlsOdUj8/zX40MEsfz74k1KMGr1yyJ7t/5Pyjpz2wat2v2qrXFYpLv5UhIDUa6/UCwHZLA51T9zYhSkuomtSvPfjs5X/5wz/y9hcQwgsYtbZU2senuj+1dq6AW/pqCfVIQ/fWpC9fbPrg01tosmpt332F5L5GtIydjinWYbpaB6QrATdxGVTCTiDk2a/hsn9QasLLc9sbBV78LKX+8nktTitvv5u2i6JAitfmf6Y2ZYy66Cntlr4qs/QxkbJL0ttcI7ggtYE47ViG3fm0NppEk/Rw6ydEx20qFX0mMXnSmfvdCr9ysYwci77kUu3lOxhU/I5eWaD6U9TiPfzFmeXHeKIZhR//Q+0zRl3nU6bRb159cwVFzaTyRqheASApFTnoDOJWJZ9YO4D23JUDxL3YJGt31r1TX3iNbj9ltKrvTKJkH8pQqkTrx4tx2ixS3ZNQcJRaWdrTdFtvoBpGfeipur2P50yaCnViQ/4FqzfcpEIRIx2f5PFlUiI/dbz8ougIhFf1wvAoH67lV6x83AMN335FqHR8ezlOO99+rvx7Np37pL51oUg7imDUMl2ajAruSskKleqEGrDtH3FqoirHkt3Aast8sgskAW2gPLfrnAGj5tZWibWc6J6UwOr72+s/7RU9fRXKMmp1kO/XpRGN9nl7ijPqqvx9vT/Z/qleQPlccFp9+3WlSjZM1BmwelTaKfBl59bcKvHlVOhi0eybpWqtKDCDan8u34BTNJwq7u3n4vpN+1pSPk4Ln0QVEeW4A/bzUt+RYi3Uq9rlN0rqVmtTea7PxtNvi9Es2DV18KldzgseTE8p/Qz2nyqzJ286qgQVCUmV/n0HUD9KFZ8ooafIv+nGapF9Ut3eP97/qDG6/PnUaKBu+PQ2ULJbnQbPoMpT8oZK1WGZ7wXtyvQ9U5P20amdjqIQ86MsJdMsFW6pnD3F/+qJlPv2F7dzWvTjP1SSHnxqOvvqideMyv+Wd1DR0inIQ2WpE1PYYXqrkWo912EErqkXoN64vjp1CD0MSrBbqr4APs2gfcqwqrtT/Hfv34PTh+4v6Poj3IISN8vRsLRamuqyVLSiivjK+XS/zeiv8+1pE7ZA3TR/FvXprZNTFVhCv6BJXWWp2uFTi8+4+RS6504qXB9UAa4vSr3zGqoOm36PkFLDqdI4sFuU17S3IaVG92YIVWFU9ZkOQoVr/NfKw38NDSFVm6geJ/IAxM5+/HujuqUaBjeislBRWbVLIZMq+eRLqCpKvxGnuOevLCc8QHIoSWLZetqvORbdMS1FgRkVp4xaN6M07KBeHVv/7praX/xblVWJbf2p+f+L9pA17nT0qZfJ05T6WYaWmo6+g1Zk4JMSinKf6L/8+z6gdgxIvae+08SnGdWAtSjV30Qq8KBeJ3n9bM162ij1ogrTW4tQ4ZhqA0ugJ8+FByD5g4bwyeydLK/mYkp16lLdMxWMShnMpn5ESO26v+AjJvpmKcqXqHijohk3RfHkx1JMX1+hlDWu1sffuPqn6+GXuoIC9bBL37qKUwlTneAM4BlG+0QB9U2psvfcGXaSFaW2MyTAer6RUBmNSJ3Pxzfi9BhOFbNZGtWTX4a2oKDCF39pJVMsVkOJz9UelWBgNYunbJOfkemtr07d7jnoGFVDfUPc5+Q/B7v3jF0qjfW8TODCsx8iATef3eWSWnX63Tj15v0FOPY7FD7jU7VRwgoATbJ6GFX7WCk17TlTYD964vsnHKDNEZVWVfsagClYQz+bBonMQDYR+sSanrg4DkHaCuORKl++9tnI/fzjQkq9/UUHRZv56AifWp9UNM975PVpF1QjGkmZHSlll6bmSMruT/FTeNL+Fxy7SCesQoNRz/hMpEHfvvs9fGrefDJtUvpNnApjCqpDlWzqrE9liWoZVQmnWLnWWMT90QlYUUzSlFT8V0mivWA9fjQd1RB8DV57tk2gCeTkUOkQIN2UpRnK95to+77ymhourQCTfhyn93l/sTA9/nMPmTX51FmB0vhEDSkE3PUkrhZS6ti50Pz7/okE562bYPXiHzc3BbvUFLw9UuRxDqZX6oIcThMyaYDmmoXPMqmJjLKE2mtEye//vh+oH0U2p7zs8gEFFWtLpboD0MOlG1RniVS+xK+SpiYnGmWcT/X1ZsGpSE8F3CY1SyZw+BQa6SeSURMRfOB1F7++WoIW9bLcf27A9fMHcLr0/EsEB8zsvmkjJjoiy0mDUSNcPqmWqcrbByJ8eNx76CZPd/LPyJSDNhxJO8ZrbavWADoGYUSKWb6Ud5/U6nOunYNwos2Mdz932FB+hk933V9idM9A9EVGyh4Ubuxrl3SX1N/IdF6+T6BClYw6sXNvmSupWz+z2rG/NasqAg3Gp2fTTe0JndDfOUhiczRJbB4Pfc/BMgxTi8+ul/9ncPolp4pM6InV5Ki6dx+sk4pGVAG+U6eT6veoFKEaV3+sRqPceuf9vDkFNv8DdwGoA7nAHhiUxPdkfqjrpyT90HKgn3NH1hny7FPWw1LSKHUhmz7efuhjL+v1r5Y4a/pob8/HaA+jbnx6/wVP9ODwPgqnP4ScVCCgNKgQMxO/E8A1Z6d/GtpmrCySIpiCOpS7t07qUmoeeul/h0+Xt58bTofyd6M18FmoYkaNIzCVP+8HpO3eabT3T27DRSppi4o8RMrIVFy918hsMupIaZqUuUQSas4Cw86dHWDgc+b53Z/Lj/GpGKPC0+TSAQ02n+Husw478xk19tWo81apzqugQltSS4E6RbbQd5pKg1BO+kguStOVKasqdxdHm4UawWouVd0mUbLm5lVSwarOPH8Eoz8xOAWUai7qds2gXEa1HtNotk07wTrbCmDiPVR/JnUJ4fmn31xw5isqMAUAMKqN5ukP4Et8nN8aN1WukutoE1Ie/WGQ/jRO761Uc1qnM0HKuE7qjKof/dj/9s+iUN3f/Cuyooj7J7enQOo//yKhPCirPoGeVUDrUF1LAlmMn5LIYsmti6RgBGUwqktS+pM4vcspYzvpugGpnHugeVrEox/HddS8MuqsJBW40GOa/Tk8/fLLESrv/u8GK7Wcp9tV1Ulo66BJEo2nNRuQ9h8AMCu5u5mPTUHn9K/z6ePtH7y0ExF32s1SubN/Ru4bRl1/fSHVxPdIvY9Tewd2UXiRiqhUH3ZUZn0iCq60CgOLJVkkQ6u4fQer5ISbqaATaISmv6ijNjlVjOm0qfObUC2WUcdhOjOUHj9+4XSOeChVvX/SN9iHoyl9OY9LfWNacQgVrbOE6rufyYz1yYenEUzelJTOk+hv8uljI2XgJoSfx6faUZpRozWkdLWlZqH7F5zOD6RWOlOsNXVeS4G1lKCzfgKZLr89EFUNMwvVfP0spVR1NIqKUeQ2efLJ/yU+XbZRO3x8ziJphOdMIKOW04wq0fr4Eu2In7emzhanBAZTVUbVZ/QAofan7ybQksr7vLRdmuKMKD+JL58U/OlXcHp/+0e8JyYfWoWdqciTONKMqralHiBdCPXra5y8oKnR1hQ1YijteMqwJ4w0D9TMBAye8yTJqjP396S8h/41L/63L5z2JVF0BO5Xa1O8oB/LE4Q6FzFA3Rn1/vobRp2eUFKkRvrm1dfrKACnXua+G3pmK1Ox65x4kJW7lK8XStBI3883OfH5LZx+UWpX3zSivJM4zKgDbSmO1xWkG6M+Gv8osffeBc6DbEpGUZF66fl9P4RUsjaUMLwAJatRORd146K2GSo/RA51lB1HncPr56/hdGml9uHUPPoGpmetJ74ZRWqpRU090OqES4PTvAOyn2dP6A6Vzk2VHSkQARzai6g7dWYj87NeNcletxStk9gM05d83n8Rp8t0qnO1JKJICd2C0utRA+XpLBj1/hPH6PEpR52qFH9Xa4pAy1RVpIZLTU8/2GOQo5Fm3LknKlNtO6kI/axcJXpi2sqO+J/B6UapLU+0KVajN9p/hkU5RmWBOvNvM+NUrvjLiSE/2RUpyaL8VpqlVaSbxkOAsqhMc613qvL1dZKEPk36/8KnYjrlQNVN3McRp3ok1QLvbHunRkOVWVBq2bW/qlBbhEoyY4qN8002qjnoo0akgZBDOtSoNVg6TSonQtSgVN990uk7hP3Pr9L772+//PkXnQlU8a/siYdd+k/OCaiZfd/lPsPqA5usRGVI5deH85nqlPS0FG30mx0ptMQHgNlyn2aFVpEp4QdG2ZY+AXNUfrJn+qdw6kyndJwE3IaKRu/Hgtf5ep3RXEyx6lQx6vZRnf44UZ9x37RMOVjVZVRSJWqg2qZ0vxlan3g+pH4i4NjPMDAKRO8969/7S+MouDuFRb57tBQ8+GdqUmGSOtqnstG/w1RR6p1TxcOf2z190nKK4KOvjvhaS3T3E98ZeJIbaVFZ55eDZ55OWUz+7Hi/g1KdzH3jNI3KbTrSOp09yOqu1P4f4lSe3ef3+gnZToJrNxWFqWlCGUT2B6gn3sjPpsG/reRXaTQD24kWT3RuCervjaPQwB87pJqMGs/ao1xJNTtIxRXAYGsKLZYauJL+phRVwJao1hGT2hJ0PmZQuDRVd0cJs+nrpNNfkvtQ+J9jVCj2e/qls378FU6LW59yTh0a8pOy7v/X3pUtKY4DQdzWWmHkBz3p/z91uWyrLkk2uAfozGa2j9mYmIEi687yerbPh6PGfVpmoks6506TVJOYH8VSlFUsNQz0BUWq97HTpegfY4FRldnoaGhNbMuiuPcnfdO4VKMsiz23TU15rRAlcimzkU+O55plU6OLH0wpvjkaUMf4gh2demq5qod/DbO67vRGMAv8cmdPW3w+73DyscSoJOGvUGqql6a8LSrFJCW4TI9irobU1MbNZ9EfJeJ6gk/N6FTtP70q1X+XdJ9HqfppCDmHoilIndvG+ShxKksnPN+PWY3fMtdYyqS8LoDqZW2Kb+rxpT3bJpvj0olarC9oQ1Ir9dTvSzHTF6ZO7zEtZUWpKZorUHyCf4+UhOXumc2mvEKVKKMWWPX695kq6rwycxLrUKO2Bj1ylahRZv/FsDQQ05yImGlB0cRr1/Po8XFDd/d1dPpO4elCqYUU39CMPO9y+9munvobLN+vmOhiqf9VJqKliQorZen9WGuLbtvTY1In1dUSktGzpmmNUF+W7p/eD12hDWWbZ7OgRNIodXX1RLovsSQq0S91S/XmgJTSdKK3pGQ4qinwlE5CFlROAhU2yVXMQ9O4Pi/w11Im/63hKc+npITkmXn8s0j9m6g16d6eBq2EVpcQtU6rfWcMRHt9o5QnVF5j1NEwz2J5P9A5U34E6pHil+ZNlENlfioInRwRmv7jIelyiUoegSRkun+OL6mUmqiBcsefSk1+QaiXv780U+/NOT52mW+k9ShNZX+sO/9g75TyJf2p0imdhBCPp2Ol/jADfb/qqaTUwkrpWRtC2dzWJ9slsiuljPNbHSmK65P64zV9c2MWesn5DUYdvSHMN7YZacij0ZlGg/d1PTNxndTeejoqNnVv09w3F1LlGpTCqLuqphqjpryGSrei0yZGvQf9P56Y5qJn7k02ZcIm+XjUqGnv1c6V6LvORH+vmESJoNST4pTXOqWHWK17YztdGqm6PvS5ZKTlsinhTxmhim1Tyag1Y53fap0o7nsvFKMVK/UiKrWVIseWXildy/Oe+//KLLTSNX3hIuknu/3HUooY0VcYdeOefjKK/CwC4HZqDfaZjv/xXhPXTKyVKFoqlZ1SUyGynD0FqcHjiVJ0eciUy5b6Y1tPutt33enN8XPma1Gyp7938Vn/OTFjMojSVj/NHH9mqaO5WMKGorl2efFIVNHhB/WkHq+aGmX91clTRtWWSf3BVnqh0/709nj0p2JsEDM/N8/tkRp/ohEqawFkHal2QqXFC2aR9DCEJRkhxk11319W4RGXnuepkykb4ePTJtlafq61y2/pFmajXtvaf3u3v2yk0hEqxqg7xkuVMn9uo1kYm4v3mJPSJcdPAlU5C60kUKqNaoY5NvafchnTkN9+LCtC+0ndfKL6un46siTl3mmUv1U3JZPj0Rj13Gaqye7paxsnbGCqrS5FHf9iqV7tPRHZHZ47ier+6EvndIP6NU2c6KipFpeGiWb2hiZP80Wd56z0U+h0Lvtz/tyrbZqRZ9SSKEsKJTZl+mupX/4jOJHq0pGmAB+z0rG5oT+px8mtfJ/qRTLlSGPK1B8Vmd6zqI+x07mTqotGb4lN9Ypp0jQlZUUqthdR9bebFDTLKVUmUmKjtKkDFegMdK5cTtf0SzMnXt/D1wKAg7Oo4YPM9FajekLVlJZEtZ4+6eYXGXVPgMrrVMu5nZGXo6jI7mgdMG++Ubou59OjZW0bpZMSpLafIn+iEjU/3nRUqtages5YK1OnssG/VKUIobbYqx36d1xif+QHnkdqpaxjWj3+FPiJHVkx1T6Cp5eduNP/zbp+brMfRqc0TN1c3k/8ISPUJFk36TP9LWOopTccn4+i6jxNO6OjVdfnByE8DU9DVcdcG44m0/yH1qIcKUhdH93pA9HtkYq2qvssDEhCY4I0+GNrrq8n/Nz9M2kzehaiYJhNbVI1bcrj0yA39OSZPNJ/8vbBpxe39B35/IF0Soaod2yZJGUPWj10kvSPTSFq7entlRMQ+iHzpoA0GIuk+TB0RrOaw+cNfT/xYZRfrEXN1uq606eiXdiUVqLK2RUv7zM56bzB32SudRr46UaVRcdtJ5/0decsPJ2HocNU0NyVM/tCKVJ6fX9ckv+JNSn5Am8soaaoSkfRzpSW5YvSVDufNvVQujUuDZ4X/puky41BU8moPIcqzZ3o9VL/OtGIFp9//7L/YDu9dah2Z/XmhWizF0V7pvGFdnp9z8k7e89hEjPRi/OfGnb1rIPksgV1uM//qFaUPUjVbKCm8n7WmVJtVAig5r7/NXa6FqrYNchxq88PJH0KdLdk8lOtaMosVO3mH1mRcgqhDv3p4/GTNqnwpphq/4Mom8ZE0v1NndNuUyCjl6FqHBuUThRvk7YU9unUvjXHf2zZ1GmE2p2+AT92vd/KoCSbat8kqXu+5lKNYerGp7jbQKJVlRNbTKKoFskyJjs6PTh5+ookqsn7J9HTN0NUtQOVrHGpmFpL/Zup4Eqq3m+oRgUpDu2Vc89ZJSr4glqkpybq5fLzsWOmK5HOn7/B65cyqlTWkOLqUeUUign1Ntf69zzHfVMpPxSodFqrUrO3D02ndHnLyeva+kd7fkKoX2SmFqcmuVGqMmoyUyhNC21Dup92PsldZQp6jUSDPASVTUdVTz0HoW5Gd0vECOqB9umYkd6+/x6vL+qpvE3Kyvha0h/NFEqtTLUvR+8mg77bog8ZmMbJtHTwycpJrZ2vGKYv8Kc/iE9dRqhfZ6a690+qBL+iyJ9MM9V1z1/UNy2a6tjq7okpribKWdTQ2xe9JjnQNykip8el+tl3XX/6SvSKf0+8E6XsltAotvBBSTUeaad3/28aa8iloTxRgyYivBMp85eDUzLQZx2AqolAPWem+czpV+VQwlITl4lWdqKirnBa8vlxY8u0Nte3Lf8vJlNkAHru4bPUfyqk+5Mtc+YPT5xorZT+9HvN9GqpiW2QyJ0SvcVf4VKe88cDylK7Q9XMVEO+shem+y/zxs5El6GEcORzvfxhj8Euj6820xsJURcfjS+0OyfCMimfbiPUVz3RS6gapBDPekmHz5pwZx+oqMQy3adMQDPt/XarHLbaqOMLJiu+3Uxp8p+U48+yV7XqSBT4VBBq/CU7vZpqIOl9EJ0n2R31fCbqYqp5SrUEoH7OsVSFSKVw6jUmHLYRqasRav9z+gvoEzupqzcBpORpMgqpaXOAGl/73uuDtfG82OSqFXn9KuS9qEBORSx6PIJRueaubzA3t9fxOyV5+jtsmrt/e7hPmeRTcyiyybclOk0vf6p/erb7FNjFZ08u6Xk5nJ8LRWU90ixGdWIGdSsp7m/r/6HYlBV2xJw+a0DFereUr5zk5hl/j04Jq05kzDTcgtPAtp/yJf1gJPh0MMpNRxdJaWfUiRG++bvhb5mpaKjaS8+xWJDiiVQToR71XD8CgCmrlWaXypgC7/Rw+YxRAx/Yo59W7994+3loTp2c/OQ4pXZ/zkxXUtVW9JMQPrfKUZHLSzVEpwfmAY8AYBHfvbnuTCh6YcwgdqGyEFQMoNBEafnGqVa6WNewxWRdyWQfj79pprcSpBRBU++XKgSrzku18OnBT/bFVHM9nqVoevs65D19vkoaeMXUswPQ+laJKxnZntk9l/+hWcu0+zn9XfT5IknzJJ82hHLAKP8TLYBpXSxlp58Jmwq1/aw2elPmGxil+nKm5J5Ll6yqgfuLoakgoGStmBSq+2rxtIFQf8t33bpV0zxkmqdPK40KyejMTAOtVCk3IBULc1utde7XSx/PE6rur5vpzVRjTqnFRRN7oi/+aiuqqf7G2bQ6vHf9b3iInArhkyUgda1p/9Dwm0OdV/9Ocb+tU5WiqtRTaUWJ2dOSzf42K1xp9V6BmrKyvlI7XRiWyJhz7ciVT11huKm9ez9wC3XqA2RKX9OkmGq1GrXhFl/q/8k7MCxOPcxJfxC3cm9Eag/pe6fPQbsSHWYp/lBhWmfz6QAyVQIAeR+qvMNHyvxvxqZrCN6JKr8c6xNq+7eHy5qmq8eXbVH2k8Gm1aEQz4JMt3RVVcOUNpuYiVYWTmP/b/9d+U1dEpd6Pgz18N9+EIpRng/YSzIdtoWsTus7ZcUoWGmBfs5N7VLi/Kt3JN6g/Nd3wbO61C0ACMqaHhnc9+VClGssS/HpPmdU+ZdHB5ffFKymlqX9SLumls//eZP3YKer7j5sNdDZ0gfHZh1+11QHHZpTf3WxZOZSWGnbSxqtlejE2vqRzKDEdyRT8g8LuYpZ0LTMvGaYTu87uZqV2iI8koVng4WVbnpJ7QJVYgZrJ1F9/45vQpk1TfMYintYq6utO7st5SfVfvX4FFy66yWV5f7c44sZ/vhPWlDP8WrQNczzlWhXMNBCIjWI4w+sFCXmopA97X5Jf7oY1RQqMrW+yKn0zXmh7zomIuEWE3WT5tVF0dQ1daKqk1KLw+9Apc/WdjpppbQflfNp/BTndSfWXEDCu8cEv/P6HLNqhUNlkG8gJdNhfQdcv3sMA8Lhv5Bal7oVyadyaenu457vy5uQmqroRvmmeaehSqfObJ/CSA/goP7iMmN3t86lD3D5Sd9/7LN9eQ92Yek41TInERCYq6WyTCWCUwcm/YXX9/IKn75GN/ZaY2VD0a6Q3TP/PtixqFObrbf0HpkTsJtap2IratLodNBigKGgvXfNm0CkwNMZVuemhgWooZZV8Vbp7Y8ZYKPAayOBrrHO1Kh4cjdR2ChwTO7I6XXI3P1gs+uyROKm0F0sFCwK/Aq/Xgy2c90mjb7ubqCwUOCfFDr6a4XuardXy+2Gx8f167tlXut0sE4AAAAAAAAAAAAAAAAAAAAAAAAAAAAAAAAAAAAAAAAAAAAAAAAAAAAAAAAAAAAAAAAAAAAAAAAAAAAAAAAAAAAAAAAAAAAAAAAAAAAAAAAAAAAAAAAAAAAAAAAAAAAAAAAAAAAAAAAAAAAAAAAAAAAAAAAAAAAAAAAAAAAAAAAAAAAAAAAAAAAAAAAAAAAAAAAAAAAAAAAAAAAAAIB3xP+NYo88uA6hLAAAAABJRU5ErkJggg==;" vertex="1" parent="1">
          <mxGeometry x="887.78" y="130" width="60" height="60" as="geometry" />
        </mxCell>
        <mxCell id="KyCp2YwgPN-6iDdUvJKH-52" value="Power Bi&lt;br&gt;For Visiualtion" style="image;aspect=fixed;html=1;points=[];align=center;fontSize=12;image=img/lib/azure2/analytics/Power_BI_Embedded.svg;" vertex="1" parent="1">
          <mxGeometry x="1027.78" y="136" width="36" height="48" as="geometry" />
        </mxCell>
        <mxCell id="KyCp2YwgPN-6iDdUvJKH-56" value="Azure Databricks" style="image;sketch=0;aspect=fixed;html=1;points=[];align=center;fontSize=12;image=img/lib/mscae/Databricks.svg;" vertex="1" parent="1">
          <mxGeometry x="892.78" y="265.43" width="50" height="48" as="geometry" />
        </mxCell>
        <mxCell id="KyCp2YwgPN-6iDdUvJKH-61" style="edgeStyle=orthogonalEdgeStyle;rounded=0;orthogonalLoop=1;jettySize=auto;html=1;exitX=0;exitY=0.5;exitDx=0;exitDy=0;entryX=0;entryY=0.5;entryDx=0;entryDy=0;" edge="1" parent="1" source="KyCp2YwgPN-6iDdUvJKH-48" target="KyCp2YwgPN-6iDdUvJKH-51">
          <mxGeometry relative="1" as="geometry" />
        </mxCell>
        <mxCell id="KyCp2YwgPN-6iDdUvJKH-63" value="CDC Logs&lt;br style=&quot;border-color: var(--border-color);&quot;&gt;Visualization&amp;nbsp;Solution" style="edgeLabel;html=1;align=center;verticalAlign=middle;resizable=0;points=[];" vertex="1" connectable="0" parent="KyCp2YwgPN-6iDdUvJKH-61">
          <mxGeometry x="0.4" y="-1" relative="1" as="geometry">
            <mxPoint as="offset" />
          </mxGeometry>
        </mxCell>
        <mxCell id="KyCp2YwgPN-6iDdUvJKH-64" style="edgeStyle=orthogonalEdgeStyle;rounded=0;orthogonalLoop=1;jettySize=auto;html=1;exitX=0;exitY=0.25;exitDx=0;exitDy=0;" edge="1" parent="1" source="KyCp2YwgPN-6iDdUvJKH-48" target="KyCp2YwgPN-6iDdUvJKH-56">
          <mxGeometry relative="1" as="geometry">
            <mxPoint x="880" y="280" as="targetPoint" />
            <Array as="points">
              <mxPoint x="634" y="293" />
            </Array>
          </mxGeometry>
        </mxCell>
        <mxCell id="KyCp2YwgPN-6iDdUvJKH-67" value="CDC Logs Data Viewing /&lt;br style=&quot;border-color: var(--border-color);&quot;&gt;Data Audit Solution" style="edgeLabel;html=1;align=center;verticalAlign=middle;resizable=0;points=[];" vertex="1" connectable="0" parent="KyCp2YwgPN-6iDdUvJKH-64">
          <mxGeometry x="0.1728" y="-4" relative="1" as="geometry">
            <mxPoint x="-17" as="offset" />
          </mxGeometry>
        </mxCell>
        <mxCell id="KyCp2YwgPN-6iDdUvJKH-68" value="Azure Blob Storage&lt;br&gt;&amp;nbsp;(i.e Table)" style="image;sketch=0;aspect=fixed;html=1;points=[];align=center;fontSize=12;image=img/lib/mscae/BlobBlock.svg;" vertex="1" parent="1">
          <mxGeometry x="892.78" y="372" width="50" height="42" as="geometry" />
        </mxCell>
        <mxCell id="KyCp2YwgPN-6iDdUvJKH-69" style="edgeStyle=orthogonalEdgeStyle;rounded=0;orthogonalLoop=1;jettySize=auto;html=1;exitX=0.5;exitY=0;exitDx=0;exitDy=0;" edge="1" parent="1" source="KyCp2YwgPN-6iDdUvJKH-48" target="KyCp2YwgPN-6iDdUvJKH-68">
          <mxGeometry relative="1" as="geometry" />
        </mxCell>
        <mxCell id="KyCp2YwgPN-6iDdUvJKH-70" value="CDC Logs&amp;nbsp;Cost&lt;br&gt;Effectiveness Solution" style="edgeLabel;html=1;align=center;verticalAlign=middle;resizable=0;points=[];" vertex="1" connectable="0" parent="KyCp2YwgPN-6iDdUvJKH-69">
          <mxGeometry x="-0.1718" y="-3" relative="1" as="geometry">
            <mxPoint as="offset" />
          </mxGeometry>
        </mxCell>
        <mxCell id="KyCp2YwgPN-6iDdUvJKH-71" value="Apache Kafka" style="shape=image;imageAspect=0;aspect=fixed;verticalLabelPosition=bottom;verticalAlign=top;image=data:image/png,iVBORw0KGgoAAAANSUhEUgAAAMwAAADMCAMAAAAI/LzAAAAAYFBMVEX///8AAAD09PTp6emMjIz8/PxjY2M8PDyHh4fS0tIfHx+ysrLV1dUkJCRZWVn39/c2NjbCwsLh4eGpqalxcXESEhJTU1MxMTGcnJzb29vJycmjo6OVlZV/f38qKipJSUl2HV0jAAAI1UlEQVR4nO2cbWOzKgyGFdSqtFXUWl/r//+XBwkgOlu7rns2d3J9ap1FbgghBJzjIAiCIAiCIAiCIAiCIAiCIAiCIAiCIAiCIAiCIAiCIAiCIMj/lYRQSkny09V4BzTyBtd104Jn/k/X5Yv4TeBqroz+dHW+BMldmyL76Qp9Ab9z55zrn67S6+SXhRi32K2lRYOScCqvWk2+Vy/gQf2HhhKaKUdw3emwqc8wTtRXJY3/aJ1ehsnKH8z3EkYN+cEqvU4rK1+Z7zXY2S5dgPLLkzOmYGe7FJN0i7rTeL9inErWvTHf99wzDoQyhfkODmHYpwPg6Vj5WHcNvUkx3j7XAqQA3wwzS6bCgca6I2uLIAj6XUw9LYRmccAaXqiAppyGTH2+wg2n1PvBWj5LsYwz7QCgsqPQy++PcrJyqaXSI8bv76r8rRwXakJtZB9WOu61eVjSbyALLGO6dsYtc335lsbq09megMjI5/1eFjVNU8uCElnE1xXY+K0e+kM4WRJVC4KyYzzvb8oEp1+RPPQ8j6kixj7LGB/rKIvIGONOdhQdTx0+ftZScmkIp0K0QsLHErr3ihEVY/IRQ2QtyxqofiEDt4SD3GByAlSuHnr4wlMhqBqKnjj1SdQzKvqudHIxG4c8ufS9boTa5E5EQSSU/f5uMQ6RY72wrqiwbdCGBUZ3WfZcCF+G+CjEtMmQOec0d2ghvMjRz4VUT4jxHdVI/jQ+RblELp8OzruhUkxgX4HnTkMe2jRfFcPPvBRi+vxKqRudHQ55hPxUFDee3IpATVJWIujfioFBPw1PCNs6M+JtMUFLhd20Qxg5QZ8NnPUgJqjrgidxFKlFxkENzfhfi4HHTmIiecEzFywxTXxLhY1WlS9+lqZxmA2RFKPMzJQh3cjQJEk21N8txh4zVI6R2ySmuS8mED6N3LKqdZyzN87DDXM95moHEFcVWGcte9u4r28RQ0x+Nq6o9md00KatgHCgndQaMbQVCn0mpg8x0Y4fOXfqXiiMhEhWO5UXgjc7jmIupohvEEP4ybXwlBwKQVthxMEYYitinkaKiU0R7xeTLSPNAxvHeKTjMgZ2pZxbeTQ/fFXM6fvEHAd3yaXyMytp6/E6O3I1QXjTrPr7xNQftQg1XjD7eg70XeCkfqkYamws6Kqu+JBDXxDn9m9/mRhfz8heTUmS0Lqd1T1YLnVmuYHfJqZOoZKRWY4db6bmJ0bozNzcdhbv/zIxPkQorr27VOulSyiHuhVM3Rar5l8mhi5jxxEV+ZsAk5UXwan4sJ/2WIw/srxYf0aMv1rEXTIY1fPFIiwG3NmSabXImZgkzxljeQ69l9SdDCkDLiYpLv6SjysHyr3Rw1x6cScbEw0zMQmHEsBf+lkrPejAiO8cx7+0K1WwgdCxXVRVJTU3m8IWQ9TgCuUMm3nGNofGlw6zFJeb1B6A2VxMon4D+8N08kQXloCtb1QHqn1cXIVnnj4jRnn4UyW1NLYTjHN527ibFc3mtPkSgHSw9oNsCp1FJZ73hBjlmJfZMMjWfEaMevYtlwZbzzrAjS9PiFFaRGA4lTz1TfwPxSgtMWhxdL+UfTF10SimOdhVtM2MdFBflRnSYeFQ9Jasjeq8x8y0TTDQopJtBa8prbm2l1FM1vbSARRV13Xj6NJifA/6Ra1iGSgbmCgha8z426jOOxyAp1LvLodiCMy6OpNIvEmMn0TSNec+IQlxJjE9aFGZ1AR646wshrDnxLzBNV96ZRN6XoJE/HQuQmmF7ezVSfOs+lLHF7DLMph5zW+fEvNo0jQppY1J051rgRFztZLSULcHYhTGQOTFi9WYdfmMmIfhTAD5lelp6+EMYFYGRHqswupsmGc2xZiLkK0/2Enb9hkxjwPNS/tMoLno21p6rFmM0z8jJpwyWFL8bMiyp8RsLAHK5cptZQkgOZmeicbmuVT2Q9r4CTEx01YGZ17spJcDqeEtMW9YnCnZesC/KsY96FEHYuykl5qgNsXcWzbPwomHy2aFfvhRGu5sx1BO7tsOQO+WZCb8MfDbc2LuJDQom2brWUJjsm0lZmjBY6j6U/m73n7C5phhME5VUou8OmZkS6ynmupKubWNVFOvzkVoJyDbJrD2pIjV0qtirg6HElQTyH2Oq+Vh1X4EfD4+Pqd4JwmoJs/tJKC68QZGL5vmYo0tCE4eiDmYaRF+BZvCVudGVy3Gz4u2GzbkrKVnCZxEeyI9q86sgROAbZzSPHB2oO3eslm1x0V2OwTXNzPvqj+OYphHoyTZPHO1kjiX/fVU4lztqkEnQgeWaobNQMuGGD3JX2XhYPepUqNjPyGm7khXHRI/fUrMq1sa6rhAON0mbswIyUJtvBtilMOCcZ8p51McCbGWnKI5Q6eLAuKUnxcDzb3cbPJWN5uUmeRTwy7YEqMP8fZj77ZrJYxiPNFsosPOG2mOj2LUsn65Dbi2pWHCdjCN86wO6e0pMT646ZM8uRvOSjilSowws5yHSba1PFnZoAWXu9ygvbOlkYGZyAPepLfc48CXrnm5pZHaxakjSd11KuGWa9fss46RhhfWzL2q5ZWt8yI9HA46VOdX8eVwlemZhOnA6OodHW+8DZqpHsTHYfJT1fgjPdnX5VhCCukZrhvk0nOHjbfdZDXbnFVTe65x51CDMv57hxqSOhIYcZGkgSFFm7zr+46N4Xg2XgdXTcaPR+NZffknMw0foQT4M2lYF/ZePh6ToPI6/KJpHjvmu8dN9NLmznGTxwhP9MWDJMkLJUSLXH+/44NA2YdIs9vtES0/WGrZ8eG5jWONWaCONcY7ONZINw+cUjhwynbwGgrERMujwP0+jwJDGLQ8pH3Y5SFt5X3/xvF5tcXzN15sSP7SKyd3XgaK9ylm/TWtYJcOQJ/QXrxAt4dJZY21VxuX+f7dEOnU5V946VQHZxb7fR1Ye+eJcscvan94hX7PWv7WPzdw/tS/nRj5Q/8QBEEQBEEQBEEQBEEQBEEQBEEQBEEQBEEQBEEQBEEQBEEQBEH+Fv8BBHF70rDU4OMAAAAASUVORK5CYII=;" vertex="1" parent="1">
          <mxGeometry x="884.03" y="465" width="67.5" height="67.5" as="geometry" />
        </mxCell>
        <mxCell id="KyCp2YwgPN-6iDdUvJKH-72" value="CDC Logs&amp;nbsp;Scalability Solution" style="edgeStyle=orthogonalEdgeStyle;rounded=0;orthogonalLoop=1;jettySize=auto;html=1;exitX=1;exitY=0.25;exitDx=0;exitDy=0;" edge="1" parent="1" source="KyCp2YwgPN-6iDdUvJKH-48" target="KyCp2YwgPN-6iDdUvJKH-71">
          <mxGeometry relative="1" as="geometry">
            <Array as="points">
              <mxPoint x="634" y="500" />
            </Array>
          </mxGeometry>
        </mxCell>
        <mxCell id="KyCp2YwgPN-6iDdUvJKH-73" style="edgeStyle=orthogonalEdgeStyle;rounded=0;orthogonalLoop=1;jettySize=auto;html=1;dashed=1;entryX=0;entryY=0.5;entryDx=0;entryDy=0;" edge="1" parent="1" source="KyCp2YwgPN-6iDdUvJKH-74" target="KyCp2YwgPN-6iDdUvJKH-76">
          <mxGeometry relative="1" as="geometry">
            <mxPoint x="1027.7799999999997" y="614.5" as="targetPoint" />
          </mxGeometry>
        </mxCell>
        <mxCell id="KyCp2YwgPN-6iDdUvJKH-74" value="Microsoft Dataverse" style="shape=image;imageAspect=0;aspect=fixed;verticalLabelPosition=bottom;verticalAlign=top;image=data:image/png,iVBORw0KGgoAAAANSUhEUgAAAqgAAAKoCAMAAACMZv1uAAAARVBMVEVHcEwWikIpn08MeTsLg0kKc0ALe0UVmTwJaDkeokMJWjILjU0MjzSO55RLy2Y7vVgHTCkrsEx954Oh6KZt53RX1m8EPR+UNzUWAAAABHRSTlMAqzFfWzefzAAAIABJREFUeNrsXWuTosoSXKDp9Q4RdSI27P//V6+869UIDbOrTqaOKDNxPrh5st7Vv34BAAAAAAAAAAAAAAAAAAAAAAAAAAAAAAAAAAAAAAAAAAAAAAAAAAAAAAAAAAAAAAAAAAAAAAAAAAAAAAAAAAAAAAAAAAAAAAAAAAAAAAAAAAAAAAAAAAAAAAAAAAAAAAAAAAAAAAAAAAAAAAAAAAAAAAAAAAAAAAAAAAAAAAAAAAAAAAAAAAAAAAAAAAAAAAAAAAAAAAAAAAAAAAAAL4e6rpse1YiwvAxoqv53df2rxjcF/BtyDowMXehyWH/X/1no2TuSFgC+naEPgoaen4aQYX6EkZYDO4dP03X5k5Gx4CvwLRTtJTQYtRyuK0cX0q43l8vK4ElhH4SFvgLfRNEglHRm5UxJwdlFSmeZ7dY7YZXfnq74loFzHK2EmZf6OXFzVlfBVOcyEXR+nTB9qCpoK1DojVZBOKKLsV9/jIbObDU8DexPsvgUT6Duv74+4kSu4/uF1InhfUXV/ugioJy+XFC38cbS2v+/3VREVVrw33+PT0PoCMpeDREzCTldbfuiqYK5SzDFqRwkd3PoFFnfjaJVRQ9e3u/3P+nx5LiPSPeK4N5c9oU7Siq8Tx05dQ47A7uyTNVBvEuE9eAojWxMT9CTNSVCYu68vQ/W1HOG8mjJflitvZLQI4Zfk/XVrU9DaQdFJV/THdJ6RkpDXku17e8c5nphvg73C/C6wvpQ0qMcZWR9KCu4elJKOxbSP1dUl6cywj/I0jj+xPn9K3K1fkjpn3QK90QVuHrK4C8pUx4tCbc0x1SW2ZeKeoym/G3/0r4WV3uv9J4uwB26Wq6lPEvKInwd9cvYSbumZ4x9UII63XkZrta9W5quQs9VEPEISzk7GR9FDUrb/vWGdku7cnpGdS8ud14gtqqrP46/eVJfIaub2dKwlYiSWX0nlpr/RMT6LA/VldBUEzYun2a+/luvrr7I5DtcBVV9XQid45gG0xnFyk7K9geW45eF0iJFjcLiOyo7MfXx/Gfy09D9WiUFVZ+Z/I1WZ1ETZZrq89Ry9KRzKvU0MmVd1bX9Jy5ATdeLKQ3P1QMAOfNiarqfpYAKSy+ifpOI6soqUNLSxy09Xf3Vvx5ZNXSxlEqOQlW1mIZcgM/56Hmq/IZXyA+lchrzzJXX+U0cru3f9Fav9E0pcYrSQloCVZ+Kqa6VyszpQt1Jc30ZPcPSyJP8MQg7v/6GewIDWf+WB3AhTcnyVRI3pQphvpPV70yHqejdcwr6wS8/dcW+aXQT/VG7qvObiaT9pQ+s/sYXZ5JR1/CVrM4ODVj0k6laN90mRNwUOifUV+EVq+EXymmU+SfHWeWKujqoM12nN9/trPJQ/36FnJK4Mz4Wj3Xk6o+1/9I1DZkuUzmS59ZInYGos6F+tO9cjoZVRxdlHd5/r7NKFxt97pMaT3W5cf+Rouq6pqHrOk3LTHZfFUy78/FTYAknTUr1NDG/evRcbb/tn7W5X2rzyfqpq56SENifJ6qbrmmQlPX6TVjp3mvZP0fTyMhq/VOHpVFb/klbv0dVr82cklJWWiMp0jd+XFC1kdvXU6WdHsMXU3o2cCpuPYmesyqi+pARUvEyWf7p7Tc4ADVdJqZkTbyI+qWsJqIflqlqQrYxKnRq2tnm9L120+OzenkxFfZf5qSyijrxcnZVBS4Oq6ori08knVRGVWbxiYVXA1erH0tTG+XLgpRKpwZBTPPsTpVJ+Q+Ll9xiVGR5Ka2o4VuoWtOfbyiYkqIuCSeAOG/Hmz9XTb0+lGBkNOgMgGnaLyZolOF9JtjPUZUpqhbUkapX8TRdni4lTlaPssSldVLVjy//N8HpM5W9+7qD35ssVS7pNZl9lTnVRSdDUi94soZ/dgguEdXqfqVzKpOk4mKC/ullVdWPdlSft0cF2xHtp029QP9E2jSKUlRcI6lnPF1sfcyJ6YwLoqoLon1yUvtKV8kEUkpWh8cHp1Tr3Gi+WFgqwyrBWafx5KTVV1X8haAs3ndpavxTX0qvpeoU7d8vyUPxQEq+l6z0ODo/fhJNJVc9RVWbpLRTek0+SnunLJfqCGkwwZPUVRdtbNtTrmpdXZw5lclSVpQiUURdGCtehjf1J9I0+OGS7ivV+f3M3kidizqpqbLctH6OKpnqsTQIxm6jLe9Wae5nJvfIaeMT95hTSjp8slpK45/993FMbcLT3n3TZaJyVXLH2blUlG6HFjVTlZPiImoi/Z38HPR01NRS+1+ni9Onsloqgidxmyx3aSb0p+X+m6DD/LDBVBvuB7U96tRCnuh/Ft3Qm5X8xRtVH58xdfhpC+1/cz8rpm5/lEpTTQTU3Jxflmf/N9O75pOs/sZ5D26qNF9+Ok1TX1KjaOuL+UKp6jsVCagnNB0Vdfg5Lqr1/brkKcvbm5YTUYZyLL4k6yCqH6OpuVWRMvu0se1EDurZFWfFaX3VzC8VNeeTBp6LOuCcrta/R/U39dTpjzIJUxY1uSTVTJ3c1P61+Wjn1Nj5zEY+k9mXof7pcVJWJ2WCmnVKF0sf9jqnk386MXWS1PbYvGp9Sc8JL4jy8Il38fvJKBZBzWwl5iLUn2T1gylF+Wv2TQbV7OTpyqegYrDrTnhbnyzue2ZfFEkPkHWm6SKptwOiWqin5Mf7JNP8q5gusbw19kJR2WUk7Ptrqt8YrYdKNhTVeKfFfmnU+/iiJKe8n81Fca6Gg4o6i+nM1L1BVX3a4qv4SaWfpiDea5oSfCVN01Vn31tTG9N0EtTCSG9/VK5FStj9K7pNhc8anz1YE1/c7ZiuYjonp1qBXU1VdbnFl6UmVT9dSKupSSmf4l8C/klOJwa/cz51o16qR0qDs5EvuOdCleRN9bKonKLmMlI6jNpPUWX3YyuYemtvt7jjH5iKKap3SSxqSquI5lP6jsEnQVLx33pbpjbBGYKy68288Wdv7LkLJ/tMlaSqWahsK7QbPoUCmiot7Xnavzw3/1SYhFpH8rSlX1OmlDYfzEVlhp7E2xnVJ8mpOA7KV9Rsz/5FCVOz6GR7Uk9a/CJFXfNSnK23UVIfovokp0oXJE3VWgkSzf3WafXzUElTVERWbzqe2gTH0ofcMVCdPVqHr94r32uam4HivkC2Smra9g9ytJUcbR1FHZn6tSWq1Z/DfVFkmqPd1L5pOnEFVvupzC/V76q3l9PA01DM1Ju9u7p5T0ZOXVmHqalB7VFU2RJ93NwvNJ0qp5atC08f1+qagpQ0+iQb+igzceKno0R8zyTUFKjYb98unarlNNjjyGWXVEZP1d7I0xE+Hya1LaauvY+SrkeypitfHUG9TTwdqZo3//XZRj6SOSev6vTESWWyStov1Tfqt/ZO9WiJv+rUPwTqXMd+fKqoXmaK2/pQEOJHrqI20S8c1IGqPTLmnw72QxnHMyXdYiocgKQMv9LQpLWUSGdTJV3fV079Qx8NS93ZErPT/JScyvH8lanR1KJi1B1Su+kqDP6Gi3pbHzNVPaZW99Icvyw7eUPPLCGayEmeJhk9qVAqeYJK7zPw5wb73hGQuiaV64ku3Bfpb+DxE6mukMbD9XwvioqiZUpnphY5HWHN/x4HlfxcqRwzSbaM79aoHO8zOWY+uSQd3NQ3Yeo8umdPhFIdfDJFxYJ61YTSXVB9iv4A1PbGEzO0t9szbcXTq0etYdSNU/Xrqz7ooJKe0CPFSuOc6m5oJ8CXXmlSkvoU71HZd71Tdw1vcCegnMU8x2nq7t6NO0Io1nVSKKSaptGnqbT8DE1hBpVyc1Bu0OSEUDpgMrETS/TLRNUbMnUw++oAKMlPvS06Q1FG0pMrI2MmSbXVuX+4L8pp5uMcZZ19jn8q8CXyVJsZVDJTzmryObumx6nnq25+0X+SdI7qGZq3iaIcs28X8HoL909vjIyiMTqGsJWOMg0nrFk/lHC0jcro+9XT22L8DU0f1r86mEGl3PYIN/f0pFpKfMLEpWbaQdj6Xcy+FymZcT3J0vNrzKPTZmpWm0k91et4Qmk6qpUB/3LJFPhvPIGqqPq1Oqq0yzNNyclBqWd2h4R0VVX1aeWsiK/e3E2V/dGmj89JmOoCqUnznzwYQnZDBye8lxelp6Hc6LeLoprM1G1h6sDSVtN0oOpoO5udc6SkO6Q1SX1B9WdMRP7U+qE7qVq/uNkPXoJfnVnuHEwe1Mb9k4eWqdYTuYtPnQyht52EgjppFEafq2tWUF1F/VqIOoZU912NpknlomjHfjPdXCpbTCQ/k+7m34PX7U2tnDJUfibK28cjc6ZdUQkq2ik9/5gdf/S5NMoXVahWzEexaEq7p67d71n6MP69plb5Mn5yNkLrVFR2BZ/ZISHiKlsFOKal9NLDflO0nz31OTh7TTszpVfWFx1zvur2lkjN0nBonlQPmKwyalpQYk5OJVW/hkhqZWpVPxNU4gaf/P276wfWJmVbTzQdk7L26ThZX1JS6yAHTdRIFEvv+037bAbqZMOp3SQRojurpxZEnlPUKBV1jf9bp3CqKvy+oD7QbUw/kWktVeOl0uRnR59lAlUoqg6fDgnqi8ZTTWcH9L1tZ8E5ayecOBlCVkZFuKQX822s3pXLowraTlRiaiauP3jSbrL0ttD0q+3+543hO6ujkuuF6vS+CprUKhST1HcF9RDq13RP9VIzuT+q84+CCvLtmSjK2xsZ5ZYzd74kFviobabhdHVP20zllOf6leFfclOTpj6+s9+U2ctjRvClx7ojX6oz+GrvGR3ORznx1KsWo/S+PaavehVPp5r3Qzjmm0ovVJ4D6c6UqjFSPaFf2L/XeuXSLf+UtaAaSR2t/iKpsfu9MlX1P+eCfdqed5Y6KmZJhQ+aqDiGGhn6kvWpOmydWKouWkDP7TOPtrpvZko3o3x+1F44ztVomSpno2TEf1vnTluHpsLuf92mb5Vyg6VurnR/K7Rb2U9eHFXE0dfzUpuusyfsBLPtLPi5007ko7qjgZN3ph5TVC+KOtEXpSf1clRtdzWgWpoKH/Xxtf0enkTOwaReXmp7uCSRXnmisvvk1aKKrf7weKWh1Epv5rFeAN9pJk6FuKSBX9ekYmYlj394STgaQ/2fuatrbhyHYZNEUrx1xuo++P//1ds2sU2CoCzJ+bi002Td3ssNByRBENwSPs36Jk4TF6DyzL/h6b9O6vr4P3vNCKdk8jRPe1960jRPxjrKF0JP/aj6f4rTwNRQgqICaxNvw2Tsqk3V3RJGmgZnVnpExac3THBmGkvzKA9Pv7Dn/81Dd0j9iVTtAsnuQcyehYR1kJiJGd+E9hKHAjQvkHr5H7VRhfnTQki5rdQTJqREe2qkpt5Mv3n1WfBRpixNqjA10TrILf64g6f/OqlxhdR7pCpOaiKhOc07fpHGPmLSY6ljXFTeQvR/B6ln7PBlpHI5NAPTsY1/SngWIu3dKmNg2p7uYyINlGz0oYFKHs1PgxQQ9RGmS6xmVqR68n2mNNWEqXp7Rntvnv6vIPUi6lJU8gU0nAi2PD2shU7B+04Fp+gGg2hBlTqFqRjn+6zUXuYfgOl/JP4lVn+zf0nB5zlH0VmpjVI1RJ0PlqW/0fn/gtQLruivULo0UEQK3ZPylRePPUluZKa++S7+spWNYq0+VqfLUnSKNStSD6b/EaYDUFMbpF4nPE9GwnOP3RcdlI7KA5VpBiB9PFoR9fPjqQuegtYSU+sT3XlpJznj/KqUL73NOhRSciJKGiddmEKJGh0N6o5maqOmrmuYXh/Z36Z+HZ7eNuk87W3r9yFphk95LVE3gP24xc9pROYUtFL2pl4Hs48tPlvgc7UnxOusK16ViQRK+WmfnyI37iGJXwmmhoWaGg2kIqZOsxnpO95meM3Eik8b4TQ7XdQKpgpRPwypp6D89a1j1Ig39cbeYX6iab58R3cN2G1KqhX7ob6Fiik5VBRjTRk3NRQEqKJAXRH1EZ/XraP6fZ+I3KSQ83EEhQul8zT1c/tZpHoTplk9P30YTxf98yNWLYiiy8nYCKeJ++0nWwPwrK8MTW2o9shOJNdPhqTyp1ZKr2nfKPptmD4A9YqQ+jP3n3Z2oEEBTVr92TJUTyD3s+ClNKLmT7ZT55PxjrQ6U7tecnC3JAVXs18qTbt8+EynpIf7Ejq1q1Qy1NSw0/BvHf+gAdVC6qjb/GIXZVZMCvZmc0tQZs1B2a5fhexH26n7PVPtF02OPoIqulm0n1jHH6oaqKCcTPHfDWromJJB00iS/oKlZn3fCqUj9vs6ShU1ha8/JBa9cam5BaFnp0dQNZux/jbdJ1Tqp3L/eZ01GX2pqAHs1l6vKgoE0Yn577vMfr/Xvll+SjRA09o/qWCtbPetWvqXmtq6/avA03ukutoT8o36PcTP+QlsVBbBugZnlgXrhyD1nEDHx+88H6X3TWbHJX0fTfEeedPqcyQsP9uCViMomfddWipaQH1opr4o11/CVJbtqQvvDFb7M0z15z4clYG5cvzZDqfuvzl9Ck/vYIkASkwin2ZxZo6TosUZrDsraVQvGUWlUZ7WlDRRuxtSaj1adFJXSU5BvP51NKcYn7NrHTU316YGSQ2/rzuoJUTXzx8c74/cxlRdKR1D+4UILthDvzNXwRdST+tkCf6YmHw/Uk00klNmQcqXoBotym8nNULG16GaXYnpTIahRsx/qCDNhJ/KhpvSzH/+iNL/bJsnQ5keMoykxx9Jui9LT0LP8nOU9lGwqsfHT/pFLklgfRo9AnWgqineU+U93yjPxPw53VMWlNQaorrRz/r9A9Opc0DZ6SMoZRHQfZ48FY6TY1nKrHe1JU8XoNqZfnTiVNP7xPgcN06jr5gqAyq+rhPdKoFhKVibopfU0WBV0ShDVCf9pXA9fwhPPav9ERJ/r6spPf7IhPvGKRJK1MYbUCJMjd2JafQdRE3VkinLoP52Utcinj5GVCbnY3iyXqkhSrM7L82mXjVIuv7VI1bzmxmqMy7sB/GO58n7juzYLG8u7TjzfAzN0CM9Qa6UyE5kKUqlKARQlyCNbCIlEPV7kLNTJ0ofrb+tSmcdnrO7/TS3YWjW9aZhoVR4ahZgGwq8Pe9vMygujgrto1LG81uMLWuhEVBbncyh08cjEcb9hJhJEkMU0e97O6c684+Vr7/YRZmTerNzsmxup/MtoAKvj0GqW6n71+XN/KleIB21sRkxOusVnCbtv5cq7uj270BB0o9uZRoJua8nUwW9VDT9/kJLLaH6HSvQdG39zUkTYEufMc63g3yM1+x+66/35f7zaWQGfMGc2RsPQSgS+wWVqZrihzbTyAjr+Wa1NLk9FEdUqui/O6AyRP1ieFoNqAtJpdP9bBB1BifJthDNhDbNpgIohqf4D85vy/uBH4eQROkYOkvUBNPShD98Kz7KQIUmTXQkc6dINvUQUQvN1VAg+r+oVvrO9VeA6dr6L8Z8GKsHl0rsGD+b/ZKM7ZLT8Iuvy9vw1Jx9lDVpJ2mqc36tmSmNzz5Lc7qZz1ooFJsmTpsyh35nIIWh+j3sBqduqMy5Zxalc3OqzyCTyrrBz2J8CuRpLsTpu6jUUyCdk4rOsdU9iiOqGUj5jP4hz/1IOH1v/GTo/RRRf6JBtaTss5YoHte/11Cxk1AzOVnWX53mCRBVK090ZE60idq+zu+qT+WKadA91Niv3VeAyph9KjohIpPQzElFa7offWrfAdTyxunggiqOpL6/hqYwfUyoLOdk0n6NfD8XVkwEsuYJGP5pB0d/KNR39v0nOFBm3KM6ClPjaWq9zvbCNPRtlEqFFBGdQMsUyY2o5I9MrbKPOk2gZGpVTbW8JnvP9HCJKpHRMqgCWTMibS5Ga36HB+XJbpkAvd9vIGXL0Z1BfvtSCV0vsbqTKK7t3JN9kjgaiWpKwWnaM0DFTkrG6rfwmqp+/dmfOs317X32+NSsRlK0h9rH05xff3ziIsdPuLl3WGqqAbawWKJl+kEp90Oz0NTa8mCHr1umYvPk9ftFrwno+ceO118Nqc2FaeZRi9G3afjV9x6ObiGa8zuo1As//GhdI3sM+FrofZRFh5ZZaSRmEqVZvqKdyMS0xJ4qlbRZ5iPbfP8ANe11+U6Z6h7Ua9wszZyZ0oiqKoHcUJ/+/mN6NZ4y9f4xm8jEb0FWiPfo3LQVTsUOdLHRx2jlKNrkgeq1/MPY9briOnRLxi8Zm2Y25UcmYKcsXarTB6K+OPef9WgfDu503ofgo6dQiFNs6ts3n6NZMnlEbXQ9TQFRy9SpSPyedw9G6UahtnRSN3ka8c/UfKhs4ton2DGdgC41YFqV9AWqvnjJ73wyW6WHjMyTYxId6GK+GpbC4ZKOfgocTwpiU4RWBNBUJPpd1z4+O/2uAdRrRfKfe9M8afkzyk7l04q0v8XpiqgvDdQTUUod89tPqOzb2Salh0tCU6gyYj8VxvhmJpp0j1/DS0XXasKOTvc6qSve65YfnmYOLWJS+Zzq3J93p/oyRqcsaoBXzvtPQbry9V/XSbBVgnY8gaEpy/mtfhKRnIVwkFT2+chI1b2sI0r0d6NF3v+OlUF6M7G6Jf92K4lsxdBZ+UroFRP4WMz1OlTz8nZ6XcPPVvX6rj6ngljKcYmEk2Wy5Q/VyhPqylMaQDkS/n083blu7vj3IKDWsqnrKa+/03NeClGz3YKapsrKlCPqK7dRL/IOVOdWKRXwJ7Oh56pMUWka2gRSLFTdGE0RNfx2zp+KbZRrgvrlDvn/AWp9JxXYo+7xE5ScE27tMUVUBRmFoJqXJ6/q+8/6DtQTRPtJrUA53rtsm1TLpUJD58TOQuwuPhNETWUs5bfNo++JMnRTU0Hd8H4o/jqkJs4Iymzt5UnT/bsjqGnJ9VMWgJpfN+8PxoP/wOqzOVYqjSEDa5+cmOw1PCmYRabV0lT48klkTY0FKjOV/nI6/npqKjBgDYb235GcZGMYZUZQmc/0WZjSLn+B1W0utfzm9LKGX5NR3TMozZc6lKnvd6J2oltcJKAy3RFJpWh8+WJF0q+ymCKeKEVAve6H7XopYTdSqefuZMR7RnmSp4oGSnGla3CuWV/B7Cv6/hO4SYydfT45T+4K9xWDqvAztFWmDh2lw5Ju5Wv7qBQrY9UQU5HiqTaWvgNqFcMfLLretnj9Uy3V1+XphBMoDbQt3dOEwakRdSkELi9o+MfnjEtxvcTdKoWj5HYJOtSn/Mj7p1TuoqQhr6gIdpv9mo7fMZz4Btfe+gJgu97570Ou46GsUxRSUy2jfIxSjqj6T56e+8/aRWI8MIKS89EiH6UN+DRv2nYTigv4UuTzJ5XuG2hTezJ6BdPIBKgm639Trv9qeNOAPH/YUPaR/ytsJDJ09ZkhKrz5mAoZX4aqCFYJqfdHL5ycjs/Y0S+ro4gDr1JDh6YgVbb760d+99nEqkn8KXZ0Ui6eml4q9HX8QRQDN578syuDwvsQ2Vjy5PqsL6NUpXsZottvL6+YSI0H1KYwwNcqFFqWquFTwEFUo/gkWqEUcTVRPX9saJ0cPKUeqKu2DyH1p0Btl6H+oGkY4aK36aeyo9mDO1Doc2ppqOrqVDBSlljdXqdXTKT61aZSEYUcv1ucBj19asv6EfN+keGHqjQxPK2BUevYV+j4bcNf0UltQUmf/KDp7TdW3fNPmbD8+lmmq6S1WV/OTTmiZlkTPJnp7zWJNiL+hJJTz3AfIPXQUqny4o1lOoobSaSaIB24oj/SHgoR9XtnyH8jQRpuQST+24qot1FMUmmiz1ipMuI0T0YeVZH1Ra+vun4jSX3+cCr0+vKYTWcLsNyMxyBqaD5Tbuz2yYlS3y1aB2eqAdNBy0+di3zGZ0rJ+9oX+kR1+hug4bY8srv4mW5HZagEMk351fEpe/2tWAVEFcF6eTqD2oum5mKJ+mivQQS7+NzjZm5WTApiPvUtArN+ArXAqL5rzrf5vvjyiQHUa3GsH1SIyjPej1D9405LMzXoydx4zwaryfdUKSXRc9IxrGL19NwCNRyoTJ2TZdRxHz34QvdyKV+BomQUwGmqDdLBICqxljREv+Mz9e1ao9x0tIYVPTc66ic4b0tftST/XJiZInGKiOoYSDUiqorIKdMn01MZ1D7OFJQmngraavhTL6RGx0iCnoYwV/YqW6dBefRssYmmkt45CRGlg2BQ+UJfqakKgo9aEPW2naj5Y+x4MjfoIS1UVdbnalOQn0y6RsXc/zwTqtOx43qpYkaKST90QGpUzCmslZYMT6jk1NdGDZDyFW26fObjKEDTATP/0CDnC1AArCTV7z/uwBoycYucYGCvDSTZekmxyydqU8lQEUTV7NTzitRTz4G9RE8+wtgU3c0Comdoy/W6Bt135vHEJjWLegRRRcInDqji5An1mZKd1JX2+uJnECF6/4Pf0LypOvXf+9WIo9CPx46bCnRpIW7laF9wqJOpUbON1tP7C9TkntgtXCcFAwmw3W9b0Y/W66zoIMU9o1KZgRqULprZ9Lr2UhCpwz41FZiI/7aQpqKlCg9UvS14+vPLv9RtH66U8H29tm5/YmFKERUBNT/JLa3rNgQ/SL6znt/tEh2JmC+WCFMt3ke9fipPm1R7zxA18rXoLzHiH+yM386kbjuFwNrz3+506lanLqG6jPyzkex50uhpX7KPRD72UIomnUwZwGL18vYCNVkClYmjkgbUoF2ikVFt33reqU61FiqVAtTy+YOc46ud/dJknzJTupH6TnVDqSCy/3/EXYtS5DgMLEBxZrDj4Jva///VY5LY1suvTIDwWBhqr2qPrpbUakkbQtGtZGsRSDf0Bl9QSLWWaZ/H1BeKJMSbatXvdT69Zmr6Y7Bswp8xn6oboemc3jlGnbQhqKnphzZTp0//prApDfKURltrJvQM9Uvf2guivCeJqsMV1RHxM0yPN+aFkpHet3PTwhgUreQJx0r81h5/Ret0/PSzoWopn9CXnVLJqAO56dRdP/HwxjjAAAAgAElEQVQGKR/QM3p5f+Mro6kkhZX9qUinn9J/eqOBv2ugD/ZAjwRVoOB0+Y89IYCgWPmkKrV2bYrk3XxeK60Mpt3P+28EfgP6rhNTvwpBKPUco05S4a+LUcTINzCgJ4RSyaT4ZuSki/wo4EtGTYQ6l+b1IQumSDd1NCfdYfrEbrqwQHftFs5B9S7hkZW+wqirwqj+R4H6cUKTotW+aU3oC0o9sZJnYttN+9wmmFCfTV1QRo83ZW7fiqrF/EavVE9Ob9IxpcyfgDoKTT0pEa4OIZQd/Px+JazUyqctjhq0m9YY1Ustqkmtryap76PLowxUFu9yTQpL++X95vXJZzSoX4n6onjKxf4GUNZc14dAnv9ItpGXxvyYmk4tiZ+3+DecTu0KCpf6ECVTF6HpSL0fUXpkqayLX5t2bvGq0jGlY1HDcf/1JPVtIDcVFyBrp8q0A5DmzHkI7uGr5KVib4SBDM/4ZtNBx9IZsg2uuWSqrj9rdqOQXRqq1lMnJvqOPDR1pVDkPyqrdFgpSEatHNepNKAUbZ8bTNZRMr0i9n/0LNwXO6P6LpJLRn31hElb2s/bpAxAhOJMWXTumk3GaEUA1fZK3W4an1Khv6PJn4z7gNg0cWwU+Pe6H139ctuXklHFIcge+z5+Z3IqaUONkenrQK1V/KZMqe3TECCapTAIUMXCN1VXReKv4CDRGTEnpc+5H6wJofXV/KUJfn3+BBQDP7WfOJSKOmsZnaKPDbJh9V5xR2kBv4pOZpFSNfwzKH1R8n/rrZ9ME6RsoSmT+QeKKHlZzzTVUhTxTUJpgubMj4zPQ3vJMljr49B5X59onH5+7YQKFVc0WNp4ivTpLKmjMjwTTJ/PLEunIlJ9pcrnUCXNKroEZfQJPxH4+WUIA1Wc0m6UNrQHJ2z7tU18mtnUHCjdqJRQ6IwROjRRD5xZBUgFm6oJKtH6Qcim+KUjMcU21JigOsC1ftoUcmip6oWdtn2Py6ZSh+LEepJSL+/xG5VQTUGQ0i7n8gmTc57olrTP6fSJ0tneU1aKGBWH/HnMCApJDygJpxWofqU3EEGfOPdzRY8o1cp3fJx2y07dsYPB6gtNtXqKolNUT160nTixnnzerw38RltnXj9TKsaglDof+pNThVFVrwkd1Qda20tGHeBToJNKsaA5sPqph30lN01YfbqmANVGB2UmNZ/Kplnyd7jgdyQ9tegSyPOrUJ7TG1x2Iq1R1zwfPyGhGq0DBdW1UWzs+czsM6PSLq+piYnpTGBK3rXo36lpsrvvRquf0FbJm5T5cyXlGKOC4o5G4Z5wqbMAWJDamNTB8dX3D+/lkp4eLPHESSpb+p6bTb06qz/+vF1FqEbsNikcfdaKez5SAoPa6aQnp02Umhjy6ZtS5M9dET+/7USFvjkql0kzoRQK/lhKGYunnEFW/8l6ynv6juj7mVDxbPuGV+jaY0r9e57JUT/LqP5HJFRRO6HFpkaZLRGb+M/ZTWt+aH33Locpl/Lnrq2OtN7G1GXpEVjYsdrQo5Im9UTp1+dNde47yqipEQWicepSd9/idUspUd2gepc7JUSMlysjmoz6cmq6hu39dJJqdU90wQ+tWqMK66CJKNVv4mtd19F5FTQyFXTaiPk5QyTB9QiwYOVxLcOWnyrzpjE9jVo/VPTTVOc7bDxFo1GsioIDoPh0sm3u3PVy8Y6QTQtDT5fQ6/vLgd9UpvRBc+4BlfT5nCmMy1HV44/CyR8dUipMczI69xVOsNf1GZCzvYew7aDdapM1hPvdWhZxppuuRokM9SlNQZ6Bxq1Qxuh5EDq+J5BiiT/vCnGY8IPSMFUxyqeavT6f718nU0qsH1dUUgbKjKplqKJ8OvlMYgdv5Ugp3Rs1WZ6bqgp/Fa+QqHQ/iLv6/5ZH6VkWv4bZQvpX325iN78Q+r+e0hQguMXGfmo7pflnmpQmPwo4oZyqG2xtbbTE8wURKhB9kVHPhfwY98Npyf9NGy4xQtkv7jGnR6BA2c8zYDadeqonut7s+4MW+pRR+yL+oZA+f+vzfV3+PTqff2uIaL3dKig9MtQp4wwb83dXicuWExz384CU48opZlTaTl0jg8oNZgenapTKF/CJ+fzriqqXKillf4S0oKjr98rLTGHQbdpawkfoNMJUB6jeNNWXkxwF/bx2QxTT63rf/pnTrRz2v7YMFWhR5rCusAsLWWB1VKGiGLW5ys8JNHruNOAXBVP5M7Z/rzT0fI5VQ6LX93M9KZyDygM7ovHEXFCgMuqJjTyEUYvroVnRb/UaiiC0yqdHYjevy+P8s6wWBFRjtY+a/FJAoFB1+BU0EUW9Jw6yghoRa8lPqXOPC6X8DBTfucv7qNdRaYTq+5nAb0p6lKlt5qGDegqjwtCAyUSNUsoKKaUJ9Q3TQsifkWJa9UfBsWHs8frjg8VQ/WJ8+nUDYIBD4DqwCcLF73ACm/DJZCmRpYbaWmi/lpT8a5XTlJLGrzOjfpyspEzXhdKC60Qy6hih4nWmHaI+GsmHdhE1V0C6E5MNV6D0INZAoZpkqSdWDewteaHNZtkedRVQ6AclOeXwxCjG5RTdB0lGnhRXCYFq5whUN5GSsupUJWVqtqhilc/mSeF8pa+t4ZXLeJjIf9BpmVHbvujLuJTw6t3caBF1MOoNIwu3QWOgj5hEs3t4fg9zp5MhH2UBz/e14DiVx3W0H1/biwoyRx2spt6V5JQjVZ/Vo1OltK0/OKM/OpxvktsUJaRzps65xyG1I2VeHz/xrPZG1NP9A5XnFlgWkMZItxQADvGUTZlY7Dzh8OQv3AX+FEYVlOo1L98rcT8whIb4yilpyhToNDOqaugzeJwUxtukWI8qYHXS1kXurx0QLbT2G2rU9tsPy+OnniXcKEy/vibA5U8CnaPSkiUGg+O7rO+7+Nc4PkXdb0tXSokZRTLqBXSKU1PKqKj8fx+UpozYdlJdGYXrfKD3y0ZL/fYWiUlgNJ/ZURpRWhE1F9nUro+ffVYTi6jt+QQMTYfbX44wpsvdf+4ycKhLyuEZv3E59quDJXTffpFR/aUqf/w6ZFb9GCNUwxm1glV5C4otkzg3stczoS8Ol5VMUj26/vbuHz//PKGaGNXw03KWtudx6KcDJjgNTVkDK6GQripiP+/i64x6ZenEa6iETvTn26DWzxi161aZYcv3YbhzytjUVD2mhi+ILPT1iRu6gNn9dzr/Bky3wspEQr3x+tzxgB5d+lZFaYa2w6ZYUkIlZ+r+8EslvI5Xy/6LmlC5V8oYNf35NqT1EztUk0qNuuMMTtDoxJZItIefMaNWPKdzy3C6LWd8/N4ToWqEf5Iz6oEx5jPNLVeUoqa/7GhSAIRXA2+fCkYlqPSvRX6RmGZg4hw1FVPraPO0adlXoGpOek35zTJ1Mw8/mZvhemSqBemUU+hcKPR/E6ZbAjAlQnUcqhbFcyqXWgJEBE9Ewgo68Ut3zzZAMgufL83n+fVS3RQV+wFJ/+8jzVO0P6q6cZ+tjjzBqBMdMemz8JmJrYo20yQ8/BSmVUvfL5RQKqt+fpqiMT2PkrD2ksMqlKMNKUeR7hSYptjPV0hIRvUXFVGBNKAwxwYkV0VO/Rgq+UlDSkeo7OmfW3HGjpVUrkEYRqJ42RlUBKlGp/Tp03z8zRNUjDpkJsV0mXV9K13RmYSdLKDoNwFP6XmxZtcXruxc1oBClX5AwD1e+BjJUDVdXzHyKQa+YYwiiNYG9jBkFaxaKvGzUei53DB9/sLvy+OvnuVuoMCqDmFQgzFqDYiTipb0qKSFapUjfEWYXoVXFOwJtwZEt2Gg7H+TLf7ikjPzoiVanC2ryKb4fAk/r2NsVeIvEuqx5+7xl4+3Raiiqp109IFpT0lm5VTrClAVLhRFnGrdhhhToYLGqLRLFSHbC1RrZAnFZkv4EgkzzqeTYRP6jbFneewZr+RTyn1lM88szzj8TdRfjo/903f8NxWQKhYo0SCVR2qTKKUQ6rPul8cgruNOGs4zWgNn1LBytD4/+YGSv1E+cbPJOUu0tnS/ujASh3t8/tHottNWFfXXdJqh+k2q5Di8nrXiSh8PR0G0BDgpozr9P3dnm/cKHj5/UWbKGRX39mPZH/JX7532PlN7I9WSsj+y+2bZJOX9+lJT2oLCZdRc7pq2JvTvfwPQBcF0OUg17+oGVa/XGZXxrav8LdLvp1WUl9X9uYgv9NHAo30gCSkF6/H2PtTlL+SjoNn3RidKJ6VT2t4XyS4/xk+gyadNTepP6DTikzNqJFVxTE5lVScsJ9gl7Rhc9UfdZebFtMlljBpQsURKfAzRdQSo5WUnyjzp6bPP/bmpaOcLPlVH9mt1fh6V//VArzPqsn1/3/8fl6Ba0ppsCY6utj3kfskq81Zxv6ICnxb5NF0NlFM/ugi1Mlxq+PXH4YU8Ru44q+ITAZNd2Yk/q3X3S5Mmbvchr39VQiGoLvHV7/f1CFVQFQGSuRq79hO7uhZCcezXYemvINGgM2qQ5ikFsm/9TanScQh+T7eTUCfdGi2wKnZIMOOpvLFT8knNNT/f74d9EvAXHvwXVFPVoOpyq0lPUl0vocYZv1U5s/uqpM9gWmJUSqWYVHv0qQ/tDhQYJR2F8Zb+JM9AMmQaxbrHsEkPQ9HJqLmuRpGFI/PyyyhdEEaXGO8xoz4/7dV/m1Vd4k7HwNpJqSas102XhJW1m3DgXzkkJVYDywE6xqYKONUq/FMnICfeL2W2k4msOcnNfO7k1/h01hbxzwUPyv0PlChaTy2ZTPOnRzD7sSsDAI2WlRABekJ+mti8+6IY5c8nppJRA2mQinSUVlPxrZdQ6UVyNSHtbelPjEonNmMyTVXdVD0Emfi0ZEOpMeoe9sOvV/kL/o4B9LEsiWTXHLnqGgAp7ZGBpQ+vxp4/BFkO+dxtGsQ8tETpKUZ9M3rNL9dImHNhXx6ANNomCdF7Mtpxcihu6JsLw9DHAhLwf6dJpfi/FGjVRzNa9llCG62dqSka27hyt5lsQclO/o5HhlWB3D596h3kBT05YTqE0oms22/79ZmwXzpSWhuOqhDqMafpf7d8ohxKYEm+OL79Z2PEgqawWiuyGjdrg3q57NWhfApW/LKCx/95u7alxpUYeAKeiVNmcA0u/v9XzxLHtlpqzcUJJLshgX1iu1rq1i3Pzo/e65NSetGuQmRvMd/0RDMKZZd0WUaK5dPBtfmv7nKJFajpLxPTQ0OhMwUgRaSmCbYi1HVVB6EeI/C31+3jy6x/r6Dvj284auq9NsvPzuqpDXzdY1ABGbXSD01jvK7tI07Bj6rz6R/I/WRrT2kBdG4s+/gWcGpK39Pxmy5bAB99QV/Oa06vhKfSTTM19LNV+VRf5Zo/dUHPyaKxOzkNtkuqsMocZqCMgqrUo6ZpYs3SdrH5X7pRiyrpg1GV4D1w6nKVPNFUA/hoifkg0V6VoWa08VVvFAv0WXWiIIqrRupb0GUne9ikBabBtp+E4jbzYDlVQtXyqdnUZxiVFKNWZXz9Gy5NrJ+PgjLhdx+cukb/I1VtgWodqxEm4PMrKvmZrebxubT2bGLU90FXnZ5rhcaSfoz+RtOIU8/RBn/Vj2JxalpQrtSWmv7QNE0A03QUTXVKSig1rZy6BzGxBWzoNU0x4h+4v71C3+shPS8bxU7UWkrwWTH7a4w6nCzpk+Jo1LIp0jqU83B3SF+ngoqafplPEyoosJ80Ohm3Aq9unColVWyg1bLUl4vvpmco1Cvt53kuZaeOb3qQ6fomV83+zjt6Bb9U26VkramagwpOrTQaerX5aVHrH0j9w15oxagJvank5AEHTpd0jbgl6fwjIqM+3k7Pp6bZtJlyxix7VBtO8/6maKReBrN918r9nkG9xh18glEBnD67DhPr65vg+J4umd67NdOvAjSpPhPhRGH0Z1JfIfX+OqmrxkNlCqCPUePwquK+zlE9Ji1hVDDqz/OtaParg1BPMWrwnCjbIBVYDaqg+gfinpZOl3/8iX+KVinBrWebKh59wDTtimoAVVVqAWjITkWOuvWl9K+K1F6UYdRWhKpEIB9f30velDqx19UXHXArT4i1VtPgSimaAYTCIF/51O6xsvn7121TAU+ojSZVjnIwqn64+am4gaYXrJG8PnLdW28lnw6XZnOFpy0nBS69//mBaJ1RVcPJiR6+4Lv61N/3ERmp6hcD/Fdbz+f26cdh9H/+dtRPWjvRgG8QigF/s6fun5bPqPck9YX/6DDq+m46KabUrqjspqZtnHqE/e1LiVHfS4XTdkKtH38kF/Zsm2lJ8PMjJw5at0Xjv4TTRMqltrJfFE5IqRtKtxRghko03vLsIFTDqCtou4CJVIrFfe7vV3NTIfMVZi+lyM+otP1SaVlD2csQUL6PtXhPK1LYhnJ1Tu6tfJr/wpJaoGG/KvBN3BdZ6oNVlxxsx3q9A1Anp5ZS7197c1S7IjK3pKht+emB25Lj/xbPHSaHRaa1mI+lJw1PXXziXVPc5nej/9b7fn09PhOBqq6LtnHpcggoo6eWW7A17MGuri0npzRJjcXaVHbvQnBG7UfoEeiziP25PDV1EaPQQ3fYL67d9W+WeYLf59NId/W5fLrr/el3+ZQy6lpzasJpSiLqA0z//b0G08AmpXuTdRpJqhq92lQ2Bn/mlXynJtVCodI43XlUYPVSkFLDGScK10OH6hIJvSZa6/1KgjpQmBb59N7//v0bmWmy75XAX4zeZ3apfGsfy/cQojJU9cGPA67w1mHU42jYtXXNCavkI6N2UalA6gZQ/KE7jPLe3HHC/Ki2c7oNfaYlsI7GQcUaP+tC2Qh1/gOxL4kVS6S+JaWlPmSo2zsjqGQz5gDmqvCuSoy6P6caSsE0xVURtoLflZIaA/VAbKmGeulfGRX0hdLK6l276IxE/jKhxsluknbPRg1Hgnr7HV/fxHsc02MWlHWj9vciS0W4SkEF42pIkNjH5zMqHGGq7zHPDYx6jk+PlzlDvlpg1LdzfhRI/dqlsmggKpFZROi48mmYyCbpwrGT9ebd6xPUZOad0yL/pL0l2on5IJmWpFBKHtcQ9GTloEqqjFEZpUY4GJq5elILoq1Vek46gRe1+vuztqi2x1tBSnV1RkHjScPlkuh7T20NU3vgJ3v5GZ8+GPV1DmqSFX1inyZaiko1nx8Uv0pP93chBjIRBD0mOkeNllJlahuZ7KfHysTOXborsr3LVCFWwjQf6eoK1/+eA2okiyKr2/ahjy8yXz+24DU6OL0Wzpm+3EHF0j22RBda9nn5iZPpokP/v8cskbp3U8VoLoDpXMBhVCX7sz2fR5bsP2GXIkzhsxD/B6M6NdT38+vNWu9CeElpFZ73sP/zJIHfGKmmXeplDqppOVnUypNUrZYuiFBtShUi/7/HTXGqTgFaGNVw6gpUbxUPLODLzKNqzUmzivtlRl3/vp0m1GDnnxt2RQIYY7MNRQA7mdbTa+Wg6T1Bjem1plRiLdANPAoqHzpPEJ8eVo85CdixMOwZgPRXGaPSRfeDf/8xMy+1Lz/NaswUq6WAYWMAUKCGfjYNzZ0nZDwf6/qxIKDGsBJqGOM0kW0olE/hBFN+QWKaaKl0UW37vluKoFyStaBKZCqCf9BVQ/CdBmNXYV+KCf1x+FCLIvWBMmXpd0HVqHwp+BViJaeuj/eTkT9g137tOgQ5XnaSS8f1JZpr5sVLfNtB8Fcp/sRqpQn7oysoVRS6EKVfBOstBLMWkYwLKc0fXZTe30zZbzy1A1C5197nuWmGpAAt1F1rvXVG/sCKUIxQbT0/mpE8U4GKRXju78d7U//Ej0fRfv6dUNOvVUxNOlruPUkpWbSmRjr9eXxj7B/Q9o/QEs3EfrSifw/92WomIbDMEvOmqK+wh6x6KPzMGJW3T731tu7HWLn0DNNQBJCxzqGA0kPxq8LplV462W7Zfzxr9SezIepQ+gltqbIVBQAFQ5/RKYftkoM2qeDK/IA7bQeNTmaj3pv8M6uY5ll1Rp1U+qZmqlumZmTW/cN7S+QPZvNuaC2RalufrjupFEql2n9g1Yoof9xUHGOaXlDR5+t4TIW0Nq6XVMtpH52ugynhWCynWlSwqBoxRY025O/v1RCp7YEuD+25bKqbTZXcx6iPP5q9HPVSWA6Nd3Tb+qC1eorFwj4B6QjZ6bj3ouC2Pr8Rdb+qHOfnQWoYFfacLWR7hHbyF3whrlQjaD+Dif62qVrClIh9nQrc9DEd3L8/99ummaj8bPr6BKMSAFNGfXPOktprz2QfH3GjIs8/Y5eOGoFRg2OZWovqYxBC6tUWKlklkVwNJdGKzdBLcoqmVWq9rb9i5f3vWWqBPfkNxn+Pm9pxYtfuNk7oNYR7HesNo0q0XsqRP5DuKNRRoaGmH+g+ngbJP+oPK1ZZZb/Mp/fAHz+fotNkik8LG9krjD1rcl3aw3xBTwXqJg6i+c/xTNXP7//+qruh4czzPJ9wTonYt8FezaKYB2lIvdi1e2L9XvD6o9zo7wKy0H8yQnI6AqP+WFOYml7d81EiQX1u+3nijJrMwH7yy6RKMkmpv3Rr/vT185K3SjQ3qIxass9BrRW9YUVfC/x8IugTsT+TiWhCpjIHuJDNaMaI0jlAKTP1NvTotujY6pji23Hbi6IXTVT59ERNKvntpItNSrl+EuRpB03cjHRpQOm9OeVYLcNY1UR78wlvMa0dqVldgsz9bpRJOmeHLGf6aW5g1Hcj7RsOP5L2qMh9/Xgy3IuXAVf2KHcK89NJXK+7PWtK2XXmxSIUavzF1J2WTpFvsPq1UmrAustg+/5Kkf+RI2xG7McW4enUaGe1lDCqB2RX/7s56kUsNtH3H0NsqJGqzTytayQaiHUP/MTmv5Yapn6gGnsJNdmQz818T+JrdQ+EaoG7dEB0p9Sv/Vetu6n2THVgcV+9EfUCtZVnPtG2r3acza6Uh2/MHplyRn0Lzq7I1sZ9PF0G5lNVQ+3FfCzr48tg89KrE/XhVH0+WyIVIgqWSqSltpNHjegrfd9vnH49ELpCFbNU5XUPkVefjIhS0B7ogsh8qvkk8w/MYq0/Ljzyq569hnvPTtO+xWYMJ8l0hW68EkblOmqSh2zPdU1ZRlXVqKZ5UjFSsmjVtJwJ+huj/vsCa4+RUlnlX+cA5rjtrBpQuur5ZPi5zKhz4VOZUS/oQYVSGSr4/v6JhpPRGKcjodR1c18hM5Ujp+J+XbydLOGTMlNt4tlt5MMZvScAuhLqnWDz/t9A1VSMg+XUuLPpoHoFYiQ3Hhv3Rs1u/Wkm7XtzI5N6jBqwx7S1VsohDPtMS0pqpMHf5qdr15Tc0V/afT6JQ7bthJrMBLQ3tuf0nehRKFbS71dSXzL8yw8Bd8si7JRZpTLTIcrbTOs/rk6WtLftg07y2vdy2QfwgPpOu6AbKvqFPr52dh11H7962WtSk9p8fmWN0sKZOkGoRtiTe6XFSr6Z2FtOS/yvg0WBUO/fuIUgqYLeVmKSSi1o3pB7crJkpm4pVJ5MtfQZRn1XM6T8wI6ukPK4H9rdUlnXH5Wg2skUCLXS2nfkpw9C/WyFKHTuaXNftZx4eSldHEXk09IM0i9AK3zvW9/mUKNUpPCvj9tKSOeOgr5RTzPxolQD38mHzlEHckmXu/re0hPTq19190evsi9TU02o01TKUAdpTN23fneYpcmzSutrTQGfS5Ia6gxIlbv/daSpjwT1/vU2BiKoIPk0GapaKCqWirfu2udbeVoZ9cSDmFMhepsknDlovjsqdigoEd13RpWU+vjBcDXHTgheP2RJ6s6nLYRqBD2u3edQ9ebz2VKe5ayCApB+HTB9kOunXILoBH+lo9RGUZmj5gKb+t/PXj2/P0e1j5sN/e8qM626payNLzS2nYy6AHXUSw2Vjkcb6lRZ0H+cOjsk/3BKRyU6mi/2SRRwCuL+bOvJF2amB1QRqYMo+hlKHfTsn7wS7qh+czjPd0pzzs44lDMAdTb4X5Q5FaKzMxIOQKCUj8+Mk47UlAIq3cE6XO0GtKsB7LCpqf1ubcwtqWli+/iYpV8jU+XwnwOsUE7SjZI43d7mgP8RZIhKUis5vywAnD2d7+/kpfMl2VNQ8ytyVLcxSl569hwnVTONDeCUOmkUumo0ycCWoQKlFo5IHU2oxeppImhNui86qYpUfcDER+TSmZ5KN+oL/orn4zfHKlRW/0tWNVsB1vap0sZ9nWT6KmrWc6Ynw/7652LLUqEt2sdSLSq2Bv4RTSklo/AZp3onCnb1Px5TzYZK/pHytCwtK3ih6KQLUr0G/xea+0Cp7HnD2B/YwVp1JgQnVsRV29Zle7NHp9n58gxcNaNetsihlvMUjpT32qXoOSFCdYqqn24R6qp7+h8w3Qh1bktQk1uGqldK5Vipkvb9QT8R2tTp6bf48Txi8LecOpA9FcbE8hjVWwxNCFUuis7ZDuydUFFMTF2400/7TCNdXR47E1Mt80uMGkHj+/tRRLf0I0Utq/y0SEa1g1DFBj6xPYoshzZhf+mAqTH7Ebfyg1w9Y5A6qFv2aloV04Hh9j9r19qdOg4DD21s7AvenDjt//+rWyBxNHr4EQhcCHT3S6sz1oxGUn93/mwlp7MiS52N0v39AuJUdZee54mqkYz6KpQ6Bp2YlApE5YBaGdtDvCj3YkJ9AGo0ZX1jahTvLVl7dpesehK6Dtf1M0Tm312mJEo7/3N0ocb8ZdRK3l9Yv5mWMmWfzzzREfXNK6qs/9u3qvi4TZePMx21oARO8zmIwo0AVAtSJ6ZNVURUnHDCqX711GfNemtK5sSzQeqk1ErZi4DXX0eneRlp6sSLVWCw2r+MLe+e7M/7LKJGiM/yFQ3Uiw2nMjTPFkpJ7LGhUkZm+vcIT22qyyrNw5SJqIlZ9LlnX1NNG/4oY+L+aA8UjU1EVARTLVJz8sHx01+rUOFCJoaoW2VKF0/1c35WmNP8ESjdyX55+eZcqnfYthQAACAASURBVKrw0107vQQ/aEXSHpLPClU3gah6JlAq/LfGya979u3TXvB7YFHvtJXwAlTimukRkdng/YFBqjZDRbhVIUfd7qKimC4V38mscKY3qlBqxEYcQPFV8+0REeoYvutH6qVBGk0ZoAYbUSWgmsPPEU/pyZ9w3ImiofYaTflg05UzpjW9ZztBRT+jyi/wNKff8vukfzBjIIXgVRRtF1Xgr4mms4mo8+mMNIoc4JumqLVp+xVNyvcVnoimzzh+NU5DINVT3tF/FYtOmR/FF7VfbC1hBArxtDl5d2VBqSSk/TCbMSNF8sRikn7I+1v2AacnGMK/mgzAAhzhN7FJPi/pv1V7iuzEL1gaX2/fPEW1pP0TQ04CG21G+ZKetcoo3d98D+dXAfWmDo5SLVFysEljSjQ365/o1bP4U1YqUEkJ2+09BvLr1k9/6pJm1SlSCuAm/HlebB+fNYX3Iwe+OR/14oxB5keZf3SOucLzJeFXctKAcfoA1GtPhjptNf7bJk3tan9STCcr31BWsUU3HVInmH4GlVSt6Js8f38riJrmAH8Ws9efJqWTqFd5rPUvizrmhHU5S57/hrIfWeV0B1QSqF+qXV/ONzsRnUFY9o+JZ5og9XovBz8Z39fi/ILyH3X+tIoglPP2NUTVOf6b03i4tp95r4l+3HNWVUL11yGkejnl13vh658k1eJTzK0RUtRc+llEjcuixO0xyPe7uhjCj6wtCYLrB46mrn7eUzQt2tRNmYMuWqSgevr4A6wKoibp509r3SDFDHwIn+uwso/WvcyOfPk5S+KfM0lV0y0oM768Eamsl19HVKiWGq4TOVHyE2pUPGI07h++qDjFmZM/vwOKjTUDi6mQ+M1ILfEqO/lUF+oNw5SIU0LS12qkdpFU30nOIrSX6mduL+Ucv1KD2mOUn/0ZktQdU53zJqgaK++UbTq8JCWG7s1vFUpjU/d//EdfMkVVJ0hJydT3V/WZab9LO6Vx+prio46ZxNppaZK673HqZtYBBVZTrPU3ydPHxvBhhtpMSVmw7jF6xOnfFzM9xLwVqpPafoKBKjz7mH6y0Waf00uR5ZMEFRH1i7dF8akRfYppEH16ARJVtVSKqBpkvLJhKKYbRQKqT8qaPStPNetPirZPUHRUNM1o32cMvxqjJTWlUfsK2BAcR1RnaFQVRJ0WQ9SnY3o+4NyLHExjFU9JjvrNjnt/bq6J3qjfVSaF1JRQqbCJqNcqizpO/htsA0srm8fD6L2p9XP8XMFjao6OWntgNBNEzamhQh0RCqlpidHtxrsgEdV5fRclbZrCn+u7yaWO/2HyFPeIREAt6er1ixf6sQbFzns/IqKyCqkeqnpqemhTz08T7+aXSyWeWj+6+56AeuV+Pjjy20ZouQxqZMWOXsxnFpSG44SGKaNRhE09lFTw+B6Zmy33K9ddbdSjkPpuViriE0MVEPV4Rsal9NUlo0ZTtW2vBqkgmVINNWyAem0ORjnqUUdL3x+cLFzuVwhUc0spzOIT7tJ1UIs6IlTzRbVOfhVRH/dLCMxU4U3L32RuD7/qe8vYZt3znXrRIFBQjYolQpVOFM8mRXpJmnxfgGLjcx930sh+ABG10ckPoUoQ9T+2UrfDsi8GRmnF/ME9e5k1mGSrpN+QTRMJUkL+H7e/gYepk8tCmtdV8fDRg5/H6/wmplLo3E99+TMSqF+qM8rYW9azV5cNjgo1eV/G6Z6zPi8xr1/H01vZy1sA1TvG95Oyaq8+J1Kbb3Ze8ccGaM1lYqAoQGgCLN2vraCHiGqV/C1EjYtse15ao03PRqiOrwJRn2+ES1XTT99aqyfDUgyOCh3qPny55au8P0qbh8ZGTuyAeqM9etiUv1YW7YiyaMJdO2PD9qm11FTzzUqplq0S/fS4piD+ZsOI6qLYWgLJKeuHnt8i+iqosucWz/FCuZSIyy7iFJzcDAFP6Y9STCcBKqYhEET11jbeqzSj3EiY/j3dzWjOXytSFNNNV+WMP42ninXPTkyLoi9TUrwtbCqgllrMKZ3B6nY7qj6AZ8bN5PObNCpC7EagU6LWf6FcykRO3z3SVKdOdTSFur6jIfr6wYQs36hK3Q9p6iifPidPiEHma+fw3VV0QK21BREWmKJb3+7XUyv8FFqpekrid7+WoEGqUfW3ltwuIjPlcv9nyk9RUnuaqoovvw8u1d+nZ9j0Td20xqAcqlE0QT04f3smmjz5n8z2VZeSO0pb3j1lNdk6jKZZyFIKgNp0n2Jn4plpUpB1DiE4DqmdYVpC1SxJze/L/BFwMwKMGsSqPL8PLsUWl/jGxJMgtkBK3TSYRz4GJDn/kUa5Ik5VlKm7Jk49Z9d499+6drU/6ePMtV6osfnQOUmhtG7dS7z0RBGVZqaCT/2yYQktPqUtvpvq+/POyVG88oT2/bjwHDXyeP17fBfr1AivD46rUXz0SY8eZXilyrXdT7JZyjJM3yd6PQrdqTdO+ZDIVZ/E0yueZjFDik3hax/66OCXlSiF9gdeRnVk7VIzTB//2X3RekyX2l6TwXM/In4q/IkGaHl+6VzKjUZrbX5EQz0Flh8C4/wu3Fre/glE1Dsgah+WJtn+nIzR5kMaVE52F1RT1j8iFc2ndqj6EBwT/XvitCQHd7cVpj5RG40Vyh9RoeI8X8ApKfVfnDRIVz0nbFAkH8HXilBD4FcAVXaf6mMm79iC8orT29rdp4ebyU1Nfx30RWEXVJvlg7ivBmSyADXfgqBTdHxo8/B3z8KUzE9PS/tRxVPrmLejlZT6fQeBCrW9z2ZeKqV91mRyhCTD07A1S3V0n8qa1JNNuWtz2D5uJzd2kq4j+0khKlUS1chQWRrKv7SvGGAqYq17Su4Se1UArrKrdNFqp2fwNNJZUlHXqdijvF3L6vPRGFVH7zY6SmmHiQvcG80Adf9Qx9P7XpS6KYDqXawue5ZTTXt6S7tcfNmca6pXSUkwJjVm61iai5CqlGpakEoxNy4Khs4fSwC4N+pQ9HU4LbcXwqV63NBBlEj5bggrTIMTriiHBVORoZayVBNPy8FfmqS3AurS1KTkoOg3Z0ioeWnu6dRLMhJTNjMA5ZqLisJMVN4QqV7f3N0xDp8X9E8Ha8RZfBERldaddEQtz9fLRZD+nsU6NY0/mCY+p6ilAKSOQmqhVi3Gvwcpsv6NS83m5F0rTAFZV70pujrYDMqkfZ160Pisaamd1yz8UyxJdSqe/j2mPWx5W+mnZ51J3wlJV6NG91+PC9SlfIfThHXjm+4oTY4SNyw/leEa9rJUX4ZK1f7nROLZ3Pusn/xnFpTaQ3k6ukoS+KHk8U6LUM24/T0QVU6jYGHq6O6bwv3vWnH0rbGRTIhSnHxw3GuISmXUS18lX2dSjSZ9IUQ5mQDYiKpUpK5CQr3BtKnDjOr+s1r1xFTT9fTcXTEwKtnVJ/vQT6hFgfm09/r9F6QhmAy6pVuYC4dyE0kN7m+YTaMepcRbIpx8TIlCJgUfvoFLDamnQTZD1YOU8ycdRYFPceeUufSUU6mNxLpWM+maNKK/vgGkEJl1uZTZoawcdSBW/x22lCB9VE7LUB3Z1OTd9aPDTpDgx0V4o1WmLxh/PBD1q8dx4owBPe1+UlmH4soURiv50qsLJC0RlYr9D0QNv9bYKD6Adz1x2mdlv05OSdldktsNe1zoH81Pc/7JOWhJKk67Z94/SFzd0zv1KXqvmfU0/371sd98dXCp4MSGUoKjPYe+ofJLms/QlNZPtev+KkqJHpTSBezMSr7kR+9M3bdP/Tp1EhY+LT1NfUH6eH392pyTPSkqk3qd+lsIP2N42L8XRf/TwkRSQFRA0q3mFNuPuLRIf9D27QDXN2MUbPtO6PySNkkldTf3V1ZL3CThLyrq3y//Fxfpbo7pxJqgVhmmA56T7tKoFEhTJm36CTPU/iP/p7zuyZVTwxQX3WGkctL/NsPH9BRitfTr9eHp4+VqcqlgrNdjbfraLL7jJ6JTXxz3VUTtSFGnMnRiooPRthzVeVrNF5X89B7NT62tED2desk86sfP/vzjCqJyPuXgtC8rRGGf6Iv0v2PhYy0mkY2VYHXTniM/MnWqA0YhJw09eSn5B7EaLEIlL3/rlaZuCKibPMWOfCzsr9rgqHXklE98LURh8DuPt6IzKwr/cGb6Q14ejw1RDd+7F4CKa8T3Sv/7tmjG85E2HappbOHpgakXUekPasU0sChV1uwaPSZmI1SwhNOBQCXS1DSRVdLb3Jq/vw20kq6yS+9cNSrjnH0xZr/Fm6RHKkF5P42F6U/5xm+/UKeZqGBzKA3Xnfi7gUCNSohi0ZMze/q/xCqRKlF6vO8y6sAo3gqi1mZJQI5aO/IdS1H7EPWuI6qHVlK+BXI1xpmP+UxT23CiDOJLGJ6jp/0P//R6eulKoTV/oqW6oypFulXGl5ZEpo5GTq20JpM2eYL3eMiojXWlfMOOa3ZCIdkXpmhnh2boDNTd1n+4+24QpK9VmZlNj1Lz0nFVSq6Capqj2AAJ5o1KpxJTCqc/myF1P/xVRsWPejKhwu32/u4h+9Hog4oLU55681IIThKlsYzy+4ZuZ9ZSaizZqRb1RVUfm/ctQHWjXApZ/31CeWo7+un0vbXSqd934Oekq6cdeJrlPL50nj79kNP/Z/vk/xUNUElUeb3fcVydBgr2cAv2Ut1gunSCKTKp3eSnyahBXRFRsZoGK0ih+9n1JaVDXEq1921+lO3oTxCj64nBZokZ92CrboYZPTUpiqlSecgWZR/7P5RO5cJenXb+4257QNTXt9f+hY8YrFwv1a3QzVCNjO6XJ1OnAiP4Crz2xyn8I5NPHMJnPWKn5jLJ2z6x/zD4EdLvfrE5X9lUso7pT7CKdIPZpriPIYozzkYI1MGagPAfL+6f4kphTX6Io1BBjV0denIiZN1d2h+nJFwxUos6FYJwQ4deFUo1nfJKaZAhGjpwdTqhTJH1yc5VuvHW/1m7FuVEdh3IyR2DbWY2NY75/1+9wDysR8tjD0AqIdRW7W6iakmtVms6mfPV/Ol4QiqEpdNpppTAaV4bKPqq+HWBgT/EURKr7tqv2FOhaiHqcYxSASp7h9ikeC049U2VKd6D0oQUkUK7nuR/IJa+o62+cuX7+a996KZfDaJOHdMV+ApTP+/uJ2EU3dc/ZdxC7eD6fpF99Ebfv11JofSUY4QVLlHlYVJhEBlmpOUDWBo66lMZpsV94soFJpSCalNDA+EpLQBaAbR/LjUOsEQdtrYftPXt9tCJDUmTcjcTRiaty3rT0dbzYbQSjj+zV5E4IDqvhlNE78eidX3eGjafpCfPLG13IZYeq6RoWIpvng/GTnmHj5i05nyGlsZ2ieuLV9dw8HxVTTF1/05P+X98JtWOpOngmC4/DGETUhM2OOng9WXC32NTvvNE1Oi9yaTSNT+OqNszdFwmpYMnTZJKQFVaU01GzUaMBqKd+vH66lNLrteaKO10ekDon2v6x5oe5UqJ1H9/tmNUext1YL2DJqWShcKGEl2T0pxKlpeIulBUj1iQAZGpXELtFqq5PA9YU9nxByk0DbPegWrkoUCdSpqrwLRTHjqcmvee9e6T3t2TiNqb+4djRN30KFu4Xhnh738VG9UcoXzlOZEuv0VeynP9ecFJBm/k8qUE8OvrI8by03ewTqWN/pUs9R2zqDwsAyep2FS0dwwFKgD2oJt9CFF9O2MqNSekYeouTGGg3nCQDtp2YpX3r93U3H1lL9lxm9ou7GitKdh/njqJ/RKfLFT5p99IOlaNPjDjl9r1NgNCX8ajRtIgBftNaKqq0VWkgqQqgWuntOQU4iioS8VivpMmZ1h5evSI9aZ/IPfPRt7zF0R1QdtH/XVwUvae85EmWt3YOz19wiNTUqvumT/9xv1nbo5R3ZbymT61WqIGKTnReyRyCbpRvC8oqf2lQNSy2efl4ee2eT4vSDmiWrHYGKMmOzUyfb9WTJde6h2of316/cSzvHizasejTaIsAd/UMSAl2JkTDU4KpdtbgSCqM4eoTvGn79eDFu1xjSnz2+Wa/iCEpgeQKutQAanyj4oVVA9vRXg8kQI70EzG55hkv68EiNtn1yTwUz7TO6Y+/y/3njBNptFZsi5DWA58UxJXyz4alGaEqCV889ZXhRgJovpKkbp+EDwtoukAiCjptk/3SPS4P4RWTbQUoYSAEHXznRpUMLaoo4TJKZro9z1iwdLYSKMu4ikLUV+/iL/PxKY9C/pJeENLEG3v97NQ75WQ5Oia6fvP5z2yqQo0S1U3RDe+P4BZvk76Un3Caf42hl8MScnQVEb5+tjNpr19G7Ix82s/8zOkFAnVA0nKgqjjJkUdqcaP8P3Otw1MkzTh0w68dX8z7lieTlP6iVNQ6K1MaoFMw/UlnoplpwKl/6t8kgt4yHFXGEVpFd+MfcyrCR+Q/BRRBZqSAeqPw+bQUIOiWihmvS/b/g5cjTJc49b038TpE3KfF7T8vEb1qbfjF4CapsaFUr2kx40je/f0WGnKS1EanjROH/sPns4VUTclYrVk/jCrjSftdaKk+siBF+8+rcHH234jZvew3QPV62NQzrxNrhoo7hcpvE3PpP8jGnXYFqUHq+kniPqv0+xE3Yg4vPuszpSCsPyClo9CKcj6r5B9+IVH9WQZ1dcwVc5Pg96CBlGqDXmw00lVFC0GURt8whc/JVBZTdqm5HOcKHVq5bmre9o/6MsjamoU2/yyRH0x/vNf2zifD/DBLd3alFRi52RcgWzt89nkiRanLOnTP/H+9BsZomIvJpj998xPyk0+JIXrUMCTr0JCgSmpLAh4FbCF68/O93sl6lPkP16EAqzpFx+mBJUE7MjW+higvhE1NHP7Sd+DanDaFzrT81tQoofKCW5F0djMMlJ/Y/Qk+3vjsJ0IUbcrpwLYKgmzSPoBLOibO/qwixL06fHjQgdTmIZCmn1H6SfZP7kzPX/krdReoxpRynmpPe2PCFFf/FTzzUfjps6RRTSykOoV72cp2hNRqSKVfLd/hEij1AsDRgtR2f5p4Fa7skS1pSdybg/V0ErGBzhT3VWRm30Hc1O8sFfxN+vN+qo6bWGnRrzOz2b97iWdbtjRU+efReLH+0/8IsRkHyltbaA0pOZany8+1qa//JbaEHV5BnMVaoNLvhMlR6X1Zp/HYalLAWcazEn/5T9gXw7dd+S5EocteP25Rl9CanQGng7MZ3KUwyleo7pHhSmVfvttF8n1XilS7E+neH020gek/t7mZxWv+eEiQw8H9vstRB2RUfQeglBkUmOjglT2oRaqTKRmo5XiJeqOqNVtUn1Zr3/3uRavUb/l9HoUE/ejNZQi719vZL/0Uw2ifbnCVyH5qdSUmu9P4uROe+rPTAyltqCX8NRslHjjpZ2Knu1ZuINeivT8YVbm+loJLYh9ZL4LxSdIuB94jTqbiEoC1Vf8TaC1mRTuuTNlaQTRWd5+Iuq1ZuFXJqfqUC8nUsMfBlPmGckl0Gwpz1goTWAd/9SolGV/PuHPDGONfmrD05xZL2VpUo0SFV7YCSoY1Vu6X8LTUd7rsxida3mf9lLvRRRhwWeYQyOPs09bfRWy+3jqarX6rEStTVBf/7N7xc+Mz6N09q/6RU68c+pVnahkzxCVZX2ij8qgQN0YgBCjCtPGXmowLpbw1aigr+xWB1BAz0ckfQpQDQrgvwuZoFqIKuQn2j3iVJdfYjHCCoAg6gBaflakMhc/zk69k7+/HjCobBlKgKjF7APDqB4zUyyFFjWq6JxKkbqHa6YFa17dJ+h6Ory8hAE1cMf97Qu/AcGNTyoD0plKTGDa18yUyVT9jwQqEO0L0hSuPRtm5ieK0yjeiHgwNdBP2Bd1uHJ6yvuHuq6TlITPKEnr5tBTOh+cmjDV28+SgyqhSVjUNe0vK6iRDa8houJQRdISoZIuMdpiZw4RNdABakOIihL1It3NLC8+IIXu7vajUp7w8IykRh0A0b9G6UiN0fT8dCiI6vysT0AJdalu/Su1qQjS83NSQZgmqN1XzVNBUZr1RYlaQ1QQqa+eP8x6WA+czIMZqgZxytK7xfDPLXT/5cIx1EDUr8+eVMiyMjUSRN12o15l6d5KrZgK7Cd4M+X83bxTmiatkLK1UQJLJ9n9n3I2zcD9JMNRfgHTlDMD1ryXqJFiiXPeWO/HrVRAK3xIsw9aKNVIIZIKxORsclKgRL3w/RI8hmLjqJOrepIqpWgat/iMpQwYRCM10Lw/Lqcl7gxSRYm6IKoDQr4k9vQLvFaO6ulsP33U4uMFfdTds2I0lViloZqvUS2oN477R8A6hUrrxBBVLIyyoRPvkVonpmag8ou6TLpnXXw+j6JQyr+DaAHUKGtUGqas4zcR1ZUiNbErpUmUptRI4gBRoXvEdAZLaUHKRqapwpXuUUkQ9bF89yA/QspO8Vi9IqnfaHud4KdO9DOi82e+WwIR9fDxY6V+D4ykhKTPnSD7lTYqomF/3IrUuCLqiGvUgU6mWNN/5QL/rUjVDH8CN6H0gUdgHoWcTvujlHBSenwv+3vOme6QmjOpBV4lKi9Sm5upgNb0Di2h5RfA6DM26uTjRyKqR+Fp3ixxHy2d0FKURKZAVAqm47CJ+/YadbRU0wNhp16IOmjP3QolBTwkEt7Sn86nfL1Pqlp8CaRJ9Pk0XF/flhKVtVLAKE2A6rOVCmj61GQeAbf1pDGfDlZB/rdl/guKUrGxf87dVLVNkeb7iOKWgKrfOiaJqMNuM6mcp8RgamFS/QONTEnar0Yp4KFO1agy22PFPsj3pMenaX9H1PWTi1EdRjBkqSL5M5/oYOmhjmJVrep/B1FpoFq3yzReuq+0/VHl+g1QC7bGsonCjp4tnT/d6edhqmvU5z/4F6lNmvTQ+nzJ9IFZZFZrJikZ4Qk6fTo5zQ/a/78e/2jmd6xEhYjqyFQqCHVf22K+JZBCiPqVzH/xvH1yMFbdByEaed+kmicxTN3CllFTS726z6TWBZRBMP5XwU4t3dRd9f3lozIlTSz7n52SqoxPENVs9rMl5VNJf3tBMj/9XcIhKq9Tb7NSmB4tPeMyNWj29PNQ/akgauUmue8lVWmKlxRUlIgqXjDN1FAWUIjSbw3SkSEqG/a/IzWJnv/A50ScJ5cKlN79EoORUlv5nD9lSlMygEpZxuj7Nc/8znt6TNkQpi4m1LXVvNrFElGdqi2oryAqzfwXQe875Xriuv0iAYUPFaioRN07LNo/jVtLtW31jfK4FNpEWWQp/i31S0gvVblLjhD11D1dYGuS1BsoWGmIlkzPiP79xT8FqL6x67+F9hg1t6FUVM6WmUT746YCFUijjJb+E4qf46jGU4WvOz21xerA/VFGq0bViHqf9Nzp8MozlvKnE0GalFw/c+MoUadyAZ/M+hJMt55flqjeWSNUEq7O9fjuzdoTEqzozy3dfGOs/lxEjSoM+L2SpPRJT/RIXxSp0aCqaKTSpn8otJSk+0eW/AWirlUq3zGpEKbSxHwSt0umTkFUAgiaoVCqpHswi2JZX0Yp6PnLpoaV9be+apw7Duvo6zpQEP05eXrbvl4wojbu47tuPI3eizIUYWhkzKon3NS4l6ebHGVppcYqoq6/i+dfNpOuHyAq8jpTl0rPqE2Y9hlMTcE6qZrpI0KKlACbZjqaE1SPDqNu0bqhYG+Mkut6Ur43f4qlt/0zy/wXsA2FBPynWNP69FQRqOyT0J+OhVcddi5Vdf2aR31F6rViIlHapMlYe566vcwzPg+xZnxRk6ak5aUEShOpUiGaPh+3iFnUg2H/Aqgd18jludJT289NWCq1qBJRP8NPM3BVl39Yo75S/7CB6Ug7/hEXqCui8ihd49THR60yFUkf+Jn3W0Rru8jMpqaWLw9tn2pFKfvuvS0VAaCayX/D1VYf0wAW85BD9PydcH0H7I2TU68aFSr3z3ZOYqyPedPIo1jWp+9IHYhhX+FQ6U6/OtbLEXXntv3Lh6JuHaVbqdPKqCzvPtMLO/ZTzPNpkCYRpDJs58i0qFySYsaqW6anTTm/cmInAPu9b6Dp81teol5MoxPV+7umKOXJnWr3jhGV0lPrZhST9pXJVEn540GN+sbUZqezSR9/nHqLU3X6sSrhY2xp4lHKOalkpH5nlai+GqbrCkqjlemM90q+hKBrmN52MNUl6qWyDOXOZnsPtXsqqM28v4xQKYiWEnVTpGADClajrgnu3U6Zl3QBLXWiLhWgKeRRBxo+FoWkzwdpHoTqP1GhenOC2g6owGvPOldWORNxEku3935UoLovDPKjHJZGBakIUY3MvwTquNJR450rp+5YOSVn/Uvq90s7Za6XTF9K+ZSUyuL4c6rw+my7RLZOqRKg22PkJWpB1Iphitt3+up2UdXDeszO/Jug+kr7kpwiqd+6Tn5CE80UJoBJFUNTWAUMdwmpKz817mfPwY2pq9FP/dp3Svli/tSd9LNc18uSOM310VPKYvX5/7xd23bkuA1seySRouWMxEPv/39q3K0LcSlQ1KWne092xg9JJlspoAoFUKalip//CZwqG9Wf6VCZSTrpg6Z9dVLvDJ2+cPrxeCAxZeGzPaWlgrKfmPrfx+kvo77uoQyL3Oe7UgNJ9g+YUdt1MvUCavgqnDX9ls89nxlEJXViP4qkqW5K2X4emo3GXZim1I+q9NNAqj/VoRaegbQXTC+A1G396Uqn0pxaelSIyvaIdRrkMF8F+ChWtXhS33xnaiDUupX+Rot+kJ7qFpfmmUrl6VKQ0/+OJ8zSxGQ9OrFvpE9Eci/KtdJUx6nP873CRCWPoRYlPz5vIu6UCpfq2CLJCUp1M1J/v6JFfVwypArZfT0/LaAS/LjJaZQlkLKW/gWmsEcFw/6FUtmgn6ekdPzkzJN6Sd6PLGdOIjVJ5a+STEsXCdUXGLWKUPNyqZra0y4AQXc6DU/Hx1DbT+ev1PycUY+e+6HoMAAAIABJREFU3g/i7ElROem1KKX0ZelfclKcUedz6A1+B1V2qFn4/3yzIZR5h+/giRN9kCeJ+AmwosjUScxMK+u9TajsSloBrQ5v59Fr+5N2SO9iUVNJ5S8A6g2cGnCuj6NZcmqxUw0ZnAPpTxtS93mLujKqTE4vtf/VpUZk9H8fT53wAakQT+QdXbSmJw5IUS8KZqJrOlTAqG1rz1B/P02Pz/KgU2eMUQu9wJWi/6z4ueqr5BRg1JOGFBzbix0Tnjctlf1X6efO6Vr1SWf6peVU1/GbPrn2L5SKdp9OHYgWB3liNNeeMUC51I8VfikmVFX5W/XIJBr3O52EmnqxkQcc/emWFtXJWSlvTjGhPu7j04DbVKiZymX/+aNuDkkNvOgPdHiqIiks5re9orQM/L+U1D8s75PqTuHzZKUstDoYGXlfmo4U/plQA7Jq2pLqfwX74Ut7YBDV45vnV2FKNZRzEqcAqLfc5FHrejiEsqOfNpA+/+q+WO1vrAG/0aMS1U8oVe3nn39MN/FEnx7nG4t6SbKpCu7Xf35mmALV35abVCGa1HET8DjJPT0q0lAOfT8vAzXgFpQzamCOFYZnSVC9TqMTLh3yIXRxFF30qF0jb1B0y9A7d6mRZ/uOaqfE49DojIS2oczaLzf0D31wh+r5myh+x+vv9Su6wPCf7tgvsdx98H1ooLZXKDWwSs9Uv9GT7uX7XiQR5oj/sC3zVfDpnJ4S4SnapIa/3yK+f+VQdFJPkps2FJqHakZNhwv/cyiFNH9bvpUyW1NKHPGrUXg571pj6lA+Gn8/HhcZVSf46GEztakH8/s2YNkvMqMODSVU1qYOMuTH6z/5p/P7H9idhKfYHOGZKHHUFAxO+TUecdY0QbTWfYZRV/4NrgVGdVNvaCmxAWWYVCep1EnIOhupnztAPZbkkwk+dEzCVFASo5lQlzY1L0jRd6XI52uHUWmX+vqThen7XNkH28+JJ/iieYAniuaUb5XGMxJq20AZ0Zy/9fQhWzSTEvv4Mv8kk1O3WaQVFd8m1MepJL+Z4Auo1BfkPdRRK6MOvB/lZPolbFSp+tloahH+7c+JxEmSyShwKTqhQ9E6bAoORV/4tBCnG6OamZRevFDGhRR4Bmq6NIHShlQZpDtAPTLQD6VMNLRKq9rTDOXX78RmtE72fe2o/o72qDNS+xPP6eE5qZmIimD7SQ6f9PwpnlRSuvKTt5gMQp3UM86AUSe9TTqdpFJR7IFpKr7A7a8DasCDe8Go23pU8LApLWKUV/7XJ9/s2yQ+51axhpp71IYVf1r7w99j5mmS75RJRtW9KaZQukgSz0knZU2NGKfz31aYel34rdMmwt+frgkop7efWb9qwxQT6uOIilJRqMCAW5c2QUzqadlf/raN862jvQM0UhuwjJIHqd3p4EkqM2pMaAWKvQwhGDReA2s3BuBNtewABWJUhxOmbFw63WSbumOt6YxSp6OodUAN8l1dkOjzWNbX8amnEmpDa+iozB9Yts+M+HfinJ+k1N/if2wCxV8mF+v6hbvQaq00qQb12mdRUpBR2ehUKCpnnNlnrtQtcWhHVZRbJ1AlpK6MijR/GajgyBmXTOwO70FsEoQyE3VtBFp1umcocSrNTTeUUbv1H9r83/znu3LuxOApDppGHNoThyJh2OQOGbUWfmz2Z6xq2T+IHlRvlVxEqVONKB+TunLVd5aUOiSmgnEx0lurpDUyn3AoEVS/n1Ze7N3OopG3egf5tnTXoOx0llMvM/WQghKvQBW3S+RyCff0IwignETsEFYlhVQ/K/yIUPFF01s2oFzO6DtlpO6D9Pn9UwvUIE+eBFjm9yFYKfMzOqmY8qTGb3mpoSl+QCKVzPtfrv+u8kf3oYS3X1h9BulSa0p6gVWncbWmgvemj6pHUwN/53GyZdN0yYtiI/0dGl1QmsGKK//jgHOKFL9x3bSKR70g0Q2m80+a/IokWeUjNCtVf4eMVMKoM6XOyn/nuFmCL+wl/HpuBNdMxVrUTRV/m52OAXlT5LQ9/3hR+HtGqzc2p7kjzYkT5kUZIiozqsNS6vEIFZQatBUV6DN7xb1niFKtnSCjNmKV76upYdSGO/6y+LewTU3GkbOkXf3dCF+U89F4L1TbERd+9sDk6vp7MTs1CfXiJMqJ+xErSCv8fcKoZuV/fOy7pnrJxKMr/PUNARpEbSpqM1U7VumHdQmFzvmHEqO22vOfkdrsXjBPUS9AlftT+VKZ2NhLFzJSwOq3CbXNQT/kTPXyasRde/kOhaMyX+53pxmrjwpGDUrtBzkiPQVQ5ERxmR+48//yp5gdZVin4M1e5vh3vADOxX/aeQwicvdp7yq0NPfVZbMIjkZecKYwTOWdFMWnAzhYPvXyEZOTA6gsofpKFl180xWf868tE5UxapA2VLAC0deQyjtUNp7aoOsX2U8HpgNzUiVo55lUwxi1Q4y6Daiwzmf3eJQFVRybppTQseh4X3O6NKhjHjdbET/QojL2vCdfysq+k7K/gkspoy4/+7SAGnaO8qEBKjjIUzEmZb2o5yU/sGlq2NTUF7+I8nWsRWW1f33u5flv/oN1voJq8dyJeggiikORN8JTNqjBG4y6GFT6tQnX69Mm0x0TKKewWRBOtN4jRjUJ9fHH2NULqNKrMHS1gNIZKUqfilFnNTUQPv3iPSoeoLKH0AWjLpXfZzc1UaGfwKEo+Sy5uf3EaPN2DhUh1HH738z7XUb1wuoXaamLDr8jDin93U7Btxi1IKUyULURFXxAjBoOVn86dmIdquhTxWTqCdTs768d6ldxMiVm/UhMLZQanH0xEuv7HUYFiuktcKVCyupRWxFH9WuDirTTqfrvdCI6u/xVFV8x6vLpHyWg6oPmKmRqHTY9MnuScp+tngSN1450osva6Vz9B3gmpWvW2RSbocpU6oLUXm/oJX40KpmZfe6ZRnB6N97tSGUhNYZCrp+9iEItf4HKy6dNnar5NQWfuKacUTcIfzxqGTXAwKkHCyW1koljlDerIaCiv/yuYyqKcegAxNTSoxYodWvhAvX9EwYsm+GLd0piQnci7zWhjCjKmPWnecte76C6e17SkyjdXCmXeXXfMCVc6taSv34+TaB+epEogYFTsHGyj1i2YUL3T2Thp8N+iuScSPnaMak6YqR24koqHaOuIaoZqXinFIxIbXdfpqPfitb/eeqghkpC9Uu2r7/peR3u65PBvqtQUD3V+Lzslwn18RmsvWcxfrILfh2jBpmQQhBlPatv9Ot8Q/7XATOqeYGKrduE3xL6FzxdhtCJHiyJ+MnHeHpTr+4uyhj2CVXz6XDJJ9XRKApT0ZzuT5+yg5o71e1Xf2ygPgIj0KBc/gCf2KkJ7UNGDUGNozh2yYe8eEaU/tBAmHasS4V7Uy2xUn+R6n/gID/JHjWBRyFSksnT3ddLbjCmxrBHqFTyr5BthC01XQEpy0Yx5Fa0p0Q05SbB1UgpMpoisVIl/w9F9jGj4vLugxqekh/qyNRgbvTn1T7WqJKDvvyN7CdS2x+RLkWrzhGtPkW96vzW5vTJp93KpzA2RTelOZ82FJ7TNUPfcQ9KXeIpVnxso9Jflwj1OZoKbDk/8N+DlOkOYhlrApiKCQBFLf90zdaiDqWyvzaojZhNsZ1pz5rUjFSIUHOkz+f5+Dmo90D2l0/HrSmyTFTapa7s6m57+Ek0pa5+CiVNKArg7ef98FkC6hjw/V37aZ1Qk0OV4aiwx6hC8m8BKn0bZSgxqhT+fDLlmfDfkKpPRcEIn8QrfGjnTZ9u1VHYmyLP0yPBf0lCCSwyjd9XNaeCUTmN5s9HCadPfwrtPQeZ9KtqTvWA1Ac5RRUNK9JWG1BV2R+asuRfH/BrcuHPYoorqqVPTbryG09CCOUU/wE8ad3fGlRvraDQFnXtAYp8OlVA1IHbJtI7reBSAtDeyd5015tiw/5gvVF6eA4lItBMNFUhNKupRsuo4u0pcSJVDlH5n27hVGOgD6RSBGlohNL4rrrvzcKvNlGo4L9S7+UU/0DZ144pBmgVodqMelToMwtK7EN53Yb6Mka32dSOjpLRKXkvhRxJXTIaBKtPpIafaE1MrfUncND8X/GpNTsVc/61AbgDp3zHREioIp0ajGp9/uwAVTNq1UUzj69HIQ3FGdWDbtRArN+PoFqM2sDd/kw+G6W+/FRrqM8XocR0VB2JfpfP3279qffBtFDzW2je4tPpBEx5HOqIfoKMeppQ59FUMN4qq+ZSr2lUrEFhKVX++N3+VASntiupuvavXMNc/5lT/xoJFMOK0m7UW3n1OY8aSc7MTKLQNyZmA9VdS+6J958oYit7057Z/JcIlY6mQDS68vkyVfO9gqql832p+md4DkUmxUf8FaVuC3CMUsfxr7lPqkdR8c02FJrvZ8FfalFb4aI2F9dKuGjKd0/2GZUo+l18Vpn9i+Mvzu+iprTG2AdZUy8WTfZllXJSa1ZQVjIlN1IbjVQv56hrGzKOfQJHI6O4sG8A8714nUaio8zhaUsfQlv+rN0VmY9FU9UOlIiditTJ6cpPR1Mnl0rYuVM9LvUVNd6u/UNTA1KRnLYZdU1QBdaljv91GpwsEmWcPHk7qbosowI4mcxN1JY6VJ1xibxe6zuYgz4wJ3V1Iur1GXZx+vjQ53ePnI8SyOQiiq+gwJi0321ShyohlXdQG6j6vTJS1wHVq/q/Bv9y1QnFTOJ7lZMemxIhBRm1RYN+P7gLnamOnPTu7Lfy81EBVBw7qTP4C6NSrzdMQyHUb9X+oa7qk8OTQvZj1c93tpZGNYE51MUHIS61p34k/anVoBJGzYdSDuooJ9fyHd8sOXLrRDJqHaF+7gP1Tyj7p9V3T8DYyVvB6NpPV21NddYdf7NHpf//eSKiVzEpueQc/6GI+m1PA4Opt4f8hE/nvw7jtAdOaT6wd2Cn9H2Eujr+GpV7Y305gBKLpN4wSw/B1jfNAUbNKG1wjyojVNn2/8XEf+2POGIajfOm/8TlH0bSn/piaKol+/yWjvo/cVeiFbeuBLlgWYt1gpJz4P8/9dpae5Ns2RMyMyFckvN4gaK6q3o723CiRZhekfiWNJfMPvw1Qn17l0afbxRNcdpp5C4UeVBq8Dg3+UmOKq5LEfr8DPHFQgz/bPC5A9A/P+JKQfuUtWF27vWYyzpK45X6Hajq6zDtzPC9iFCj7J9fFU0Wmxq2nEdgzunoH85i/8py1OpNLVLkB7HfNTFVOPV7V/9f3Nb/85MABWo/4IKeMd1h/nolNP4r/eD6WHcPj1yAuopTCZYX1f5BqPr9IlDn9kbijijjOu2lveg/a1BdcPpJcWqVGVVV9pEYNTLY90Gqf4Zt+z+iomITSnDuRPDDHtRKqr7uz9XXN5kK/frjcWfKmURwXQ35M4R6yH6+V+LCgT1agKLreYQuUzMP2xP1tOKOlFJE7Uz2S4Z/raRGUv0O6xevlP75Sch+2YD51Ax7+g2CqdL6Ip+Km3cvdEW1HeZW61uBnqH1/SpQJyQUvrPj6EaJrgc1Ta7BJUpZR7Mngo+Kh6YYo5JWPyj8U5q6Q9X+O0eqmlIIp4N5PpKjZpySLaXytLOmQ/nXYIpCO/qvGZ3v83OCUJE/NVWOMrQDut8a5V4d+zGjYiEFu/yxloKCqtxicRipe6L6rX79A/mUW1C8CFMxP1XgXE86Kb1ougJSj2byaav++T4eMkhiNa/uX81L5yR/BurFFn7nHGs1ZfujJGKdKqMG/K6soDCjkjRg7TIq6kc1JFGpnLqT6tefv7mZpy+iXAi4auqMGTr9qi6aNmrBqx/BqQdLPzjbBC3t279RKdUlL/V6mlCP/ikwDeWuJajMOhWWnzwg1jD0/FeZUYHulxv8lTI89juYo7qDUXeouvXzHwip3zjqZ5//zEGto/weHnbSXYkvFaEuVEk5KDsNUxehWsn1KqF2ZH+/WmpYzOedJ8/CfoBpqhIQKjDqSPY3KUVr/Uj2F0rdoXp0dXz+C60f4M+oQ0tAes19Baxa3LGHC6RspRkO/zNb+Owt6ZRpFKSolwmVqqnTRqleFd9d7zO9Gvfjq+/wI0aFbSlgvI/snVS4xx/kqaFlqSF1CCyfP9l3uqYfEm7y9xW/aiv71VLwI4yPsA27pP1kenuEyKiXiRQz6vsMUCemn+H+E9NpOXkuoyCxrDg3XWFjH8tRT2O/Emv96dNFQjve+DX1svwYq2aYukC2cZiTjb3VSfWa+aK0rVQcMbkyAMVBeYNRfYdRP67jdFdTVzX+sPL0CngiUg0Jr4bLKKLy+6pfYFTF9r1Wwz8XUoNf/Fqh+vUDuakKWEOhL3h/J4op/WCKTIwIm0xZOb/0RV1aZ9ph1Cn3VGLUKUJ9+xgUpaRhUkMZlTv508yabdOQ3yJKlTHKTFSUpLLTfTxFpf5UElP7Q/kdqQ2q9i9D1aqAk1ODbX532tq3tFEmWL3X+OqD2G1ybesuruTfIFSPGdXX5wyhJtnPUcp7ToU5UfqRFwT+UCNxfq68ro/dKPwfJEPFagqpfgTVqqWc91uBap7m/PX3fFMdmwwQTMcDUtzq97pCFB8gpYQ6DPyji88PeqMag3qSBRy/lrephxNSUjQEjSejDCuWmgehPwjlKPxxsw4ZFcCVGqnsEjqHapmbaoy6+k1HqK4Vqk79/hu0+rXH/G/KpuRL3K+a5t89GRSBbXsoA7VTlVK0G8rOSyeenOIcNb33MQfU/9xgDkpsN+lL/QckCqJ+QO9IECUkipiVMCronsI2qiEl1DSUsn8FN73oxYNUVTnnXy2sPr37prkpXn88vPqZa6Ze01MkdEGkUNC/5JqihdCvZVSfO1L+e5sFKu3VZ2V9ovINqeXfauUPjEiDTLUKs+gqDPShRGAdMCpelWJw5D+ei972L6JfYvgHuer+Z/p1WP3MNShknBrs9A8Ef9FRi2Y5qMbxX7NZqKujpJoG/zveqYeM2hCa33mfBKog+/mVHSknNS/h1ADkU2g8CiiVsKiAUWkzuqJt03hqqrb6IR9VxdRJ5+h/7L1aG1T3/PUFLsCvnUuDDFOYeZ08juTU46CMhD9B7+WIbyVxfxOinjOqB1JqllCjmnJO3iFFb0B3EHwTpYHlqNhJzQBeSWKKG/pR7O/yqSLulCtqqv4fiUnq8eXcIlb9tkO1serxPxWXlij7RFt9WuXCN0Mp3tRhBvd52r1Tj7qX0Q4TNkV6Y5pUk+vPt4pRiFELmZbXLKEKRVQhnJseNm+Y/LT+FCpiAZ+2jwYjUCq1pBpM8fUeuCMNSymUouYcdc043bPUA6HHLsEjVUW0uiNstb/mmfXr05byUw+m+FjSYD7qgGmJyV0xP7s94tYA6blx6klnXwn904QKa1Nk7tnRof1BP5SZwWig9SfsnQJBlVqoiNRf+88Bo2IxBbdQ1J+W+CXdti2HqJ1XE6kSWk12q76cB/z61F6FDkqJcXIW9+M/YgEwhfFfeNkb/VH2To2UM6knjOrBc9aaSkANRujfY+dJ+xMm5kEdKnCEYvm/P1UfnzT8o4YUBc9MgU0paAYVfOb6w7/tXLrtz+X4bcnPCtWWYjrl7eeAXb8iREsPgQRSlG6ZkYiqCfaRnFYy1djM15JjenEFjz7dtTvVbupJY5/HSP24AdQPfAKKdOwbhlXz2N9njArxWs2pilRDdT+Gpyj5hR6/fuRPn8tEPt1ftjDCLqt8fEBaXQ+sOsCP33vmqtZjO4n+fTwOZPhVqdQ12CAagmMw5TXTs7i/4LhsG2b5hR0c8kclUivopltUynJTLz5vBP5DTTlpbYS0+uTJwF4gTCpQKtP+Ga3qNOSzDf4k8hsy1++glsqfs1p92/H0Ogr/xqgRqgWrBvQFFr78TiMCeVIAAnQU7ok3ePLwHo/TgUNkcnoKADqgUjJlYu+D1OOklEM1vXm/A9Q34RDkGJJP+veAWkJJKhFR6DcDL58AHqXkunaOoBu+fgI3UB04UqT/You66khUl0qqAKyRVjNYXRg9HAOpEajhdIiv5KaaTtf1dkZYYQf0sF+fDEbZWZj6puu97nHpPWuq1qbQBgnDB/Ze0iAVZPsJMyrm0vyHa6cexcxUxKekJQVnqNDtj58FfNU3uwf9yKnbIf2T/C+0uh45gC9YLTCvQwINm8R9Y7kUEq/j5LQYp1qcUKYro7TtVJ/YlF6HOu0dMvW0lN/H6fJ2G6jSNCk3oMy9ziiclwa5EBXEAmqRU+uyXon88rRUXcPcXT61v3z6lm2b3Q4uzUZV/MJW9c/TAGWkUjDnUCddfkMrO09hSqSOhU7n5VPP3anRmfXQl2DaecbX+02gfqCreWLr6YsfNBlFFEpRmgv+QqxnoqqzvZ95qI65qIaqhy0G/yj+0xsM07Uyq7q8SosYfuhwV1umLOF0kTgPXnWQLuqd7NeFhSd7vwZF+qI9bObDierTwF9qUy9JRvtkSiiT/qnAqfBDivf0deakpH4UI52ZxBXUKNoBTCNO46/D/09YJaSaU9b9pYw5hSgMWMYRi38U+NXiKUZ5hyjvjIaMWndHgPMPVjjzeLtUisx83WHSIy7Ft3cJ9VBTuNbM95mZW4tOWLE00DAZnKMMKhBqo9ReyF+kw9L0Xm9nBPX4jEryaKKc2lqm6j0xAXLdKqYBBKyosZQZJ604fZKb7ij1ApuS4H+m8GF/SWcdj75XIhU0v/wsUL1pobYu/0sQnE9NSYYK4BnEMlQXq2rtx/6MUWRNEZiyhT4kR21W5GZb7M8JwNH6F92q1FIN439i1WX1Baysl5f7ewYG/GF3NEepZY0oOSvV7HiZNOqML+rwGzt6XuhjUu3nppVV/3t7ANRwunnX3DSjsIEaIICBMg49VgU9VDKnNpAuvfPnpp1EUUKZP44Q2uZKogTAp9p/gekWHQDGqsm6SljNzGok+cRnfvoBv4l8L0lyFNP1YMAEzY9YNvRknxT2vWY9UUPMPlJS2fLnDurTjhPaDIVLT6RUKtAqIVa19E1+kqOq2vGMm1GNvHkqOFOK4lTzbs1QTYDN8d97z/Ba6HVPBmLtivh8tN8XBH22radQqdfi+QbLYKp7zabs1qNlJtSNsA93R3kRnxicBaP+iZIqtanuspOn6j5Ivn5wjDVPElUjO/zL+LgU6EVlm3zbw6MYusUMANj+iVMXGP87tLoCpRW5FeGycunAkFIHMVdVQrBqCVoRoQ7Wl1rMnfZVLVJAQ42YFGL2EU6LkyoXoe9gNzhp9jnQCb4OLCU5VbNUqWoqXUOTGqcUmkBt/8jWDw/Sug3yqi94rW5VslI7aUD503VJhQa8Rqqzj1/tqe5BP15gUqb5W++U1SxDFWx9zQr5N9NShEBiSnUyVg849f0ZUD+C0GYyDdLAe06C1HtSE9Mrej/Xe+LSlJXfk2KsqniVn9dPce8U3nZDv4HFpUr1f50Cf37TegHErLVg+XiQC5fAyj8AmvFZMboVISfEfc3O4VrNpT7GKNrHRzX/E0I9yUs9zk+fEmq1/B9slgiuO/gUaEUKS6kxSgtOQxue4qN8yzj2M3sKiSllpZKj5nDNOI2FAL8VYsX5KkPtkv9OeSzl75NH/eZuBJ6iisLd/Vzra/o3nlZJWQf0STW/sSzk06c4jU5qF6pPnNPAK6Wixu+gFb3MKpzoITBV1Joy7cSUGhEq2tEkFamKqxrjf3rTbICtorS9l8M/LBD08VkE24Z1nBT2O73NYi1/bEXNLjHHq017zn76pUsWA2Drnwb+dMHv/lbTcOKespk9UUWN6fR4rXjkZBHZlGWnXPRjC9UL5xU18FMLbrxu6r/VVpsNkGZXPei1guBMKE4JQ8t04zOydPJqh4dtQaTurDoh43nP9pZ3G6JPn76itNHqiwgVOKlPO6NwbhpkF+BCwCd0Gj9EL0kJUFVCVcpISWq1OISd9lUjb0K2uuVuag0A1xKBRLFboc6lQTT2C241xd08+Camn4NM3V6gU8uKp+LVHEu69SwZ0IdJ62QSiob0hgiFIEXm1AtwCpPUqVJpEKdKAyuUhjmMOg7SkGZS1qbzlxUXpAqhrkrMUGVGrYRKTy8x+792VPmaBeSXF14HVksSW+VXSti25HPpyKaJUXXF6pneJ3BkG6Gs7Jk+Gc8T3P0xj8JSFHRT318A1LfX9Jn2GbWr7DsoRUjNzcnOrStJUKngT12oK0tRuxsnVe9SiPSNroDy2QEAjAowWnOBzLCAddPsgM/Bvn0fN5AAbh3pg0aj+c0cqzFrWobXGf/Uk9FR3xnSoxVS7YVXQvDHK3Aam6fnzur9z92VbbeR7DA7lsyu5aH00v//qWOpNy5gLS15uVeZYzvJ2wQHRZAgqJ71Is37kFEHpD5k1C9KZQi9KLBe0QIKrlEPqJJzw/YYoCOo3v//L0z4gN2jC0Dru544emmrYUngeKtzF7wnhs7kVqdBb4zIAzoqJVKNRs/lmfrQhT0oiVM9lHp/CU4fb/8Ttii9DsUZtbjOUweeBZSnC8vGTz3e13ZpraVUcr+82Bfjxb8GTlb+7y6VtH7P6xrAooUycfsqbSsClPKK5g2XrEKlg0tT4+UPYv1EHX0CWVEBs3LvrjOBbafak88efqP485MzfjNFfVJMYUZFG9BjBepaCzxaVMKCourTq1+hYm//VLnEhNqpB/ftCmjRQiuhrlXBgdi86660eVt2gKa8o3TrS6WW5jeqSisthM9whkzVfOzA6TijPn7zmof/8KR2gbXgdx8zas/sqSL2tz9bt+j03PTC69NPd8h/xQm+dyV1Q/dD3KV31lTdhlUPRs0rqyZGsiv1poVs894xzauBIEOBX2dTU48GDNXgjwy6Rvcm3sSBqZFMWuyvWH1/FU7XIvVkR4qXnU6NChv8DRElBNXy15Mg0oue75uH3y6fsrd/8s/Xr4yaLCElOhqqea9adzzu1JKYxhCQ3fVTWgksNXGqXvTowI5hAAAdNUlEQVRgp6hgnE9u37/nro5h1OoACvak9j96JU5PFqkl6napZtSqd8+Sqcuo23bnVVr7RNTUp1k9vfKcRjY7nRwlpTv/eAyZxCAg7c/fIZDybmNdFdbyb0i0PPh7/cBQkupIlaN99NV7/IcuP8qM/aodKttyVDz8B6W+qDMlrX59tWiEbKoY1R+Vdr75B5mWY4eeEelF90+bbpTVtLS1pm765YcXQ/G/9Gr+34YAWwPgQaYbo66LrI8yIaejql2LAOs7Id+BKh92BdMAatH+zn4G49Fc24DiFSkqTLOEKX28vfDzXs6FRJb6gmlXdVoqTBpFlsOdUj8/zX40MEsfz74k1KMGr1yyJ7t/5Pyjpz2wat2v2qrXFYpLv5UhIDUa6/UCwHZLA51T9zYhSkuomtSvPfjs5X/5wz/y9hcQwgsYtbZU2senuj+1dq6AW/pqCfVIQ/fWpC9fbPrg01tosmpt332F5L5GtIydjinWYbpaB6QrATdxGVTCTiDk2a/hsn9QasLLc9sbBV78LKX+8nktTitvv5u2i6JAitfmf6Y2ZYy66Cntlr4qs/QxkbJL0ttcI7ggtYE47ViG3fm0NppEk/Rw6ydEx20qFX0mMXnSmfvdCr9ysYwci77kUu3lOxhU/I5eWaD6U9TiPfzFmeXHeKIZhR//Q+0zRl3nU6bRb159cwVFzaTyRqheASApFTnoDOJWJZ9YO4D23JUDxL3YJGt31r1TX3iNbj9ltKrvTKJkH8pQqkTrx4tx2ixS3ZNQcJRaWdrTdFtvoBpGfeipur2P50yaCnViQ/4FqzfcpEIRIx2f5PFlUiI/dbz8ougIhFf1wvAoH67lV6x83AMN335FqHR8ezlOO99+rvx7Np37pL51oUg7imDUMl2ajAruSskKleqEGrDtH3FqoirHkt3Aast8sgskAW2gPLfrnAGj5tZWibWc6J6UwOr72+s/7RU9fRXKMmp1kO/XpRGN9nl7ijPqqvx9vT/Z/qleQPlccFp9+3WlSjZM1BmwelTaKfBl59bcKvHlVOhi0eybpWqtKDCDan8u34BTNJwq7u3n4vpN+1pSPk4Ln0QVEeW4A/bzUt+RYi3Uq9rlN0rqVmtTea7PxtNvi9Es2DV18KldzgseTE8p/Qz2nyqzJ286qgQVCUmV/n0HUD9KFZ8ooafIv+nGapF9Ut3eP97/qDG6/PnUaKBu+PQ2ULJbnQbPoMpT8oZK1WGZ7wXtyvQ9U5P20amdjqIQ86MsJdMsFW6pnD3F/+qJlPv2F7dzWvTjP1SSHnxqOvvqideMyv+Wd1DR0inIQ2WpE1PYYXqrkWo912EErqkXoN64vjp1CD0MSrBbqr4APs2gfcqwqrtT/Hfv34PTh+4v6Poj3IISN8vRsLRamuqyVLSiivjK+XS/zeiv8+1pE7ZA3TR/FvXprZNTFVhCv6BJXWWp2uFTi8+4+RS6504qXB9UAa4vSr3zGqoOm36PkFLDqdI4sFuU17S3IaVG92YIVWFU9ZkOQoVr/NfKw38NDSFVm6geJ/IAxM5+/HujuqUaBjeislBRWbVLIZMq+eRLqCpKvxGnuOevLCc8QHIoSWLZetqvORbdMS1FgRkVp4xaN6M07KBeHVv/7praX/xblVWJbf2p+f+L9pA17nT0qZfJ05T6WYaWmo6+g1Zk4JMSinKf6L/8+z6gdgxIvae+08SnGdWAtSjV30Qq8KBeJ3n9bM162ij1ogrTW4tQ4ZhqA0ugJ8+FByD5g4bwyeydLK/mYkp16lLdMxWMShnMpn5ESO26v+AjJvpmKcqXqHijohk3RfHkx1JMX1+hlDWu1sffuPqn6+GXuoIC9bBL37qKUwlTneAM4BlG+0QB9U2psvfcGXaSFaW2MyTAer6RUBmNSJ3Pxzfi9BhOFbNZGtWTX4a2oKDCF39pJVMsVkOJz9UelWBgNYunbJOfkemtr07d7jnoGFVDfUPc5+Q/B7v3jF0qjfW8TODCsx8iATef3eWSWnX63Tj15v0FOPY7FD7jU7VRwgoATbJ6GFX7WCk17TlTYD964vsnHKDNEZVWVfsagClYQz+bBonMQDYR+sSanrg4DkHaCuORKl++9tnI/fzjQkq9/UUHRZv56AifWp9UNM975PVpF1QjGkmZHSlll6bmSMruT/FTeNL+Fxy7SCesQoNRz/hMpEHfvvs9fGrefDJtUvpNnApjCqpDlWzqrE9liWoZVQmnWLnWWMT90QlYUUzSlFT8V0mivWA9fjQd1RB8DV57tk2gCeTkUOkQIN2UpRnK95to+77ymhourQCTfhyn93l/sTA9/nMPmTX51FmB0vhEDSkE3PUkrhZS6ti50Pz7/okE562bYPXiHzc3BbvUFLw9UuRxDqZX6oIcThMyaYDmmoXPMqmJjLKE2mtEye//vh+oH0U2p7zs8gEFFWtLpboD0MOlG1RniVS+xK+SpiYnGmWcT/X1ZsGpSE8F3CY1SyZw+BQa6SeSURMRfOB1F7++WoIW9bLcf27A9fMHcLr0/EsEB8zsvmkjJjoiy0mDUSNcPqmWqcrbByJ8eNx76CZPd/LPyJSDNhxJO8ZrbavWADoGYUSKWb6Ud5/U6nOunYNwos2Mdz932FB+hk933V9idM9A9EVGyh4Ubuxrl3SX1N/IdF6+T6BClYw6sXNvmSupWz+z2rG/NasqAg3Gp2fTTe0JndDfOUhiczRJbB4Pfc/BMgxTi8+ul/9ncPolp4pM6InV5Ki6dx+sk4pGVAG+U6eT6veoFKEaV3+sRqPceuf9vDkFNv8DdwGoA7nAHhiUxPdkfqjrpyT90HKgn3NH1hny7FPWw1LSKHUhmz7efuhjL+v1r5Y4a/pob8/HaA+jbnx6/wVP9ODwPgqnP4ScVCCgNKgQMxO/E8A1Z6d/GtpmrCySIpiCOpS7t07qUmoeeul/h0+Xt58bTofyd6M18FmoYkaNIzCVP+8HpO3eabT3T27DRSppi4o8RMrIVFy918hsMupIaZqUuUQSas4Cw86dHWDgc+b53Z/Lj/GpGKPC0+TSAQ02n+Husw478xk19tWo81apzqugQltSS4E6RbbQd5pKg1BO+kguStOVKasqdxdHm4UawWouVd0mUbLm5lVSwarOPH8Eoz8xOAWUai7qds2gXEa1HtNotk07wTrbCmDiPVR/JnUJ4fmn31xw5isqMAUAMKqN5ukP4Et8nN8aN1WukutoE1Ie/WGQ/jRO761Uc1qnM0HKuE7qjKof/dj/9s+iUN3f/Cuyooj7J7enQOo//yKhPCirPoGeVUDrUF1LAlmMn5LIYsmti6RgBGUwqktS+pM4vcspYzvpugGpnHugeVrEox/HddS8MuqsJBW40GOa/Tk8/fLLESrv/u8GK7Wcp9tV1Ulo66BJEo2nNRuQ9h8AMCu5u5mPTUHn9K/z6ePtH7y0ExF32s1SubN/Ru4bRl1/fSHVxPdIvY9Tewd2UXiRiqhUH3ZUZn0iCq60CgOLJVkkQ6u4fQer5ISbqaATaISmv6ijNjlVjOm0qfObUC2WUcdhOjOUHj9+4XSOeChVvX/SN9iHoyl9OY9LfWNacQgVrbOE6rufyYz1yYenEUzelJTOk+hv8uljI2XgJoSfx6faUZpRozWkdLWlZqH7F5zOD6RWOlOsNXVeS4G1lKCzfgKZLr89EFUNMwvVfP0spVR1NIqKUeQ2efLJ/yU+XbZRO3x8ziJphOdMIKOW04wq0fr4Eu2In7emzhanBAZTVUbVZ/QAofan7ybQksr7vLRdmuKMKD+JL58U/OlXcHp/+0e8JyYfWoWdqciTONKMqralHiBdCPXra5y8oKnR1hQ1YijteMqwJ4w0D9TMBAye8yTJqjP396S8h/41L/63L5z2JVF0BO5Xa1O8oB/LE4Q6FzFA3Rn1/vobRp2eUFKkRvrm1dfrKACnXua+G3pmK1Ox65x4kJW7lK8XStBI3883OfH5LZx+UWpX3zSivJM4zKgDbSmO1xWkG6M+Gv8osffeBc6DbEpGUZF66fl9P4RUsjaUMLwAJatRORd146K2GSo/RA51lB1HncPr56/hdGml9uHUPPoGpmetJ74ZRWqpRU090OqES4PTvAOyn2dP6A6Vzk2VHSkQARzai6g7dWYj87NeNcletxStk9gM05d83n8Rp8t0qnO1JKJICd2C0utRA+XpLBj1/hPH6PEpR52qFH9Xa4pAy1RVpIZLTU8/2GOQo5Fm3LknKlNtO6kI/axcJXpi2sqO+J/B6UapLU+0KVajN9p/hkU5RmWBOvNvM+NUrvjLiSE/2RUpyaL8VpqlVaSbxkOAsqhMc613qvL1dZKEPk36/8KnYjrlQNVN3McRp3ok1QLvbHunRkOVWVBq2bW/qlBbhEoyY4qN8002qjnoo0akgZBDOtSoNVg6TSonQtSgVN990uk7hP3Pr9L772+//PkXnQlU8a/siYdd+k/OCaiZfd/lPsPqA5usRGVI5deH85nqlPS0FG30mx0ptMQHgNlyn2aFVpEp4QdG2ZY+AXNUfrJn+qdw6kyndJwE3IaKRu/Hgtf5ep3RXEyx6lQx6vZRnf44UZ9x37RMOVjVZVRSJWqg2qZ0vxlan3g+pH4i4NjPMDAKRO8969/7S+MouDuFRb57tBQ8+GdqUmGSOtqnstG/w1RR6p1TxcOf2z190nKK4KOvjvhaS3T3E98ZeJIbaVFZ55eDZ55OWUz+7Hi/g1KdzH3jNI3KbTrSOp09yOqu1P4f4lSe3ef3+gnZToJrNxWFqWlCGUT2B6gn3sjPpsG/reRXaTQD24kWT3RuCervjaPQwB87pJqMGs/ao1xJNTtIxRXAYGsKLZYauJL+phRVwJao1hGT2hJ0PmZQuDRVd0cJs+nrpNNfkvtQ+J9jVCj2e/qls378FU6LW59yTh0a8pOy7v/X3pUtKY4DQdzWWmHkBz3p/z91uWyrLkk2uAfozGa2j9mYmIEi687yerbPh6PGfVpmoks6506TVJOYH8VSlFUsNQz0BUWq97HTpegfY4FRldnoaGhNbMuiuPcnfdO4VKMsiz23TU15rRAlcimzkU+O55plU6OLH0wpvjkaUMf4gh2demq5qod/DbO67vRGMAv8cmdPW3w+73DyscSoJOGvUGqql6a8LSrFJCW4TI9irobU1MbNZ9EfJeJ6gk/N6FTtP70q1X+XdJ9HqfppCDmHoilIndvG+ShxKksnPN+PWY3fMtdYyqS8LoDqZW2Kb+rxpT3bJpvj0olarC9oQ1Ir9dTvSzHTF6ZO7zEtZUWpKZorUHyCf4+UhOXumc2mvEKVKKMWWPX695kq6rwycxLrUKO2Bj1ylahRZv/FsDQQ05yImGlB0cRr1/Po8XFDd/d1dPpO4elCqYUU39CMPO9y+9munvobLN+vmOhiqf9VJqKliQorZen9WGuLbtvTY1In1dUSktGzpmmNUF+W7p/eD12hDWWbZ7OgRNIodXX1RLovsSQq0S91S/XmgJTSdKK3pGQ4qinwlE5CFlROAhU2yVXMQ9O4Pi/w11Im/63hKc+npITkmXn8s0j9m6g16d6eBq2EVpcQtU6rfWcMRHt9o5QnVF5j1NEwz2J5P9A5U34E6pHil+ZNlENlfioInRwRmv7jIelyiUoegSRkun+OL6mUmqiBcsefSk1+QaiXv780U+/NOT52mW+k9ShNZX+sO/9g75TyJf2p0imdhBCPp2Ol/jADfb/qqaTUwkrpWRtC2dzWJ9slsiuljPNbHSmK65P64zV9c2MWesn5DUYdvSHMN7YZacij0ZlGg/d1PTNxndTeejoqNnVv09w3F1LlGpTCqLuqphqjpryGSrei0yZGvQf9P56Y5qJn7k02ZcIm+XjUqGnv1c6V6LvORH+vmESJoNST4pTXOqWHWK17YztdGqm6PvS5ZKTlsinhTxmhim1Tyag1Y53fap0o7nsvFKMVK/UiKrWVIseWXildy/Oe+//KLLTSNX3hIuknu/3HUooY0VcYdeOefjKK/CwC4HZqDfaZjv/xXhPXTKyVKFoqlZ1SUyGynD0FqcHjiVJ0eciUy5b6Y1tPutt33enN8XPma1Gyp7938Vn/OTFjMojSVj/NHH9mqaO5WMKGorl2efFIVNHhB/WkHq+aGmX91clTRtWWSf3BVnqh0/709nj0p2JsEDM/N8/tkRp/ohEqawFkHal2QqXFC2aR9DCEJRkhxk11319W4RGXnuepkykb4ePTJtlafq61y2/pFmajXtvaf3u3v2yk0hEqxqg7xkuVMn9uo1kYm4v3mJPSJcdPAlU5C60kUKqNaoY5NvafchnTkN9+LCtC+0ndfKL6un46siTl3mmUv1U3JZPj0Rj13Gaqye7paxsnbGCqrS5FHf9iqV7tPRHZHZ47ier+6EvndIP6NU2c6KipFpeGiWb2hiZP80Wd56z0U+h0Lvtz/tyrbZqRZ9SSKEsKJTZl+mupX/4jOJHq0pGmAB+z0rG5oT+px8mtfJ/qRTLlSGPK1B8Vmd6zqI+x07mTqotGb4lN9Ypp0jQlZUUqthdR9bebFDTLKVUmUmKjtKkDFegMdK5cTtf0SzMnXt/D1wKAg7Oo4YPM9FajekLVlJZEtZ4+6eYXGXVPgMrrVMu5nZGXo6jI7mgdMG++Ubou59OjZW0bpZMSpLafIn+iEjU/3nRUqtages5YK1OnssG/VKUIobbYqx36d1xif+QHnkdqpaxjWj3+FPiJHVkx1T6Cp5eduNP/zbp+brMfRqc0TN1c3k/8ISPUJFk36TP9LWOopTccn4+i6jxNO6OjVdfnByE8DU9DVcdcG44m0/yH1qIcKUhdH93pA9HtkYq2qvssDEhCY4I0+GNrrq8n/Nz9M2kzehaiYJhNbVI1bcrj0yA39OSZPNJ/8vbBpxe39B35/IF0Soaod2yZJGUPWj10kvSPTSFq7entlRMQ+iHzpoA0GIuk+TB0RrOaw+cNfT/xYZRfrEXN1uq606eiXdiUVqLK2RUv7zM56bzB32SudRr46UaVRcdtJ5/0decsPJ2HocNU0NyVM/tCKVJ6fX9ckv+JNSn5Am8soaaoSkfRzpSW5YvSVDufNvVQujUuDZ4X/puky41BU8moPIcqzZ3o9VL/OtGIFp9//7L/YDu9dah2Z/XmhWizF0V7pvGFdnp9z8k7e89hEjPRi/OfGnb1rIPksgV1uM//qFaUPUjVbKCm8n7WmVJtVAig5r7/NXa6FqrYNchxq88PJH0KdLdk8lOtaMosVO3mH1mRcgqhDv3p4/GTNqnwpphq/4Mom8ZE0v1NndNuUyCjl6FqHBuUThRvk7YU9unUvjXHf2zZ1GmE2p2+AT92vd/KoCSbat8kqXu+5lKNYerGp7jbQKJVlRNbTKKoFskyJjs6PTh5+ookqsn7J9HTN0NUtQOVrHGpmFpL/Zup4Eqq3m+oRgUpDu2Vc89ZJSr4glqkpybq5fLzsWOmK5HOn7/B65cyqlTWkOLqUeUUign1Ntf69zzHfVMpPxSodFqrUrO3D02ndHnLyeva+kd7fkKoX2SmFqcmuVGqMmoyUyhNC21Dup92PsldZQp6jUSDPASVTUdVTz0HoW5Gd0vECOqB9umYkd6+/x6vL+qpvE3Kyvha0h/NFEqtTLUvR+8mg77bog8ZmMbJtHTwycpJrZ2vGKYv8Kc/iE9dRqhfZ6a690+qBL+iyJ9MM9V1z1/UNy2a6tjq7okpribKWdTQ2xe9JjnQNykip8el+tl3XX/6SvSKf0+8E6XsltAotvBBSTUeaad3/28aa8iloTxRgyYivBMp85eDUzLQZx2AqolAPWem+czpV+VQwlITl4lWdqKirnBa8vlxY8u0Nte3Lf8vJlNkAHru4bPUfyqk+5Mtc+YPT5xorZT+9HvN9GqpiW2QyJ0SvcVf4VKe88cDylK7Q9XMVEO+shem+y/zxs5El6GEcORzvfxhj8Euj6820xsJURcfjS+0OyfCMimfbiPUVz3RS6gapBDPekmHz5pwZx+oqMQy3adMQDPt/XarHLbaqOMLJiu+3Uxp8p+U48+yV7XqSBT4VBBq/CU7vZpqIOl9EJ0n2R31fCbqYqp5SrUEoH7OsVSFSKVw6jUmHLYRqasRav9z+gvoEzupqzcBpORpMgqpaXOAGl/73uuDtfG82OSqFXn9KuS9qEBORSx6PIJRueaubzA3t9fxOyV5+jtsmrt/e7hPmeRTcyiyybclOk0vf6p/erb7FNjFZ08u6Xk5nJ8LRWU90ixGdWIGdSsp7m/r/6HYlBV2xJw+a0DFereUr5zk5hl/j04Jq05kzDTcgtPAtp/yJf1gJPh0MMpNRxdJaWfUiRG++bvhb5mpaKjaS8+xWJDiiVQToR71XD8CgCmrlWaXypgC7/Rw+YxRAx/Yo59W7994+3loTp2c/OQ4pXZ/zkxXUtVW9JMQPrfKUZHLSzVEpwfmAY8AYBHfvbnuTCh6YcwgdqGyEFQMoNBEafnGqVa6WNewxWRdyWQfj79pprcSpBRBU++XKgSrzku18OnBT/bFVHM9nqVoevs65D19vkoaeMXUswPQ+laJKxnZntk9l/+hWcu0+zn9XfT5IknzJJ82hHLAKP8TLYBpXSxlp58Jmwq1/aw2elPmGxil+nKm5J5Ll6yqgfuLoakgoGStmBSq+2rxtIFQf8t33bpV0zxkmqdPK40KyejMTAOtVCk3IBULc1utde7XSx/PE6rur5vpzVRjTqnFRRN7oi/+aiuqqf7G2bQ6vHf9b3iInArhkyUgda1p/9Dwm0OdV/9Ocb+tU5WiqtRTaUWJ2dOSzf42K1xp9V6BmrKyvlI7XRiWyJhz7ciVT11huKm9ez9wC3XqA2RKX9OkmGq1GrXhFl/q/8k7MCxOPcxJfxC3cm9Eag/pe6fPQbsSHWYp/lBhWmfz6QAyVQIAeR+qvMNHyvxvxqZrCN6JKr8c6xNq+7eHy5qmq8eXbVH2k8Gm1aEQz4JMt3RVVcOUNpuYiVYWTmP/b/9d+U1dEpd6Pgz18N9+EIpRng/YSzIdtoWsTus7ZcUoWGmBfs5N7VLi/Kt3JN6g/Nd3wbO61C0ACMqaHhnc9+VClGssS/HpPmdU+ZdHB5ffFKymlqX9SLumls//eZP3YKer7j5sNdDZ0gfHZh1+11QHHZpTf3WxZOZSWGnbSxqtlejE2vqRzKDEdyRT8g8LuYpZ0LTMvGaYTu87uZqV2iI8koVng4WVbnpJ7QJVYgZrJ1F9/45vQpk1TfMYintYq6utO7st5SfVfvX4FFy66yWV5f7c44sZ/vhPWlDP8WrQNczzlWhXMNBCIjWI4w+sFCXmopA97X5Jf7oY1RQqMrW+yKn0zXmh7zomIuEWE3WT5tVF0dQ1daKqk1KLw+9Apc/WdjpppbQflfNp/BTndSfWXEDCu8cEv/P6HLNqhUNlkG8gJdNhfQdcv3sMA8Lhv5Bal7oVyadyaenu457vy5uQmqroRvmmeaehSqfObJ/CSA/goP7iMmN3t86lD3D5Sd9/7LN9eQ92Yek41TInERCYq6WyTCWCUwcm/YXX9/IKn75GN/ZaY2VD0a6Q3TP/PtixqFObrbf0HpkTsJtap2IratLodNBigKGgvXfNm0CkwNMZVuemhgWooZZV8Vbp7Y8ZYKPAayOBrrHO1Kh4cjdR2ChwTO7I6XXI3P1gs+uyROKm0F0sFCwK/Aq/Xgy2c90mjb7ubqCwUOCfFDr6a4XuardXy+2Gx8f167tlXut0sE4AAAAAAAAAAAAAAAAAAAAAAAAAAAAAAAAAAAAAAAAAAAAAAAAAAAAAAAAAAAAAAAAAAAAAAAAAAAAAAAAAAAAAAAAAAAAAAAAAAAAAAAAAAAAAAAAAAAAAAAAAAAAAAAAAAAAAAAAAAAAAAAAAAAAAAAAAAAAAAAAAAAAAAAAAAAAAAAAAAAAAAAAAAAAAAAAAAAAAAAAAAAAAAIB3xP+NYo88uA6hLAAAAABJRU5ErkJggg==;" vertex="1" parent="1">
          <mxGeometry x="887.78" y="584.5" width="60" height="60" as="geometry" />
        </mxCell>
        <mxCell id="KyCp2YwgPN-6iDdUvJKH-76" value="" style="shape=image;imageAspect=0;aspect=fixed;verticalLabelPosition=bottom;verticalAlign=top;image=data:image/png,iVBORw0KGgoAAAANSUhEUgAAASIAAACuCAMAAAClZfCTAAABCFBMVEX///8AAACPLIaMLIXZc72XLouULYnnmcnMzMydnZ2Dg4PfgMLXb7zmlsmSLYn19fXhhcTg4OCysrLefcLr6+vBwcG3t7fo6OhkZGTlksjV1dVfX19TU1Pc3NyYmJitra2FKn7IyMgjIyMwMDB1dXUbGxtqampGRkaQkJCkpKR7J3efLZDnn8pXV1dDQ0M8PDzUZbjw3+367Pb32+3PncmgGo/Yr9Pjxd7XpsvljcnprdWiQZHtvt6pRp2xWaWdJY67dbPIkMHNcLPjxd/AgriJN318InOXRIfhxd1zIGypVpfEaK356fQRERGMFoOgSZOiXpzi0OBqI2Z5MHF5FXZgEV7DosO1jLR9rxQgAAAHOElEQVR4nO2aaXfaOBSGLcIOqdkJDglrQghptq7M0nRN0gXSTDPt//8nc++VbGSHznwYCpyT9zk9BWNLSI+vriQHxwEAAAAAAAAAAAAAAAAAAAAAAAAAAAAAAAAAAAAAAAAAAAAAAAAAAAAAAABgc3YmL+dPVtyO9eXps2dP6eVJIXe06qasKc+fjUYXz8lQAY7m8+JiNBolki/HBXb026qbs4acaUO/5woFOJrL+ShkqFAo/7HqJq0bf16woWRgqJArv1t1m9aLV2IoFhjK5egf5n6L1xejBBl6GxgiQblcGY4C3ugYejsbZZry2apbti7wgiiRiH2OCGJH56tu23rwjmOIJrNxVBApyrmrbt06cCaGErGbiB7yUy6XC3DknCfEUCLWfktZuhAx1EhhK3L+6iKR0Iou39pRVGYaR0dHD36Z/doYSiY32h8igsTQUeqBL7PfX4wSxhGF0YdAkDgai6EH7ujpNJEIFG20L69mEUSZmgUxmw94K/J8ZohGmnEUGEppQezoRaRgpShUFtoaqrS+0AoXwHXIUDIWa7OjwJDFZmQrklXC3mC4wOZ0qcbFSv/fnI1sQcnkIwqj9sdP2lAulfoXR0YRcbKwdZPH1ZUWVdtCOA/5ST569CjGQ8042owo2vxilyVFB+lOjU09XlR7qLI91VxUbYvAvRE9M0GsiIeaONqMCEptpuztGnWnxq9VcrSzoAYpdbyvVHFBtS2Cl9MggJLGT4zDqH348XN5HBbENOwlZNYfEj3/TaVT7fzHmCtWq7YAt5q2z5LtVouC0/7M7VRDN4BqCJKVm652FnV3fsL7aTIcQFrRBin6RPuO1KalRxTZO5FA0bZ+0zmWxNQs6nOSxKnP2/w61BHnnfAVPc8Ur3qR5NxUql4JcltaqX2d8Y5Fa0apTqXJx319eX/BmXAeL6eBH9vQhkRRQQxtWjTmR9GJvBkG2XtH1Gz5nTCvNJfX/CvSunhGhRW5Sg0c57E+rxX1TYm6VlTq6sMBn98zU+ovVeQm7AHmC6KBdvlKtq8hPYydr31FnvSAM1LWq0goOZxUetzynjbmSg72lO+yp4t31UEtYynKyPmWHyWkaKKyxTp9QOEkp2kg1ovZoJ4BfUfx4Nc+h/gSDqDA0A0ZipcbIT2Nxjj0ANIo4tDYFhl6faTfbIkaT9FRy3HqSu3KgKyagh29ZuiEW7MnMUUjbVIxinSdHXrjakWSeQ5odMlXpJ0lcDuNBYY2NJSsb8pxhh01Zox/ti6iUN/RoeGIsmO5xRn+PzvgABhy3+oT1XVMj7NSfDvcFs+sHrZMeJIiXcAZiNyMH15FiVSqoLmUB1nX01jU0OVN3FAOGYrsQAJFfVdGx75jtb8uyaipqkM+6vNdJwPdbaYp1/oZPVRhyXVdFiry0oHEvlybMVEokVrnu0LfvYxA+j61/LCiy6t4QM4yFN3rU4/2h5lhR/ZUGYkMpqKT0UB13cqecj1e5nT59ntqxvZsWRXgWuclPadNzvd1hhTRHNeR3P14CXu6N1NbUPvwQzw+x9E9Q+E+BoOA44cVUb4opjlJU2hUJGuQombasDNHUc1WRKnLUrQlGS3jJy+3K7nJcVu8BJgsYU/3fvpTQ76j8fj+c8esvZvqmIlY5nt+R0KGWc5H26pfU3vUjZ0gtfjFw4qou9lSiyhlJR2zIrMXoWWFJ4pacuiZpQS/7Wmdvxj3q2XoMB6hQH7G4zlPr0OKeJToUdDUHaE7vd/kCailulmdhnvBQHGd+4rqs35XJqKEZzRZM9b0qYxMBI6kpr5frBWM8F/K+c3M0OeIoXy+QIZSc0qFFDm7vFipuEV/sUj90DNYnXemJXPJpER26sN9576ijDXDbUm/WVEv7VZqZuDxpL9fdOs8T5DBA1mk7y8lihznzBhqRw3lmUKhMa9QWBF3S+3xUlFJ0+XWy/1V/nKGA0x1B8cTGT9RRSfWsQ4bUjSYqF7X32SQIvqS3sRUvKVOHm/31LKeL92KoPbhVfxeEBHxuX+P7fupwXCgE23TbFPr/tDrB0sm16wTuiX9sW04rZeHGp4VW7IB0dPglpzhdD0MkrnZoanmsp5SXt+Jog9zBOXzX+YW4SVM+INqZrdVvH/eutAt7e62duYWDx27fCQzmlvbHZrNvEz6leFuyYRNkSorLfEx7nd2RLvXe37yp6v63cNs0tfM1kUr4v0dK/pLO8rzP2NoZb+eWTtFztc7mtC0o/yM0+gfPpbH+ilyru4O2VHe5nSFf2JcQ0VuW8LoW3w9DFnbWM0aKHLO2xJG3/w0lD9d6c8dXM8LzVcVz1v9r3hu9VD7dmoM4Ucz97kmRx8//v1DG5q7qH7wfCdHd9+ddxRHp+PVh/Va8uPu7ge9/HF6msPPQH/C7a28nL1ADAEAAAAAAAAAAAAAAAAAAAAAAAAAAAAAAAAAAAAAAAAAAAAAAAAAAAAAAAAAABj+ATJuvoWh1+VwAAAAAElFTkSuQmCC;" vertex="1" parent="1">
          <mxGeometry x="1027.78" y="589.5" width="83.33" height="50" as="geometry" />
        </mxCell>
        <mxCell id="KyCp2YwgPN-6iDdUvJKH-77" style="edgeStyle=orthogonalEdgeStyle;rounded=0;orthogonalLoop=1;jettySize=auto;html=1;exitX=1;exitY=0.25;exitDx=0;exitDy=0;entryX=0;entryY=0.5;entryDx=0;entryDy=0;" edge="1" parent="1" source="KyCp2YwgPN-6iDdUvJKH-48" target="KyCp2YwgPN-6iDdUvJKH-74">
          <mxGeometry relative="1" as="geometry" />
        </mxCell>
        <mxCell id="KyCp2YwgPN-6iDdUvJKH-79" value="CDC Logs&amp;nbsp;Integration with&lt;br style=&quot;border-color: var(--border-color); font-size: 12px;&quot;&gt;&lt;span style=&quot;font-size: 12px;&quot;&gt;Existing Systems &lt;br&gt;Solution (i.e Power Apps)&lt;/span&gt;" style="edgeLabel;html=1;align=center;verticalAlign=middle;resizable=0;points=[];" vertex="1" connectable="0" parent="KyCp2YwgPN-6iDdUvJKH-77">
          <mxGeometry x="0.2415" y="-4" relative="1" as="geometry">
            <mxPoint as="offset" />
          </mxGeometry>
        </mxCell>
        <mxCell id="KyCp2YwgPN-6iDdUvJKH-80" value="MongoDB" style="dashed=0;outlineConnect=0;html=1;align=center;labelPosition=center;verticalLabelPosition=bottom;verticalAlign=top;shape=mxgraph.webicons.mongodb;gradientColor=#DFDEDE" vertex="1" parent="1">
          <mxGeometry x="884.0300000000001" y="700" width="63.42" height="60" as="geometry" />
        </mxCell>
        <mxCell id="KyCp2YwgPN-6iDdUvJKH-82" style="edgeStyle=orthogonalEdgeStyle;rounded=0;orthogonalLoop=1;jettySize=auto;html=1;" edge="1" parent="1" target="KyCp2YwgPN-6iDdUvJKH-80">
          <mxGeometry relative="1" as="geometry">
            <mxPoint x="586" y="472" as="sourcePoint" />
            <Array as="points">
              <mxPoint x="586" y="472" />
              <mxPoint x="586" y="720" />
            </Array>
          </mxGeometry>
        </mxCell>
        <mxCell id="KyCp2YwgPN-6iDdUvJKH-84" value="CDC Logs Flexibility \&lt;br style=&quot;border-color: var(--border-color); font-size: 12px; background-color: rgb(251, 251, 251);&quot;&gt;&lt;span style=&quot;font-size: 12px; background-color: rgb(251, 251, 251);&quot;&gt;and Analysis Capabilities Solution&lt;/span&gt;" style="edgeLabel;html=1;align=center;verticalAlign=middle;resizable=0;points=[];" vertex="1" connectable="0" parent="KyCp2YwgPN-6iDdUvJKH-82">
          <mxGeometry x="0.3786" relative="1" as="geometry">
            <mxPoint x="-1" as="offset" />
          </mxGeometry>
        </mxCell>
        <mxCell id="KyCp2YwgPN-6iDdUvJKH-86" value="Data Storage Resources" style="image;sketch=0;aspect=fixed;html=1;points=[];align=center;fontSize=12;image=img/lib/mscae/StorSimple_Data_Managers.svg;" vertex="1" parent="1">
          <mxGeometry x="899.28" y="30" width="37" height="50" as="geometry" />
        </mxCell>
        <mxCell id="KyCp2YwgPN-6iDdUvJKH-87" value="" style="rounded=1;whiteSpace=wrap;html=1;rotation=90;fillColor=none;strokeWidth=4;" vertex="1" parent="1">
          <mxGeometry x="644" y="313.43" width="690" height="280" as="geometry" />
        </mxCell>
        <mxCell id="KyCp2YwgPN-6iDdUvJKH-88" value="" style="rounded=1;whiteSpace=wrap;html=1;rotation=90;fillColor=none;strokeWidth=4;" vertex="1" parent="1">
          <mxGeometry x="-65" y="185" width="145" height="180" as="geometry" />
        </mxCell>
      </root>
    </mxGraphModel>
  </diagram>
</mxfile>
